<?xml version="1.0" encoding="UTF-8" standalone="no"?>
<!-- Created with Inkscape (http://www.inkscape.org/) -->

<svg
   version="1.1"
   id="svg2"
   width="666.66669"
   height="666.66669"
   viewBox="0 0 666.66669 666.66669"
   sodipodi:docname="11141856_4669594.eps"
   xmlns:inkscape="http://www.inkscape.org/namespaces/inkscape"
   xmlns:sodipodi="http://sodipodi.sourceforge.net/DTD/sodipodi-0.dtd"
   xmlns="http://www.w3.org/2000/svg"
   xmlns:svg="http://www.w3.org/2000/svg">
  <defs
     id="defs6" />
  <sodipodi:namedview
     id="namedview4"
     pagecolor="#ffffff"
     bordercolor="#000000"
     borderopacity="0.25"
     inkscape:showpageshadow="2"
     inkscape:pageopacity="0.0"
     inkscape:pagecheckerboard="0"
     inkscape:deskcolor="#d1d1d1" />
  <g
     id="g8"
     inkscape:groupmode="layer"
     inkscape:label="ink_ext_XXXXXX"
     transform="matrix(1.3333333,0,0,-1.3333333,0,666.66667)">
    <g
       id="g10"
       transform="scale(0.1)">
      <path
         d="M 0,0 H 5000 V 5000 H 0 Z"
         style="fill:#ffffff;fill-opacity:1;fill-rule:nonzero;stroke:none"
         id="path12" />
      <path
         d="m 4537.7,549.262 c 0,-105.621 -918.61,-191.242 -2051.79,-191.242 -1133.17,0 -2051.781,85.621 -2051.781,191.242 0,105.617 918.611,191.23 2051.781,191.23 1133.18,0 2051.79,-85.613 2051.79,-191.23"
         style="fill:#e7f5fd;fill-opacity:1;fill-rule:nonzero;stroke:none"
         id="path14" />
      <path
         d="m 1905.08,1489.11 c -0.01,0 -0.02,0 -0.03,0 H 686.395 v 10 10 H 1905.05 c 25.8,0.01 50.03,11.31 66.62,31.08 13.27,15.82 20.34,35.52 20.34,55.79 0,5.05 -0.44,10.13 -1.33,15.21 l -109.11,617.71 c -7.36,41.64 -43.35,71.83 -85.63,71.84 H 577.285 c -25.793,-0.01 -50.031,-11.32 -66.621,-31.08 l 0.004,0.01 c -13.273,-15.83 -20.344,-35.55 -20.348,-55.81 0,-5.05 0.442,-10.14 1.336,-15.21 L 600.77,1580.94 c 7.355,-41.64 43.328,-71.82 85.625,-71.83 v -10 -10 c -51.973,-0.01 -96.301,37.19 -105.325,88.36 l -109.109,617.7 c -1.102,6.22 -1.641,12.47 -1.641,18.69 -0.004,24.9 8.707,49.17 24.957,68.58 l 0.067,0.08 c 20.347,24.26 50.25,38.22 81.918,38.22 0.008,0 0.015,0 0.023,0 H 1795.94 c 51.96,0.01 96.29,-37.19 105.33,-88.36 l 109.1,-617.71 c 1.1,-6.23 1.64,-12.48 1.64,-18.69 0.01,-24.93 -8.72,-49.23 -25.02,-68.65 -20.34,-24.27 -50.25,-38.22 -81.91,-38.22 m -1410.029,793.06 0.293,0.35 c -0.024,-0.03 -0.043,-0.05 -0.067,-0.08 l -0.226,-0.27"
         style="fill:#daf2e8;fill-opacity:1;fill-rule:nonzero;stroke:none"
         id="path16" />
      <path
         d="M 1905.05,1546.91 H 686.395 c -23.848,0 -44.258,17.12 -48.407,40.61 l -109.105,617.71 c -5.317,30.1 17.84,57.7 48.402,57.7 H 1795.94 c 23.85,0 44.26,-17.12 48.41,-40.6 l 109.1,-617.71 c 5.32,-30.11 -17.83,-57.71 -48.4,-57.71"
         style="fill:#daf2e8;fill-opacity:1;fill-rule:nonzero;stroke:none"
         id="path18" />
      <path
         d="m 1740.12,2086.97 h -479.97 l -4.75,26.89 h 479.97 l 4.75,-26.89"
         style="fill:#4dc3bc;fill-opacity:1;fill-rule:nonzero;stroke:none"
         id="path20" />
      <path
         d="M 1657.77,2029.51 H 1270.3 l -4.75,26.89 h 387.47 l 4.75,-26.89"
         style="fill:#4dc3bc;fill-opacity:1;fill-rule:nonzero;stroke:none"
         id="path22" />
      <path
         d="m 744.27,1818.73 h 417.84 l -48.9,276.81 H 695.379 Z m 430.78,-19.12 H 738.086 c -5.277,0 -10.316,4.27 -11.25,9.56 l -52.27,295.93 c -0.933,5.29 2.594,9.56 7.872,9.56 H 1119.4 c 5.27,0 10.31,-4.27 11.25,-9.56 l 52.27,-295.93 c 0.93,-5.29 -2.6,-9.56 -7.87,-9.56"
         style="fill:#4dc3bc;fill-opacity:1;fill-rule:nonzero;stroke:none"
         id="path24" />
      <path
         d="m 930.43,1947.57 c -1.867,0 -3.84,0.55 -5.649,1.65 l -244.613,147.96 c -4.898,2.96 -7.09,8.91 -4.902,13.29 2.183,4.37 7.937,5.5 12.82,2.55 l 238.613,-144.34 187.631,144.34 c 3.83,2.95 9.99,1.82 13.73,-2.55 3.73,-4.38 3.64,-10.33 -0.22,-13.29 L 935.5,1949.22 c -1.422,-1.1 -3.199,-1.65 -5.07,-1.65"
         style="fill:#4dc3bc;fill-opacity:1;fill-rule:nonzero;stroke:none"
         id="path26" />
      <path
         d="M 1816.31,1664.62 H 750.918 l -6.781,38.37 H 1809.53 l 6.78,-38.37"
         style="fill:#ef2d63;fill-opacity:1;fill-rule:nonzero;stroke:none"
         id="path28" />
      <path
         d="m 1708.11,1972.05 h -427.66 l -4.75,26.89 h 427.66 l 4.75,-26.89"
         style="fill:#4dc3bc;fill-opacity:1;fill-rule:nonzero;stroke:none"
         id="path30" />
      <path
         d="M 1618.94,1914.59 H 1290.6 l -4.75,26.89 h 328.34 l 4.75,-26.89"
         style="fill:#4dc3bc;fill-opacity:1;fill-rule:nonzero;stroke:none"
         id="path32" />
      <path
         d="m 1741.3,1857.13 h -440.55 l -4.75,26.89 h 440.54 l 4.76,-26.89"
         style="fill:#4dc3bc;fill-opacity:1;fill-rule:nonzero;stroke:none"
         id="path34" />
      <path
         d="M 1678.66,1799.66 H 1310.9 l -4.75,26.9 h 367.76 l 4.75,-26.9"
         style="fill:#4dc3bc;fill-opacity:1;fill-rule:nonzero;stroke:none"
         id="path36" />
      <path
         d="m 2138.85,2417.22 c -0.01,0 -0.02,0 -0.03,0 h -1575 v 10 10 h 1575 c 32.38,0.01 62.83,14.2 83.67,38.99 16.71,19.9 25.62,44.7 25.63,70.2 0,6.29 -0.55,12.62 -1.65,18.93 l -187.43,1071.39 c -9.18,52.43 -54.41,90.44 -107.66,90.45 H 376.395 c -32.383,0 -62.832,-14.19 -83.672,-38.98 -16.711,-19.89 -25.625,-44.71 -25.629,-70.21 0,-6.29 0.543,-12.62 1.644,-18.93 v 0 L 456.164,2527.68 c 9.188,-52.44 54.418,-90.44 107.656,-90.46 v -10 -10 c -62.914,-0.01 -116.523,45.04 -127.355,107.02 l -187.391,1071.15 -0.035,0.22 c -1.305,7.45 -1.945,14.94 -1.945,22.38 -0.004,30.17 10.57,59.58 30.316,83.08 v 0 c 24.602,29.29 60.719,46.12 98.961,46.12 0.008,0 0.016,0 0.024,0 H 1951.38 c 62.92,0.01 116.53,-45.04 127.36,-107.02 l 187.43,-1071.38 c 1.3,-7.45 1.95,-14.94 1.95,-22.38 0,-30.16 -10.58,-59.57 -30.31,-83.06 -24.6,-29.3 -60.72,-46.13 -98.96,-46.13"
         style="fill:#daf2e8;fill-opacity:1;fill-rule:nonzero;stroke:none"
         id="path38" />
      <path
         d="M 2138.81,2475.03 H 563.82 c -34.73,0 -64.433,24.96 -70.422,59.17 L 305.973,3605.57 c -7.657,43.75 26.011,83.81 70.422,83.81 H 1951.39 c 34.72,0 64.43,-24.96 70.42,-59.17 l 187.43,-1071.37 c 7.65,-43.75 -26.02,-83.81 -70.43,-83.81"
         style="fill:#daf2e8;fill-opacity:1;fill-rule:nonzero;stroke:none"
         id="path40" />
      <path
         d="m 948.684,3340.99 c -135.508,0 -226.461,-110.24 -202.758,-245.74 23.703,-135.5 153.23,-245.74 288.734,-245.74 135.5,0 226.45,110.24 202.75,245.74 -23.7,135.5 -153.23,245.74 -288.726,245.74 z m 90.996,-520.16 c -151.321,0 -295.961,123.11 -322.434,274.42 -26.473,151.32 75.098,274.42 226.418,274.42 151.316,0 295.956,-123.1 322.426,-274.42 26.47,-151.31 -75.09,-274.42 -226.41,-274.42"
         style="fill:#ef2d63;fill-opacity:1;fill-rule:nonzero;stroke:none"
         id="path42" />
      <path
         d="m 917.277,3520.51 c -234.492,0 -391.894,-190.77 -350.871,-425.26 41.024,-234.49 265.172,-425.26 499.664,-425.26 234.49,0 391.89,190.77 350.86,425.26 -41.02,234.49 -265.17,425.26 -499.653,425.26 z m 153.813,-879.2 c -250.313,0 -489.574,203.64 -533.363,453.94 -43.789,250.31 124.226,453.94 374.531,453.94 250.302,0 489.562,-203.63 533.352,-453.94 43.79,-250.3 -124.22,-453.94 -374.52,-453.94"
         style="fill:#ef2d63;fill-opacity:1;fill-rule:nonzero;stroke:none"
         id="path44" />
      <path
         d="m 1076.1,2612.63 c -266.12,0 -520.498,216.5 -567.057,482.62 -46.551,266.12 132.078,482.62 398.199,482.62 266.118,0 520.498,-216.5 567.048,-482.62 9.35,-53.44 9.85,-105.95 1.5,-156.07 l -86.29,27.81 c 6.86,41.15 6.44,84.31 -1.25,128.26 -38.25,218.68 -247.28,396.58 -465.957,396.58 -218.68,0 -365.461,-177.9 -327.207,-396.58 38.254,-218.68 247.285,-396.58 465.964,-396.58 l 15.05,-86.04"
         style="fill:#4dc3bc;fill-opacity:1;fill-rule:nonzero;stroke:none"
         id="path46" />
      <path
         d="m 1044.7,2792.15 c -167.134,0 -326.895,135.97 -356.134,303.1 -18.98,108.5 21.942,209.39 106.801,263.29 l 55.774,-74.7 c -60.809,-38.61 -90.129,-110.87 -76.536,-188.59 20.938,-119.69 135.348,-217.06 255.035,-217.06 119.69,0 200.03,97.37 179.09,217.06 -9.11,52.09 -36.64,102.45 -77.53,141.81 l 55.27,56.24 c 57.12,-54.97 95.58,-125.31 108.3,-198.05 29.24,-167.13 -82.94,-303.1 -250.07,-303.1"
         style="fill:#4dc3bc;fill-opacity:1;fill-rule:nonzero;stroke:none"
         id="path48" />
      <path
         d="m 916.609,3003.41 c -28.945,24.48 -48.234,57.09 -54.312,91.84 -12.481,71.34 35.398,129.38 106.742,129.38 71.331,0 139.531,-58.04 152.001,-129.38 3.89,-22.2 1.99,-44.13 -5.48,-63.39 l -82.37,42.19 c 2.53,6.51 3.13,13.64 1.82,21.2 -4.19,23.9 -27.03,43.34 -50.92,43.34 -23.895,0 -39.938,-19.44 -35.758,-43.34 2.039,-11.64 8.5,-22.56 18.191,-30.76 l -49.914,-61.08"
         style="fill:#4dc3bc;fill-opacity:1;fill-rule:nonzero;stroke:none"
         id="path50" />
      <path
         d="m 1888.09,3557.35 h -401.65 l -4.45,25.42 h 401.65 l 4.45,-25.42"
         style="fill:#4dc3bc;fill-opacity:1;fill-rule:nonzero;stroke:none"
         id="path52" />
      <path
         d="m 1968.27,3493.06 h -470.58 l -4.45,25.41 h 470.58 l 4.45,-25.41"
         style="fill:#4dc3bc;fill-opacity:1;fill-rule:nonzero;stroke:none"
         id="path54" />
      <path
         d="m 1942.91,3428.77 h -433.98 l -4.45,25.42 h 433.98 l 4.45,-25.42"
         style="fill:#4dc3bc;fill-opacity:1;fill-rule:nonzero;stroke:none"
         id="path56" />
      <path
         d="m 1832.46,3364.47 h -312.28 l -4.45,25.42 h 312.29 l 4.44,-25.42"
         style="fill:#4dc3bc;fill-opacity:1;fill-rule:nonzero;stroke:none"
         id="path58" />
      <path
         d="m 1929.43,3300.18 h -398 l -4.45,25.42 h 398.01 l 4.44,-25.42"
         style="fill:#4dc3bc;fill-opacity:1;fill-rule:nonzero;stroke:none"
         id="path60" />
      <path
         d="M 1964.25,3122.01 H 1562.6 l -4.45,25.42 h 401.65 l 4.45,-25.42"
         style="fill:#4dc3bc;fill-opacity:1;fill-rule:nonzero;stroke:none"
         id="path62" />
      <path
         d="m 2044.43,3057.72 h -470.59 l -4.44,25.42 h 470.58 l 4.45,-25.42"
         style="fill:#4dc3bc;fill-opacity:1;fill-rule:nonzero;stroke:none"
         id="path64" />
      <path
         d="m 2019.07,2993.43 h -433.98 l -4.44,25.42 h 433.97 l 4.45,-25.42"
         style="fill:#4dc3bc;fill-opacity:1;fill-rule:nonzero;stroke:none"
         id="path66" />
      <path
         d="m 1908.62,2929.14 h -312.28 l -4.45,25.42 h 312.29 l 4.44,-25.42"
         style="fill:#4dc3bc;fill-opacity:1;fill-rule:nonzero;stroke:none"
         id="path68" />
      <path
         d="m 2005.59,2864.85 h -398.01 l -4.44,25.42 h 398 l 4.45,-25.42"
         style="fill:#4dc3bc;fill-opacity:1;fill-rule:nonzero;stroke:none"
         id="path70" />
      <path
         d="M 2229.85,3843.67 H 974.469 v 20 H 2229.85 c 0.02,0 0.02,0 0.04,0 46.03,0.01 85.87,32.88 94.59,78.09 l 111.23,575.54 c 1.19,6.14 1.77,12.3 1.77,18.41 -0.01,22.18 -7.64,43.75 -22.06,61.23 l 0.29,-0.35 -0.29,0.35 c -18.4,22.29 -45.43,35.02 -74.34,35.03 H 1085.7 c -0.01,0 -0.02,0 -0.03,0 -46.05,0 -85.877,-32.88 -94.604,-78.08 v 0 L 879.84,3978.34 c -1.188,-6.13 -1.77,-12.29 -1.77,-18.41 0.004,-22.17 7.645,-43.75 22.067,-61.22 18.41,-22.29 45.429,-35.03 74.332,-35.04 v -10 -10 c -34.817,-0.01 -67.602,15.44 -89.758,42.31 -17.375,21.04 -26.645,47.17 -26.641,73.95 0,7.39 0.703,14.82 2.133,22.21 l 111.227,575.54 c 10.586,54.66 58.58,94.28 114.27,94.29 h 1255.38 c 0.01,0 0.03,0 0.04,0 34.81,0 67.58,-15.45 89.73,-42.3 v -0.01 c 17.37,-21.04 26.63,-47.17 26.63,-73.95 0,-7.38 -0.71,-14.82 -2.13,-22.21 l 0.47,2.46 -111.7,-577.99 c -10.58,-54.67 -58.59,-94.28 -114.27,-94.3"
         style="fill:#daf2e8;fill-opacity:1;fill-rule:nonzero;stroke:none"
         id="path72" />
      <path
         d="M 2229.85,3901.47 H 974.469 c -36.813,0 -64.5,33.56 -57.516,69.7 l 111.227,575.54 c 5.33,27.56 29.45,47.47 57.52,47.47 h 1255.38 c 36.81,0 64.5,-33.56 57.51,-69.7 l -111.22,-575.54 c -5.33,-27.56 -29.45,-47.47 -57.52,-47.47"
         style="fill:#daf2e8;fill-opacity:1;fill-rule:nonzero;stroke:none"
         id="path74" />
      <path
         d="m 1415.34,4500.79 c -140.28,0 -276.47,-114.14 -303.58,-254.43 -27.12,-140.29 64.96,-254.42 205.24,-254.42 140.3,0 276.48,114.13 303.6,254.42 27.11,140.29 -64.96,254.43 -205.26,254.43 z M 1314.23,3977.6 c -148.19,0 -245.45,120.57 -216.81,268.76 28.64,148.2 172.5,268.76 320.7,268.76 148.19,0 245.46,-120.56 216.82,-268.76 -28.64,-148.19 -172.51,-268.76 -320.71,-268.76"
         style="fill:#4dc3bc;fill-opacity:1;fill-rule:nonzero;stroke:none"
         id="path76" />
      <path
         d="m 1415.34,4500.79 c -87.12,0 -180.06,-114.14 -207.16,-254.43 -27.12,-140.29 21.7,-254.42 108.82,-254.42 87.13,0 180.06,114.13 207.18,254.42 27.11,140.29 -21.71,254.43 -108.84,254.43 z M 1314.23,3977.6 c -95.02,0 -149.04,120.57 -120.4,268.76 28.64,148.2 129.25,268.76 224.29,268.76 95.03,0 149.03,-120.56 120.4,-268.76 -28.65,-148.19 -129.26,-268.76 -224.29,-268.76"
         style="fill:#4dc3bc;fill-opacity:1;fill-rule:nonzero;stroke:none"
         id="path78" />
      <path
         d="m 1415.34,4500.79 c -23.97,0 -76.12,-96.8 -106.58,-254.43 -30.47,-157.63 -15.73,-254.42 8.24,-254.42 23.98,0 76.13,96.79 106.6,254.42 30.46,157.63 15.72,254.43 -8.26,254.43 z M 1314.23,3977.6 c -46.61,0 -45,138.48 -19.81,268.76 25.17,130.29 77.09,268.76 123.7,268.76 46.6,0 45,-138.47 19.82,-268.76 -25.18,-130.28 -77.09,-268.76 -123.71,-268.76"
         style="fill:#4dc3bc;fill-opacity:1;fill-rule:nonzero;stroke:none"
         id="path80" />
      <path
         d="m 1396.71,4404.37 c -140.29,0 -268.11,-70.88 -284.95,-158.01 -16.84,-87.12 83.59,-158 223.88,-158 140.29,0 268.12,70.88 284.96,158 16.83,87.13 -83.6,158.01 -223.89,158.01 z m -63.84,-330.35 c -148.2,0 -253.82,77.32 -235.45,172.34 18.36,95.03 153.87,172.34 302.06,172.34 148.2,0 253.82,-77.31 235.46,-172.34 -18.37,-95.02 -153.87,-172.34 -302.07,-172.34"
         style="fill:#4dc3bc;fill-opacity:1;fill-rule:nonzero;stroke:none"
         id="path82" />
      <path
         d="m 1377.27,4303.79 c -157.63,0 -260.88,-33.45 -265.51,-57.43 -4.63,-23.97 85.69,-57.42 243.32,-57.42 157.63,0 260.88,33.45 265.52,57.42 4.63,23.98 -85.7,57.43 -243.33,57.43 z m -24.96,-129.19 c -130.29,0 -263.9,25.15 -254.89,71.76 9.01,46.62 152.34,71.76 282.63,71.76 130.28,0 263.9,-25.14 254.89,-71.76 -9.01,-46.61 -152.35,-71.76 -282.63,-71.76"
         style="fill:#4dc3bc;fill-opacity:1;fill-rule:nonzero;stroke:none"
         id="path84" />
      <path
         d="M 2198.07,4240.66 H 1684.5 c -3.95,0 -6.54,3.2 -5.78,7.16 0.76,3.97 4.6,7.18 8.56,7.18 h 513.56 c 3.96,0 6.55,-3.21 5.78,-7.18 -0.76,-3.96 -4.59,-7.16 -8.55,-7.16"
         style="fill:#4dc3bc;fill-opacity:1;fill-rule:nonzero;stroke:none"
         id="path86" />
      <path
         d="m 2222.29,4247.82 c -2.44,-12.61 -14.64,-22.83 -27.25,-22.83 -12.61,0 -20.85,10.22 -18.42,22.83 2.44,12.62 14.64,22.84 27.25,22.84 12.61,0 20.86,-10.22 18.42,-22.84"
         style="fill:#ef2d63;fill-opacity:1;fill-rule:nonzero;stroke:none"
         id="path88" />
      <path
         d="m 1707.8,4361.22 c -1.83,0 -3.53,0.7 -4.66,2.1 -2.26,2.8 -1.38,7.34 1.96,10.14 l 92.83,77.79 c 1.6,1.34 3.57,2.1 5.47,2.1 h 435.77 c 3.96,0 6.55,-3.21 5.79,-7.17 -0.77,-3.96 -4.6,-7.17 -8.56,-7.17 h -432.8 l -90.32,-75.69 c -1.67,-1.4 -3.64,-2.1 -5.48,-2.1"
         style="fill:#4dc3bc;fill-opacity:1;fill-rule:nonzero;stroke:none"
         id="path90" />
      <path
         d="m 2260.63,4446.18 c -2.45,-12.61 -14.64,-22.83 -27.25,-22.83 -12.61,0 -20.86,10.22 -18.42,22.83 2.43,12.62 14.63,22.84 27.24,22.84 12.62,0 20.86,-10.22 18.43,-22.84"
         style="fill:#ef2d63;fill-opacity:1;fill-rule:nonzero;stroke:none"
         id="path92" />
      <path
         d="m 2159.73,4042.3 h -435.77 c -1.9,0 -3.58,0.75 -4.66,2.1 l -62.76,77.79 c -2.26,2.8 -1.38,7.34 1.96,10.14 3.34,2.8 7.88,2.8 10.14,0 l 61.06,-75.69 h 432.81 c 3.96,0 6.54,-3.21 5.78,-7.17 -0.76,-3.96 -4.6,-7.17 -8.56,-7.17"
         style="fill:#4dc3bc;fill-opacity:1;fill-rule:nonzero;stroke:none"
         id="path94" />
      <path
         d="m 2183.96,4049.47 c -2.44,-12.61 -14.64,-22.84 -27.25,-22.84 -12.61,0 -20.86,10.23 -18.42,22.84 2.43,12.61 14.63,22.83 27.24,22.83 12.62,0 20.86,-10.22 18.43,-22.83"
         style="fill:#ef2d63;fill-opacity:1;fill-rule:nonzero;stroke:none"
         id="path96" />
      <path
         d="m 3248.62,549.25 h -38.23 v 1042.18 c 0,25.84 -21.68,46.86 -48.34,46.86 h -273.96 c -26.66,0 -48.34,-21.02 -48.34,-46.86 V 549.25 h -38.23 v 1042.18 c 0,46.92 38.84,85.09 86.57,85.09 h 273.96 c 47.73,0 86.57,-38.17 86.57,-85.09 V 549.25"
         style="fill:#0f1828;fill-opacity:1;fill-rule:nonzero;stroke:none"
         id="path98" />
      <path
         d="M 3249.5,549.262 V 1591.43 c 0.01,12.63 5.16,23.92 13.74,32.35 8.6,8.39 20.41,13.61 33.7,13.62 h 273.97 c 13.3,-0.01 25.11,-5.23 33.71,-13.62 8.58,-8.43 13.72,-19.72 13.74,-32.35 V 549.262 h 40 V 1591.43 c 0.01,23.81 -9.94,45.5 -25.77,60.95 -15.81,15.48 -37.72,25.03 -61.68,25.02 h -273.97 c -23.96,0.01 -45.87,-9.54 -61.67,-25.02 -15.83,-15.45 -25.79,-37.14 -25.77,-60.95 V 549.262 h 40"
         style="fill:#1e3861;fill-opacity:1;fill-rule:nonzero;stroke:none"
         id="path100" />
      <path
         d="m 3269.42,1761.06 h -63.16 v 330.27 h 63.16 v -330.27"
         style="fill:#ef2d63;fill-opacity:1;fill-rule:nonzero;stroke:none"
         id="path102" />
      <path
         d="m 3432.67,1761.06 h 63.16 v 330.27 h -63.16 v -330.27"
         style="fill:#ef2d63;fill-opacity:1;fill-rule:nonzero;stroke:none"
         id="path104" />
      <path
         d="m 3606.62,2043.77 h -432.76 c -38.44,0 -69.62,31.17 -69.62,69.62 v 292.02 c 0,38.44 31.18,69.62 69.62,69.62 h 432.76 c 38.44,0 69.62,-31.18 69.62,-69.62 v -292.02 c 0,-38.45 -31.18,-69.62 -69.62,-69.62"
         style="fill:#0f1828;fill-opacity:1;fill-rule:nonzero;stroke:none"
         id="path106" />
      <path
         d="m 3545.49,2043.77 h -432.74 c -38.46,0 -69.62,31.17 -69.62,69.62 v 292.02 c 0,38.44 31.16,69.62 69.62,69.62 h 432.74 c 38.46,0 69.62,-31.18 69.62,-69.62 v -292.02 c 0,-38.45 -31.16,-69.62 -69.62,-69.62"
         style="fill:#1e345c;fill-opacity:1;fill-rule:nonzero;stroke:none"
         id="path108" />
      <path
         d="m 3640.46,1667.93 h -421.82 v 109.61 h 421.82 c 19.76,0 35.78,-16.02 35.78,-35.78 v -38.05 c 0,-19.76 -16.02,-35.78 -35.78,-35.78"
         style="fill:#0f1828;fill-opacity:1;fill-rule:nonzero;stroke:none"
         id="path110" />
      <path
         d="m 3218.64,1667.93 h -421.82 c -19.75,0 -35.77,16.02 -35.77,35.78 v 38.05 c 0,19.76 16.02,35.78 35.77,35.78 h 421.82 v -109.61"
         style="fill:#1e345c;fill-opacity:1;fill-rule:nonzero;stroke:none"
         id="path112" />
      <path
         d="m 2909.55,705.391 c 4.75,-15.442 7.67,-30.422 9.39,-42.559 2.22,-15.98 2.56,-26.82 2.56,-26.82 0,0 -155.35,-68.192 -341.2,-100.992 -14.78,51.25 6.51,74.699 40.42,92.039 44.19,22.691 109.82,35.261 144.75,85.933 l 122.65,38.75 c 7.77,-11.094 13.73,-23.793 18.31,-36.601 1.14,-3.25 2.19,-6.532 3.12,-9.75"
         style="fill:#1e345c;fill-opacity:1;fill-rule:nonzero;stroke:none"
         id="path114" />
      <path
         d="m 2918.94,662.832 c 2.22,-15.98 2.56,-26.82 2.56,-26.82 0,0 -155.35,-68.192 -341.2,-100.992 -14.78,51.25 6.51,74.699 40.42,92.039 20.42,-8.039 37.64,-24.258 46.22,-44.379 86.52,17.402 171.51,43.902 252,80.152"
         style="fill:#a9e1cd;fill-opacity:1;fill-rule:nonzero;stroke:none"
         id="path116" />
      <path
         d="m 2909.55,705.391 c -13.37,-10.922 -26.25,-22.493 -39.88,-33.192 -15.01,-11.789 -31.11,-22.199 -49.01,-28.769 -18.25,-6.75 -36.08,-7.02 -55.26,-5.391 -20.83,1.859 -39.82,-1.32 -58.58,-11.117 -18,-9.363 -33.51,-22.5 -48.93,-35.602 -4.64,-3.929 -11.6,2.621 -6.87,6.571 17.08,14.578 34.48,29.449 54.86,39.211 17.9,8.64 36.42,12.39 56.29,10.757 9.56,-0.718 19.19,-2.019 28.84,-1.328 9.56,0.66 19.01,3.098 27.98,6.469 33.93,12.781 59.62,39.59 87.44,62.141 1.14,-3.25 2.19,-6.532 3.12,-9.75"
         style="fill:#a9e1cd;fill-opacity:1;fill-rule:nonzero;stroke:none"
         id="path118" />
      <path
         d="m 2702.14,657.969 c -5.9,-1.699 -3.27,-10.887 2.65,-9.188 5.92,1.711 3.27,10.891 -2.65,9.188"
         style="fill:#ffffff;fill-opacity:1;fill-rule:nonzero;stroke:none"
         id="path120" />
      <path
         d="m 2717.94,665.18 c -5.91,-1.711 -3.28,-10.891 2.64,-9.188 5.92,1.707 3.27,10.899 -2.64,9.188"
         style="fill:#ffffff;fill-opacity:1;fill-rule:nonzero;stroke:none"
         id="path122" />
      <path
         d="m 2734.77,675.359 c -5.91,-1.699 -3.27,-10.89 2.65,-9.179 5.92,1.699 3.27,10.89 -2.65,9.179"
         style="fill:#ffffff;fill-opacity:1;fill-rule:nonzero;stroke:none"
         id="path124" />
      <path
         d="m 2749.15,687.5 c -5.91,-1.711 -3.27,-10.898 2.64,-9.191 5.91,1.703 3.27,10.89 -2.64,9.191"
         style="fill:#ffffff;fill-opacity:1;fill-rule:nonzero;stroke:none"
         id="path126" />
      <path
         d="m 2837.37,913.18 50.75,-161.438 c 0,0 -61.96,-53.25 -122.65,-38.75 l -61.62,147.36 133.52,52.828"
         style="fill:#f7958f;fill-opacity:1;fill-rule:nonzero;stroke:none"
         id="path128" />
      <path
         d="m 2427.19,2264.77 c 0,0 -10.81,-733.53 9.91,-815.97 20.71,-82.45 238.03,-647.468 238.03,-647.468 l 188.54,68.617 -184.56,630.231 48.5,798.79 -300.42,-34.2"
         style="fill:#1e345c;fill-opacity:1;fill-rule:nonzero;stroke:none"
         id="path130" />
      <path
         d="m 2811.87,891.711 -179.51,612.949 50.37,685.26 c 0.19,2.63 -1.79,4.92 -4.41,5.12 -2.58,0.22 -4.93,-1.78 -5.13,-4.43 l -11.68,-158.99 c -50.71,42.59 -29.51,156.54 -29.28,157.74 0.5,2.59 -1.19,5.1 -3.79,5.6 -2.58,0.53 -5.09,-1.18 -5.6,-3.79 -1.01,-5.26 -23.84,-128.02 37.83,-170.92 l -37.9,-515.76 0.19,-1.7 179.75,-613.778 c 0.61,-2.082 2.51,-3.442 4.58,-3.442 l 1.35,0.2 c 2.53,0.742 3.98,3.402 3.23,5.941"
         style="fill:#0f1828;fill-opacity:1;fill-rule:nonzero;stroke:none"
         id="path132" />
      <path
         d="m 2235.31,606.301 c 0.29,-16.172 -1.06,-31.36 -2.77,-43.512 -2.3,-15.957 -4.98,-26.469 -4.98,-26.469 0,0 -168.15,-22.48 -355.82,-2.488 0,53.34 26.96,69.977 64.34,77.238 48.76,9.559 115.29,3.442 162.9,42.442 l 128.58,3.25 c 4.4,-12.801 6.6,-26.672 7.46,-40.242 0.19,-3.438 0.29,-6.879 0.29,-10.219"
         style="fill:#1e345c;fill-opacity:1;fill-rule:nonzero;stroke:none"
         id="path134" />
      <path
         d="m 2232.54,562.789 c -2.3,-15.957 -4.98,-26.469 -4.98,-26.469 0,0 -168.15,-22.48 -355.82,-2.488 0,53.34 26.96,69.977 64.34,77.238 17.4,-13.379 29.44,-33.75 32.12,-55.449 87.95,-7.262 176.96,-5.351 264.34,7.168"
         style="fill:#a9e1cd;fill-opacity:1;fill-rule:nonzero;stroke:none"
         id="path136" />
      <path
         d="m 2235.31,606.301 c -15.87,-6.789 -31.46,-14.352 -47.52,-20.852 -17.68,-7.168 -36.04,-12.719 -55.06,-14.058 -19.41,-1.422 -36.62,3.257 -54.59,10.14 -19.5,7.551 -38.62,9.758 -59.36,5.551 -19.89,-4.023 -38.44,-12.34 -56.89,-20.66 -5.54,-2.481 -10.42,5.738 -4.78,8.226 20.46,9.274 41.3,18.743 63.57,22.473 19.6,3.34 38.44,1.809 57.08,-5.269 8.98,-3.34 17.88,-7.262 27.34,-9.27 9.37,-2.012 19.12,-2.293 28.68,-1.531 36.14,2.871 68.26,21.519 101.24,35.469 0.19,-3.438 0.29,-6.879 0.29,-10.219"
         style="fill:#a9e1cd;fill-opacity:1;fill-rule:nonzero;stroke:none"
         id="path138" />
      <path
         d="m 2022.89,618.199 c -6.16,0 -6.16,-9.558 0,-9.558 6.15,0 6.16,9.558 0,9.558"
         style="fill:#ffffff;fill-opacity:1;fill-rule:nonzero;stroke:none"
         id="path140" />
      <path
         d="m 2040.06,620.762 c -6.15,0 -6.16,-9.563 0,-9.563 6.15,0 6.16,9.563 0,9.563"
         style="fill:#ffffff;fill-opacity:1;fill-rule:nonzero;stroke:none"
         id="path142" />
      <path
         d="m 2059.06,625.879 c -6.15,0 -6.16,-9.559 0,-9.559 6.15,0 6.16,9.559 0,9.559"
         style="fill:#ffffff;fill-opacity:1;fill-rule:nonzero;stroke:none"
         id="path144" />
      <path
         d="m 2076.23,633.539 c -6.15,0 -6.17,-9.559 0,-9.559 6.15,0 6.16,9.559 0,9.559"
         style="fill:#ffffff;fill-opacity:1;fill-rule:nonzero;stroke:none"
         id="path146" />
      <path
         d="m 2223.67,825.91 3.91,-169.18 c 0,0 -74.31,-33.949 -128.58,-3.171 l -18.26,158.683 142.93,13.668"
         style="fill:#f7958f;fill-opacity:1;fill-rule:nonzero;stroke:none"
         id="path148" />
      <path
         d="m 2192.62,2297.64 c 0,0 -225.27,-703.14 -225.82,-788.14 -0.54,-85 75.45,-725.102 75.45,-725.102 l 199.71,19.332 -30.95,696.45 269.53,757.11 -287.92,40.35"
         style="fill:#1e345c;fill-opacity:1;fill-rule:nonzero;stroke:none"
         id="path150" />
      <path
         d="m 2407.02,2159.88 v 47.52 c 0,2.64 -2.14,4.77 -4.78,4.77 -2.64,0 -4.78,-2.13 -4.78,-4.77 v -42.09 c -2.51,0.72 -5.73,2.2 -8.76,5.27 -7.23,7.3 -10.53,20.84 -9.57,39.16 0.14,2.64 -1.89,4.9 -4.52,5.03 -2.62,0.15 -4.88,-1.88 -5.02,-4.52 -1.14,-21.57 3.08,-37.26 12.55,-46.62 4.61,-4.58 9.59,-6.67 13.49,-7.66 l -244.07,-639.17 -0.3,-1.93 32.88,-689.19 c 0.12,-2.571 2.23,-4.559 4.77,-4.559 l 0.23,0.008 c 2.64,0.133 4.67,2.363 4.55,5 l -32.83,688.191 245.85,643.86 0.02,0.09 v 0.01 l 0.29,1.6"
         style="fill:#0f1828;fill-opacity:1;fill-rule:nonzero;stroke:none"
         id="path152" />
      <path
         d="m 2359.9,3146.99 -234.14,-159.47 c -27.69,-68.39 -70.79,-144.79 -114.96,-210.95 l -252.06,382.61 -80.38,-49.69 c 0,0 219.06,-501.23 333.2,-501.26 96.45,-0.03 348.34,538.76 348.34,538.76"
         style="fill:#f7958f;fill-opacity:1;fill-rule:nonzero;stroke:none"
         id="path154" />
      <path
         d="m 1585.31,3257.82 c -2.1,-6.34 2.38,-12.22 8.07,-14.38 18.29,-6.93 36.89,-12.98 55.73,-18.15 -5.57,-22.34 -6.09,-46.2 -0.83,-68.58 5.25,-22.34 19.14,-44.41 41.02,-52.78 1.31,-1.24 2.89,-2.15 4.65,-2.51 21.46,-4.46 43.54,1.04 61.83,12.78 16.76,10.76 29.75,25.32 42.51,40.36 2.65,3.12 5.35,6.21 8.23,9.11 1.43,1.44 2.9,2.84 4.43,4.16 l 1.92,1.61 0.74,0.53 c 1.8,1.17 3.64,2.18 5.51,3.24 l 0.46,0.28 0.34,0.1 c 0.93,0.29 1.84,0.61 2.79,0.85 l 2.39,0.51 0.5,0.09 1.9,0.24 c 2.54,0.35 4.93,0.96 7.2,2.25 6.21,3.5 9.41,10.88 7.61,17.78 -1.41,5.37 -5.56,9.9 -10.3,12.59 -8.84,4.98 -20.36,4.93 -29.99,2.78 -13.26,-2.96 -24.08,-10.67 -33.64,-19.85 -0.36,3.45 -0.72,6.9 -1.09,10.34 -5.46,50.79 -12.3,101.61 -25.53,151.03 -1.51,5.66 -7,9.26 -12.72,8.54 -5.4,-0.68 -10.57,-5.62 -10.22,-11.41 l 3.53,-59.23 c 0.38,-6.41 0.77,-12.81 1.07,-19.22 -16.62,24.6 -33.25,49.19 -49.88,73.8 -3.3,4.88 -6.77,7.93 -12.42,5.65 -5.4,-2.18 -6.18,-9.33 -4.81,-15.02 5.84,-24.1 17.81,-47.41 29.66,-69.03 -18.14,12.34 -42.05,26.68 -59.56,39.9 -4.65,3.51 -11.76,1.37 -15.07,-2.78 -3.9,-4.88 0.03,-10.61 3.61,-15.26 10.23,-13.33 30.76,-25.45 42.75,-37.13 -15.42,4.5 -42.98,9.18 -58.01,14.88 -6.1,2.31 -12.54,-2.5 -14.38,-8.07"
         style="fill:#f7958f;fill-opacity:1;fill-rule:nonzero;stroke:none"
         id="path156" />
      <path
         d="m 2109.11,2962.98 -95.35,-166.6 -191.82,283.88 -112.89,-78.92 c 0,0 195.1,-416.49 303.61,-408.82 108.51,7.67 242.22,312.37 242.22,312.37 l -145.77,58.09"
         style="fill:#1e345c;fill-opacity:1;fill-rule:nonzero;stroke:none"
         id="path158" />
      <path
         d="m 2331.79,3245.94 c -108.56,-37.07 -241.56,-285.05 -241.56,-285.05 l 167.06,-98.05 74.5,383.1"
         style="fill:#4dc3bc;fill-opacity:1;fill-rule:nonzero;stroke:none"
         id="path160" />
      <path
         d="m 2624.54,3143.5 222.58,-175.22 c 22.92,-70.14 60.65,-149.33 100.15,-218.38 l 277.83,364.33 76.76,-55.11 c 0,0 -253.07,-484.94 -366.94,-477.1 -96.23,6.61 -310.38,561.48 -310.38,561.48"
         style="fill:#f7958f;fill-opacity:1;fill-rule:nonzero;stroke:none"
         id="path162" />
      <path
         d="m 3391.12,3209.73 c -15.39,-4.65 -43.2,-7.41 -58.89,-10.85 12.76,10.83 34.08,21.51 45.21,34.1 3.88,4.4 8.2,9.84 4.65,14.99 -3.02,4.36 -9.96,6.98 -14.85,3.8 -18.38,-11.99 -43.22,-24.64 -62.17,-35.7 13.32,20.75 26.87,43.18 34.35,66.83 1.76,5.57 1.47,12.76 -3.76,15.3 -5.48,2.67 -9.15,-0.14 -12.78,-4.78 -18.28,-23.39 -36.57,-46.79 -54.86,-70.19 0.76,6.38 1.59,12.74 2.41,19.11 l 7.6,58.84 c 0.75,5.76 -4.07,11.04 -9.41,12.09 -5.66,1.11 -11.39,-2.1 -13.28,-7.64 -16.6,-48.39 -26.93,-98.62 -35.87,-148.91 -0.62,-3.41 -1.21,-6.83 -1.81,-10.24 -8.9,9.81 -19.16,18.24 -32.19,22.11 -9.46,2.81 -20.95,3.66 -30.1,-0.7 -4.93,-2.35 -9.38,-6.59 -11.14,-11.85 -2.28,-6.76 0.4,-14.34 6.35,-18.26 2.18,-1.45 4.53,-2.22 7.03,-2.74 l 1.89,-0.37 0.48,-0.13 2.36,-0.68 c 0.93,-0.3 1.82,-0.67 2.72,-1.03 l 0.33,-0.13 0.45,-0.31 c 1.78,-1.18 3.55,-2.31 5.26,-3.61 l 0.7,-0.58 1.81,-1.73 c 1.43,-1.43 2.8,-2.92 4.13,-4.46 2.68,-3.09 5.16,-6.36 7.59,-9.66 11.69,-15.88 23.65,-31.3 39.63,-43.19 17.43,-12.97 39.08,-19.98 60.8,-17.01 1.78,0.24 3.42,1.04 4.8,2.18 22.41,6.85 37.79,27.91 44.56,49.83 6.79,21.96 7.92,45.8 3.9,68.48 19.16,3.86 38.13,8.61 56.86,14.27 5.82,1.75 10.69,7.31 9.04,13.78 -1.46,5.69 -7.54,10.93 -13.8,9.04"
         style="fill:#f7958f;fill-opacity:1;fill-rule:nonzero;stroke:none"
         id="path164" />
      <path
         d="m 2867.17,2940.85 87.82,-170.69 204.3,275.01 109.25,-83.88 c 0,0 -213.51,-407.36 -321.58,-394.84 -108.06,12.51 -228.02,322.89 -228.02,322.89 l 148.23,51.51"
         style="fill:#1e345c;fill-opacity:1;fill-rule:nonzero;stroke:none"
         id="path166" />
      <path
         d="m 2715.47,3215.38 c 101.33,-53.79 185.29,-304.56 185.29,-304.56 l -172.38,-85.51 -12.91,390.07"
         style="fill:#4dc3bc;fill-opacity:1;fill-rule:nonzero;stroke:none"
         id="path168" />
      <path
         d="m 2464.06,3277.72 -132.27,-31.78 c 0,0 -110.27,-547.4 -175.76,-971.05 399.11,-118.17 579.33,-45.22 579.33,-45.22 15.85,503.73 -19.89,985.71 -19.89,985.71 l -124.7,52.24 -126.71,10.1"
         style="fill:#4dc3bc;fill-opacity:1;fill-rule:nonzero;stroke:none"
         id="path170" />
      <path
         d="m 2609.44,2787.48 c -11.87,-159.09 -81.4,-283.59 -155.32,-278.07 -73.91,5.51 -124.22,138.94 -112.36,298.02 11.86,159.09 81.4,283.58 155.32,278.07 73.91,-5.51 124.22,-138.94 112.36,-298.02"
         style="fill:#a9e1cd;fill-opacity:1;fill-rule:nonzero;stroke:none"
         id="path172" />
      <path
         d="m 2396.82,3805.29 9.44,31.79 c -60.16,-21.92 -58.13,-82.21 -58.13,-82.21 l -8,25.76 c -51.21,-59.18 -4.92,-117.53 -4.92,-117.53 2.57,-11.98 6.85,-23.95 12.97,-35.65 44.01,-84.15 145.03,-117.44 187.89,-201.83 9.35,-18.41 21.28,-39.23 44.48,-40.64 21.36,-1.3 36.46,16.71 48.67,31.62 34.6,42.28 62.87,89.67 84.49,139.81 20.57,47.72 41.85,103.02 23.81,154.91 -12.55,36.09 -49.1,63.96 -86.08,59.07 -57.88,77.1 -175.7,80.94 -254.62,34.9"
         style="fill:#552d26;fill-opacity:1;fill-rule:nonzero;stroke:none"
         id="path174" />
      <path
         d="m 2641.79,3702.44 c -48.83,109.41 -252.91,89.65 -275.19,7.53 -45.84,-168.92 -27.02,-241.27 17.42,-285.58 51.42,-51.27 87.89,-48.17 80.04,-146.67 1.7,-66.51 55.34,-107.91 126.71,-10.1 8.81,130.6 61.45,225.93 61.45,225.93 0,0 9.71,163.78 -10.43,208.89"
         style="fill:#f7958f;fill-opacity:1;fill-rule:nonzero;stroke:none"
         id="path176" />
      <path
         d="m 2349.37,3659.89 c 0,0 -12.05,38.82 39.02,97.91 32.67,37.79 119.17,40.87 191.18,21.54 72.01,-19.32 101.25,-53.63 99.46,-106.25 -1.8,-52.62 -1.68,-118.51 -1.68,-118.51 l -30.09,-19.37 c -42.13,33.21 -28.77,145.7 -28.77,145.7 -38.52,-47.06 -107.11,-30.03 -107.11,-30.03 l 42.86,31.35 c -40.56,-19.32 -89.07,-27.02 -133.83,-23.02 10.2,7.97 19.33,16.35 28.53,25.46 -30.35,-12.7 -66.67,-24.78 -99.57,-24.78"
         style="fill:#552d26;fill-opacity:1;fill-rule:nonzero;stroke:none"
         id="path178" />
      <path
         d="m 2506,3550.57 c -0.56,-7.12 -6.8,-12.44 -13.92,-11.87 -7.13,0.56 -12.44,6.8 -11.88,13.93 0.57,7.12 6.8,12.44 13.93,11.87 7.13,-0.57 12.44,-6.8 11.87,-13.93"
         style="fill:#040606;fill-opacity:1;fill-rule:nonzero;stroke:none"
         id="path180" />
      <path
         d="m 2493.39,3555.13 c -0.21,-2.61 -2.5,-4.56 -5.11,-4.35 -2.6,0.21 -4.55,2.49 -4.34,5.1 0.2,2.61 2.49,4.56 5.09,4.35 2.62,-0.21 4.56,-2.49 4.36,-5.1"
         style="fill:#ffffff;fill-opacity:1;fill-rule:nonzero;stroke:none"
         id="path182" />
      <path
         d="m 2406.22,3558.52 c -0.57,-7.12 -6.81,-12.44 -13.93,-11.87 -7.13,0.56 -12.44,6.8 -11.87,13.93 0.56,7.12 6.8,12.44 13.92,11.87 7.13,-0.57 12.44,-6.8 11.88,-13.93"
         style="fill:#040606;fill-opacity:1;fill-rule:nonzero;stroke:none"
         id="path184" />
      <path
         d="m 2393.6,3563.08 c -0.21,-2.61 -2.5,-4.56 -5.1,-4.35 -2.61,0.21 -4.56,2.49 -4.35,5.1 0.21,2.61 2.49,4.56 5.1,4.35 2.61,-0.21 4.56,-2.49 4.35,-5.1"
         style="fill:#ffffff;fill-opacity:1;fill-rule:nonzero;stroke:none"
         id="path186" />
      <path
         d="m 2418.87,3608.34 c -15.3,12.57 -36.4,13.61 -52.73,1.61 -3.06,-2.24 -3.95,-7.18 -2.04,-10.57 1.96,-3.47 6.13,-4.35 9.2,-2.1 6.7,4.92 14.88,6.74 22.63,5.53 3.92,-0.6 7.73,-1.96 11.21,-4.05 3.08,-1.86 5.98,-4.88 9.75,-3.09 l 2.35,1.91 c 2.24,2.82 2.54,8.38 -0.37,10.76"
         style="fill:#552d26;fill-opacity:1;fill-rule:nonzero;stroke:none"
         id="path188" />
      <path
         d="m 2469.17,3604.34 c 19.47,9.8 43.56,7.22 60.02,-7.38 3.08,-2.73 3.26,-7.75 0.51,-10.77 -2.81,-3.09 -7.68,-3.25 -10.78,-0.51 -6.75,5.99 -15.72,9.06 -24.69,9.18 -4.54,0.06 -9.09,-0.62 -13.39,-2.05 -3.81,-1.25 -7.65,-3.7 -11.58,-1.32 -0.94,0.57 -1.73,1.37 -2.33,2.3 -2.06,3.16 -1.46,8.69 2.24,10.55"
         style="fill:#552d26;fill-opacity:1;fill-rule:nonzero;stroke:none"
         id="path190" />
      <path
         d="m 2432.33,3482.62 c -7.04,0.57 -14.24,2.69 -21.01,6.97 -3.16,1.99 -4.11,6.17 -2.1,9.32 1.99,3.16 6.16,4.1 9.32,2.11 16.35,-10.31 36.11,-2.62 42.15,4.4 2.43,2.81 6.7,3.16 9.54,0.72 2.83,-2.44 3.15,-6.7 0.71,-9.54 -7.1,-8.24 -22.4,-15.27 -38.61,-13.98"
         style="fill:#d85954;fill-opacity:1;fill-rule:nonzero;stroke:none"
         id="path192" />
      <path
         d="m 2419.46,3522.26 -1.52,1.35 c -2.32,11.25 1.72,14.69 5.51,15.59 3.85,0.9 8.27,-0.42 13.13,-3.98 l 0.36,-2.37 -2.36,-0.36 c -4.01,2.94 -7.5,4.1 -10.35,3.42 -3.39,-0.81 -4.4,-4.72 -2.98,-11.63 0.19,-0.91 -0.4,-1.8 -1.32,-1.99 l -0.47,-0.03"
         style="fill:#d85954;fill-opacity:1;fill-rule:nonzero;stroke:none"
         id="path194" />
      <path
         d="m 2696.06,3486.26 c -18.89,-19.19 -46.55,-22.6 -61.79,-7.61 -15.23,14.99 -12.27,42.71 6.62,61.9 18.88,19.2 46.55,22.6 61.78,7.61 15.24,-14.99 12.28,-42.7 -6.61,-61.9"
         style="fill:#f7958f;fill-opacity:1;fill-rule:nonzero;stroke:none"
         id="path196" />
      <path
         d="m 2690.61,3538.99 c -7.03,4.46 -16.82,5.06 -26.19,1.58 -4.67,-1.73 -8.13,-4.02 -10.62,-6.98 -3.28,-3.93 -4.51,-9.09 -3.22,-13.46 1.15,-3.93 4,-6.65 6.52,-9.04 1.81,-1.74 3.52,-3.38 4.42,-5.25 1.38,-2.86 0.67,-6.67 -1.65,-8.85 -2.32,-2.17 -6.15,-2.63 -8.93,-1.07 -1.64,0.92 -3.69,0.34 -4.61,-1.29 -0.9,-1.62 -0.34,-3.69 1.29,-4.6 1.78,-1.01 3.76,-1.58 5.77,-1.74 4.01,-0.31 8.15,0.99 11.11,3.77 4.45,4.19 5.76,11.21 3.11,16.72 -1.42,2.96 -3.78,5.21 -5.85,7.19 -2.08,1.99 -4.04,3.87 -4.69,6.07 -0.65,2.21 0.1,5.04 1.93,7.21 0.73,0.88 1.7,1.65 2.75,2.38 3.35,-0.23 7.47,-1.6 9.4,-4.08 2.18,-2.8 3,-6.67 2.15,-10.11 -0.45,-1.81 0.65,-3.64 2.47,-4.09 l 0.54,-0.09 c 1.63,-0.13 3.15,0.93 3.55,2.56 1.37,5.48 0.1,11.41 -3.37,15.89 -1.3,1.66 -2.99,2.84 -4.77,3.84 5.7,1.06 11.17,0.33 15.26,-2.27 5.05,-3.2 8.46,-10.71 5.28,-16.36 -0.91,-1.63 -0.33,-3.69 1.29,-4.61 1.63,-0.91 3.68,-0.34 4.61,1.3 4.62,8.22 1.16,19.84 -7.55,25.38"
         style="fill:#d85954;fill-opacity:1;fill-rule:nonzero;stroke:none"
         id="path198" />
      <path
         d="m 2578.75,3510.56 -99.58,7.43 c -4.39,0.32 -8.47,2.41 -11.27,5.78 l -16.38,19.64 -20.25,-17.18 c -3.25,-2.75 -7.46,-4.11 -11.73,-3.8 l -87.93,6.59 c -12.44,0.92 -21.78,11.68 -20.86,24.01 l 5.16,69.32 c 0.93,12.34 11.76,21.59 24.2,20.66 l 247.13,-18.46 c 12.44,-0.93 21.79,-11.68 20.87,-24.01 l -5.17,-69.32 c -0.92,-12.34 -11.75,-21.58 -24.19,-20.66"
         style="fill:#0f1828;fill-opacity:1;fill-rule:nonzero;stroke:none"
         id="path200" />
      <path
         d="m 2550.26,3512.5 -99.58,7.43 c -4.39,0.33 -8.46,2.41 -11.27,5.78 l -16.38,19.64 -20.26,-17.17 c -3.24,-2.76 -7.46,-4.13 -11.72,-3.81 l -87.93,6.59 c -12.44,0.93 -21.78,11.68 -20.86,24.01 l 5.17,69.32 c 0.92,12.34 11.75,21.59 24.19,20.66 l 247.14,-18.46 c 12.44,-0.93 21.77,-11.68 20.86,-24.01 l -5.17,-69.32 c -0.92,-12.34 -11.75,-21.59 -24.19,-20.66"
         style="fill:#1e345c;fill-opacity:1;fill-rule:nonzero;stroke:none"
         id="path202" />
      <path
         d="m 2531.63,3534.44 -83.34,6.22 c -3.67,0.27 -7.11,1.67 -9.5,3.88 l -13.98,12.85 -16.68,-10.74 c -2.67,-1.72 -6.18,-2.54 -9.74,-2.27 l -73.59,5.5 c -10.41,0.78 -18.38,7.82 -17.79,15.74 l 3.32,44.46 c 0.59,7.92 9.51,13.71 19.92,12.93 l 206.83,-15.44 c 10.41,-0.78 18.38,-7.82 17.78,-15.74 l -3.31,-44.46 c -0.6,-7.92 -9.51,-13.7 -19.92,-12.93"
         style="fill:#0f1828;fill-opacity:1;fill-rule:nonzero;stroke:none"
         id="path204" />
      <path
         d="m 2601.6,3558.71 60.09,-4.43 c 0,0 28.7,12.09 45.69,-12.05 5.34,11.65 10.55,23.84 15.64,36.5 l -121.42,13.38 v -33.4"
         style="fill:#0f1828;fill-opacity:1;fill-rule:nonzero;stroke:none"
         id="path206" />
      <path
         d="m 4461.81,1947.43 c -0.01,0 -0.03,0 -0.05,0 h -642.92 v 10 10 h 642.92 c 43.47,0.02 80.09,31.03 87.29,73.88 l 83.46,498.19 c 0.81,4.89 1.21,9.8 1.21,14.67 0,20.78 -7.3,40.99 -20.95,57.13 -16.88,19.92 -41.46,31.31 -67.56,31.32 h -642.93 c -43.46,-0.02 -80.08,-31.03 -87.28,-73.88 l -83.46,-498.2 c -0.82,-4.88 -1.22,-9.79 -1.22,-14.66 0,-20.78 7.31,-41 20.97,-57.14 16.86,-19.91 41.44,-31.3 67.55,-31.31 v -10 -10 c -31.96,-0.01 -62.18,14.01 -82.81,38.39 -16.73,19.75 -25.71,44.58 -25.71,70.06 0,5.97 0.49,11.98 1.49,17.97 l 83.46,498.19 c 8.76,52.42 53.82,90.58 106.96,90.58 0.02,0 0.04,0 0.05,0 h 642.93 c 31.95,0 62.17,-14.01 82.82,-38.4 16.72,-19.75 25.7,-44.58 25.69,-70.05 0,-5.97 -0.49,-11.98 -1.49,-17.97 L 4568.77,2038 c -8.75,-52.41 -53.81,-90.57 -106.96,-90.57"
         style="fill:#daf2e8;fill-opacity:1;fill-rule:nonzero;stroke:none"
         id="path208" />
      <path
         d="m 4461.76,2005.23 h -642.93 c -31.34,0 -55.18,28.16 -50.01,59.07 l 83.45,498.19 c 4.1,24.43 25.25,42.33 50.01,42.33 h 642.93 c 31.35,0 55.19,-28.16 50.01,-59.08 l -83.45,-498.18 c -4.09,-24.44 -25.23,-42.33 -50.01,-42.33"
         style="fill:#daf2e8;fill-opacity:1;fill-rule:nonzero;stroke:none"
         id="path210" />
      <path
         d="m 4318.56,2305.03 -180.66,115.46 -38.68,-230.94 219.34,115.48 -180.66,115.46 -38.68,-230.94 219.34,115.48"
         style="fill:#ef2d63;fill-opacity:1;fill-rule:nonzero;stroke:none"
         id="path212" />
      <path
         d="m 4211.58,2481.47 c -97.29,0 -189.71,-79.15 -206.01,-176.44 -16.29,-97.3 49.61,-176.46 146.9,-176.46 97.29,0 189.7,79.16 206,176.46 16.3,97.29 -49.6,176.44 -146.89,176.44 z m -63.92,-381.58 c -113.1,0 -189.7,92.03 -170.76,205.14 18.95,113.1 126.38,205.12 239.48,205.12 113.11,0 189.72,-92.02 170.77,-205.12 -18.94,-113.11 -126.38,-205.14 -239.49,-205.14"
         style="fill:#a9e1cd;fill-opacity:1;fill-rule:nonzero;stroke:none"
         id="path214" />
      <path
         d="m 4445.11,2765.38 c -0.01,0 -0.03,0 -0.05,0 H 3152.39 c 4.42,6.67 8.78,13.36 13.05,20 h 1279.62 c 53.7,0.02 98.95,38.35 107.82,91.32 l 178.53,1071.38 c 1,6.02 1.49,12.06 1.5,18.05 -0.01,25.67 -9.03,50.64 -25.91,70.57 -20.83,24.57 -51.19,38.63 -83.39,38.64 h -1575.2 c -53.7,-0.03 -98.95,-38.36 -107.79,-91.33 l -142.48,-854.99 c -5.32,8.12 -10.78,15.99 -16.36,23.49 l 139.11,834.79 c 10.38,62.53 64.09,108.04 127.47,108.04 0.02,0 0.04,0 0.05,0 h 1575.2 c 38.05,0 74.04,-16.68 98.64,-45.71 19.95,-23.55 30.66,-53.14 30.66,-83.5 0,-7.09 -0.59,-14.22 -1.77,-21.33 L 4572.6,2873.41 c -10.41,-62.53 -64.11,-108.03 -127.49,-108.03 m -1490.12,4.78 -7.83,15.22 h 19.13 l -11.3,-15.22"
         style="fill:#daf2e8;fill-opacity:1;fill-rule:nonzero;stroke:none"
         id="path216" />
      <path
         d="m 3152.39,2765.38 h -282.51 v 20 h 77.28 l 7.83,-15.22 11.3,15.22 h 199.15 c -4.27,-6.64 -8.63,-13.33 -13.05,-20 m -282.51,0 c -38.06,-0.01 -74.06,16.68 -98.65,45.72 -6.99,8.26 -12.85,17.26 -17.52,26.78 l 17.92,8.89 c 3.95,-8.08 8.92,-15.73 14.86,-22.74 20.82,-24.58 51.18,-38.65 83.39,-38.65 v -10 -10"
         style="fill:#437a94;fill-opacity:1;fill-rule:nonzero;stroke:none"
         id="path218" />
      <path
         d="m 2753.71,2837.88 c -8.62,17.61 -13.13,36.99 -13.13,56.7 0,7.1 0.58,14.24 1.77,21.34 l 39.43,236.59 c 5.58,-7.5 11.04,-15.37 16.36,-23.49 l -36.06,-216.39 c -1.01,-6.02 -1.5,-12.05 -1.5,-18.05 0,-16.62 3.79,-32.95 11.05,-47.81 l -17.92,-8.89"
         style="fill:#6ecec1;fill-opacity:1;fill-rule:nonzero;stroke:none"
         id="path220" />
      <path
         d="M 4445.07,2823.18 H 3189.23 c 46.46,75.43 79.31,138.11 79.31,138.11 l -14.32,11 c 29.18,51.46 47.64,86.83 47.64,86.83 l -0.11,0.08 c 16.38,9.43 27.79,26.9 33.37,44.96 6.79,21.96 7.92,45.8 3.9,68.48 19.16,3.86 38.13,8.61 56.86,14.27 5.82,1.75 10.69,7.31 9.04,13.78 -1.25,4.88 -5.91,9.44 -11.16,9.44 -0.87,0 -1.75,-0.13 -2.64,-0.4 -15.39,-4.65 -43.2,-7.41 -58.89,-10.85 12.76,10.83 34.08,21.51 45.21,34.1 3.88,4.4 8.2,9.84 4.65,14.99 -2.09,3.02 -6.07,5.21 -9.94,5.21 -1.71,0 -3.41,-0.43 -4.91,-1.41 -18.38,-11.99 -43.22,-24.64 -62.17,-35.7 13.32,20.75 26.87,43.18 34.35,66.83 1.76,5.57 1.47,12.76 -3.76,15.3 -1.46,0.72 -2.8,1.04 -4.04,1.04 -3.4,0 -6.08,-2.42 -8.74,-5.82 -18.28,-23.39 -36.57,-46.79 -54.86,-70.19 0.76,6.38 1.59,12.74 2.41,19.11 l 7.6,58.84 c 0.75,5.76 -4.07,11.04 -9.41,12.09 -0.75,0.15 -1.5,0.22 -2.24,0.22 -4.87,0 -9.4,-3.05 -11.04,-7.86 -16.6,-48.39 -26.93,-98.62 -35.87,-148.91 -0.62,-3.41 -1.21,-6.83 -1.81,-10.24 -8.9,9.81 -19.16,18.24 -32.19,22.11 -4.77,1.42 -10.07,2.34 -15.32,2.34 -5.15,0 -10.25,-0.88 -14.78,-3.04 -4.93,-2.35 -9.38,-6.59 -11.14,-11.85 -2.28,-6.76 0.4,-14.34 6.35,-18.26 2.18,-1.45 4.53,-2.22 7.03,-2.74 l 1.89,-0.37 0.48,-0.13 2.36,-0.68 c 0.93,-0.3 1.82,-0.67 2.72,-1.03 l 0.33,-0.13 0.45,-0.31 c 1.78,-1.18 3.55,-2.31 5.26,-3.61 l 0.7,-0.58 1.81,-1.73 c 1.43,-1.43 2.8,-2.92 4.13,-4.46 2.68,-3.09 5.16,-6.36 7.59,-9.66 6.25,-8.49 12.58,-16.86 19.56,-24.62 l -37.3,-48.92 -8.3,6.36 -164.91,-221.99 h -66.67 l -41.4,80.47 14.45,7.17 c 0,0 -28.68,85.66 -72.74,167.58 l 149.88,899.39 c 5.75,34.48 35.57,59.75 70.51,59.75 h 1575.2 c 44.18,0 77.78,-39.67 70.52,-83.25 L 4515.59,2882.92 c -5.75,-34.48 -35.57,-59.74 -70.52,-59.74"
         style="fill:#daf2e8;fill-opacity:1;fill-rule:nonzero;stroke:none"
         id="path222" />
      <path
         d="m 3254.22,2972.29 -86.63,66.52 37.3,48.92 c 6.07,-6.75 12.64,-13.04 20.07,-18.57 14.75,-10.98 32.53,-17.69 50.81,-17.69 3.32,0 6.65,0.22 9.99,0.68 1.78,0.24 3.42,1.04 4.8,2.18 3.95,1.2 7.69,2.85 11.19,4.87 l 0.11,-0.08 c 0,0 -18.46,-35.37 -47.64,-86.83"
         style="fill:#e2baa7;fill-opacity:1;fill-rule:nonzero;stroke:none"
         id="path224" />
      <path
         d="m 3275.77,3051.47 c -18.28,0 -36.06,6.71 -50.81,17.69 -7.43,5.53 -14,11.82 -20.07,18.57 -6.98,7.76 -13.31,16.13 -19.56,24.62 -2.43,3.3 -4.91,6.57 -7.59,9.66 -1.33,1.54 -2.7,3.03 -4.13,4.46 l -1.81,1.73 -0.7,0.58 c -1.71,1.3 -3.48,2.43 -5.26,3.61 l -0.45,0.31 -0.33,0.13 c -0.9,0.36 -1.79,0.73 -2.72,1.03 l -2.36,0.68 -0.48,0.13 -1.89,0.37 c -2.5,0.52 -4.85,1.29 -7.03,2.74 -5.95,3.92 -8.63,11.5 -6.35,18.26 1.76,5.26 6.21,9.5 11.14,11.85 4.53,2.16 9.63,3.04 14.78,3.04 5.25,0 10.55,-0.92 15.32,-2.34 13.03,-3.87 23.29,-12.3 32.19,-22.11 0.6,3.41 1.19,6.83 1.81,10.24 8.94,50.29 19.27,100.52 35.87,148.91 1.64,4.81 6.17,7.86 11.04,7.86 0.74,0 1.49,-0.07 2.24,-0.22 5.34,-1.05 10.16,-6.33 9.41,-12.09 l -7.6,-58.84 c -0.82,-6.37 -1.65,-12.73 -2.41,-19.11 18.29,23.4 36.58,46.8 54.86,70.19 2.66,3.4 5.34,5.82 8.74,5.82 1.24,0 2.58,-0.32 4.04,-1.04 5.23,-2.54 5.52,-9.73 3.76,-15.3 -7.48,-23.65 -21.03,-46.08 -34.35,-66.83 18.95,11.06 43.79,23.71 62.17,35.7 1.5,0.98 3.2,1.41 4.91,1.41 3.87,0 7.85,-2.19 9.94,-5.21 3.55,-5.15 -0.77,-10.59 -4.65,-14.99 -11.13,-12.59 -32.45,-23.27 -45.21,-34.1 15.69,3.44 43.5,6.2 58.89,10.85 0.89,0.27 1.77,0.4 2.64,0.4 5.25,0 9.91,-4.56 11.16,-9.44 1.65,-6.47 -3.22,-12.03 -9.04,-13.78 -18.73,-5.66 -37.7,-10.41 -56.86,-14.27 4.02,-22.68 2.89,-46.52 -3.9,-68.48 -5.58,-18.06 -16.99,-35.53 -33.37,-44.96 -3.5,-2.02 -7.24,-3.67 -11.19,-4.87 -1.38,-1.14 -3.02,-1.94 -4.8,-2.18 -3.34,-0.46 -6.67,-0.68 -9.99,-0.68"
         style="fill:#e2baa7;fill-opacity:1;fill-rule:nonzero;stroke:none"
         id="path226" />
      <path
         d="m 3189.23,2823.18 h -194.85 l 164.91,221.99 8.3,-6.36 86.63,-66.52 14.32,-11 c 0,0 -32.85,-62.68 -79.31,-138.11 m -261.52,0 h -57.83 c -28.69,0 -52.91,16.72 -64.39,40.38 l 80.82,40.09 41.4,-80.47"
         style="fill:#437a94;fill-opacity:1;fill-rule:nonzero;stroke:none"
         id="path228" />
      <path
         d="m 2805.49,2863.56 c -6.2,12.78 -8.68,27.58 -6.13,42.86 l 28.66,171.98 c 44.06,-81.92 72.74,-167.58 72.74,-167.58 l -14.45,-7.17 -80.82,-40.09"
         style="fill:#6ecec1;fill-opacity:1;fill-rule:nonzero;stroke:none"
         id="path230" />
      <path
         d="m 3610.21,3003.8 h -72.3 l 88.25,529.62 h 72.3 l -88.25,-529.62"
         style="fill:#4dc3bc;fill-opacity:1;fill-rule:nonzero;stroke:none"
         id="path232" />
      <path
         d="m 3762.19,3003.8 h -72.3 l 114.92,689.64 h 72.31 L 3762.19,3003.8"
         style="fill:#ef2d63;fill-opacity:1;fill-rule:nonzero;stroke:none"
         id="path234" />
      <path
         d="m 3914.18,3003.8 h -72.31 l 67,402.07 h 72.31 l -67,-402.07"
         style="fill:#4dc3bc;fill-opacity:1;fill-rule:nonzero;stroke:none"
         id="path236" />
      <path
         d="m 4066.17,3003.8 h -72.31 l 99.58,597.57 h 72.31 l -99.58,-597.57"
         style="fill:#ef2d63;fill-opacity:1;fill-rule:nonzero;stroke:none"
         id="path238" />
      <path
         d="m 4218.15,3003.8 h -72.3 l 137.81,826.96 h 72.3 L 4218.15,3003.8"
         style="fill:#4dc3bc;fill-opacity:1;fill-rule:nonzero;stroke:none"
         id="path240" />
      <path
         d="m 4370.13,3003.8 h -72.3 l 122.36,734.24 h 72.31 L 4370.13,3003.8"
         style="fill:#ef2d63;fill-opacity:1;fill-rule:nonzero;stroke:none"
         id="path242" />
      <path
         d="M 4433.53,2923.62 H 3416.39 c -2.63,0 -4.42,2.14 -3.97,4.78 0.44,2.64 2.93,4.78 5.57,4.78 h 1012.36 l 162.79,976.9 c 0.44,2.64 2.94,4.78 5.58,4.78 2.64,0 4.42,-2.14 3.98,-4.78 L 4439.11,2928.4 c -0.44,-2.64 -2.93,-4.78 -5.58,-4.78"
         style="fill:#4dc3bc;fill-opacity:1;fill-rule:nonzero;stroke:none"
         id="path244" />
      <path
         d="m 3524.96,3886.3 h -415.4 l 4.38,26.29 h 415.39 l -4.37,-26.29"
         style="fill:#4dc3bc;fill-opacity:1;fill-rule:nonzero;stroke:none"
         id="path246" />
      <path
         d="m 3585.16,3819.81 h -486.69 l 4.39,26.29 h 486.69 l -4.39,-26.29"
         style="fill:#4dc3bc;fill-opacity:1;fill-rule:nonzero;stroke:none"
         id="path248" />
      <path
         d="M 3536.23,3753.32 H 3087.4 l 4.37,26.29 h 448.83 l -4.37,-26.29"
         style="fill:#4dc3bc;fill-opacity:1;fill-rule:nonzero;stroke:none"
         id="path250" />
      <path
         d="m 3399.28,3686.83 h -322.97 l 4.39,26.29 h 322.97 l -4.39,-26.29"
         style="fill:#4dc3bc;fill-opacity:1;fill-rule:nonzero;stroke:none"
         id="path252" />
      <path
         d="m 3476.86,3620.34 h -411.62 l 4.38,26.29 h 411.63 l -4.39,-26.29"
         style="fill:#4dc3bc;fill-opacity:1;fill-rule:nonzero;stroke:none"
         id="path254" />
      <path
         d="m 2955.92,2964.38 h -43.53 l 8.76,52.57 h 43.53 l -8.76,-52.57"
         style="fill:#4dc3bc;fill-opacity:1;fill-rule:nonzero;stroke:none"
         id="path256" />
      <path
         d="m 3308.1,2964.38 h -305.53 l 8.76,52.57 h 305.53 l -8.76,-52.57"
         style="fill:#4dc3bc;fill-opacity:1;fill-rule:nonzero;stroke:none"
         id="path258" />
      <path
         d="m 2735.88,4356.44 c -17.04,0 -30.89,-13.85 -30.89,-30.88 0,-17.03 13.85,-30.88 30.89,-30.88 17.02,0 30.87,13.85 30.87,30.88 0,17.03 -13.85,30.88 -30.87,30.88 z m 0,-71.33 c -22.31,0 -40.45,18.15 -40.45,40.45 0,22.29 18.14,40.44 40.45,40.44 22.3,0 40.43,-18.15 40.43,-40.44 0,-22.3 -18.13,-40.45 -40.43,-40.45"
         style="fill:#4dc3bc;fill-opacity:1;fill-rule:nonzero;stroke:none"
         id="path260" />
      <path
         d="m 3911.53,1829.88 c -17.03,0 -30.89,-13.85 -30.89,-30.88 0,-17.03 13.86,-30.88 30.89,-30.88 17.02,0 30.88,13.85 30.88,30.88 0,17.03 -13.86,30.88 -30.88,30.88 z m 0,-71.32 c -22.31,0 -40.45,18.14 -40.45,40.44 0,22.31 18.14,40.44 40.45,40.44 22.29,0 40.44,-18.13 40.44,-40.44 0,-22.3 -18.15,-40.44 -40.44,-40.44"
         style="fill:#4dc3bc;fill-opacity:1;fill-rule:nonzero;stroke:none"
         id="path262" />
      <path
         d="m 695.379,1330.85 c -17.031,0 -30.887,-13.86 -30.887,-30.89 0,-17.03 13.856,-30.88 30.887,-30.88 17.023,0 30.883,13.85 30.883,30.88 0,17.03 -13.86,30.89 -30.883,30.89 z m 0,-71.33 c -22.301,0 -40.445,18.13 -40.445,40.44 0,22.3 18.144,40.45 40.445,40.45 22.293,0 40.437,-18.15 40.437,-40.45 0,-22.31 -18.144,-40.44 -40.437,-40.44"
         style="fill:#4dc3bc;fill-opacity:1;fill-rule:nonzero;stroke:none"
         id="path264" />
      <path
         d="m 3529.33,2672.19 c -17.03,0 -30.88,-13.85 -30.88,-30.88 0,-17.03 13.85,-30.89 30.88,-30.89 17.03,0 30.88,13.86 30.88,30.89 0,17.03 -13.85,30.88 -30.88,30.88 z m 0,-71.33 c -22.3,0 -40.44,18.15 -40.44,40.45 0,22.3 18.14,40.44 40.44,40.44 22.31,0 40.44,-18.14 40.44,-40.44 0,-22.3 -18.13,-40.45 -40.44,-40.45"
         style="fill:#4dc3bc;fill-opacity:1;fill-rule:nonzero;stroke:none"
         id="path266" />
      <path
         d="m 616.734,4008.48 c -17.027,0 -30.879,-13.85 -30.879,-30.88 0,-17.03 13.852,-30.88 30.879,-30.88 17.032,0 30.883,13.85 30.883,30.88 0,17.03 -13.851,30.88 -30.883,30.88 z m 0,-71.32 c -22.293,0 -40.437,18.14 -40.437,40.44 0,22.3 18.144,40.44 40.437,40.44 22.301,0 40.446,-18.14 40.446,-40.44 0,-22.3 -18.145,-40.44 -40.446,-40.44"
         style="fill:#4dc3bc;fill-opacity:1;fill-rule:nonzero;stroke:none"
         id="path268" />
      <path
         d="m 3589.54,4356.44 c -17.03,0 -30.88,-13.85 -30.88,-30.88 0,-17.03 13.85,-30.88 30.88,-30.88 17.03,0 30.89,13.85 30.89,30.88 0,17.03 -13.86,30.88 -30.89,30.88 z m 0,-71.33 c -22.31,0 -40.44,18.15 -40.44,40.45 0,22.29 18.13,40.44 40.44,40.44 22.3,0 40.45,-18.15 40.45,-40.44 0,-22.3 -18.15,-40.45 -40.45,-40.45"
         style="fill:#4dc3bc;fill-opacity:1;fill-rule:nonzero;stroke:none"
         id="path270" />
      <path
         d="m 4208.89,4477.06 c -17.03,0 -30.88,-13.85 -30.88,-30.88 0,-17.03 13.85,-30.88 30.88,-30.88 17.03,0 30.88,13.85 30.88,30.88 0,17.03 -13.85,30.88 -30.88,30.88 z m 0,-71.32 c -22.3,0 -40.44,18.14 -40.44,40.44 0,22.3 18.14,40.45 40.44,40.45 22.31,0 40.44,-18.15 40.44,-40.45 0,-22.3 -18.13,-40.44 -40.44,-40.44"
         style="fill:#4dc3bc;fill-opacity:1;fill-rule:nonzero;stroke:none"
         id="path272" />
      <path
         d="m 3360.65,4510.34 c -26.21,0 -47.52,-21.32 -47.52,-47.52 0,-26.2 21.31,-47.52 47.52,-47.52 26.2,0 47.52,21.32 47.52,47.52 0,26.2 -21.32,47.52 -47.52,47.52 z m 0,-104.6 c -31.47,0 -57.08,25.6 -57.08,57.08 0,31.48 25.61,57.08 57.08,57.08 31.48,0 57.08,-25.6 57.08,-57.08 0,-31.48 -25.6,-57.08 -57.08,-57.08"
         style="fill:#4dc3bc;fill-opacity:1;fill-rule:nonzero;stroke:none"
         id="path274" />
      <path
         d="m 4595.93,1846.52 c -26.21,0 -47.52,-21.31 -47.52,-47.52 0,-26.2 21.31,-47.52 47.52,-47.52 26.21,0 47.52,21.32 47.52,47.52 0,26.21 -21.31,47.52 -47.52,47.52 z m 0,-104.6 c -31.47,0 -57.08,25.61 -57.08,57.08 0,31.48 25.61,57.08 57.08,57.08 31.47,0 57.08,-25.6 57.08,-57.08 0,-31.47 -25.61,-57.08 -57.08,-57.08"
         style="fill:#4dc3bc;fill-opacity:1;fill-rule:nonzero;stroke:none"
         id="path276" />
      <path
         d="m 411.637,1817.01 c -26.199,0 -47.52,-21.32 -47.52,-47.52 0,-26.21 21.321,-47.53 47.52,-47.53 26.203,0 47.519,21.32 47.519,47.53 0,26.2 -21.316,47.52 -47.519,47.52 z m 0,-104.6 c -31.473,0 -57.078,25.6 -57.078,57.08 0,31.46 25.605,57.07 57.078,57.07 31.48,0 57.082,-25.61 57.082,-57.07 0,-31.48 -25.602,-57.08 -57.082,-57.08"
         style="fill:#4dc3bc;fill-opacity:1;fill-rule:nonzero;stroke:none"
         id="path278" />
      <path
         d="m 4315.03,1209.85 c -14.54,-41.2 -49.33,-72.37 -87.19,-94.17 -37.85,-21.8 -79.53,-36.03 -118.93,-55.06 -39.28,-19.02 -77.53,-44.17 -100.56,-81.261 -7.75,-12.527 -13.77,-27.058 -12.24,-41.679 1.53,-14.629 12.71,-29.071 27.34,-30.211 16.63,-1.239 29.73,13.293 40.15,26.383 18.26,23.238 37.57,46.468 62.62,62.046 25.14,15.582 57.26,22.562 84.61,11.192 6.4,-2.68 12.23,-6.31 17.4,-10.719 5.06,-4.211 9.46,-9.18 13.19,-14.629 17.39,-25.031 21.32,-60.883 10.13,-90.14 -16.06,-42.262 -54.97,-71.801 -95.89,-91.02 -40.82,-19.211 -85.08,-30.492 -126,-49.703 -86.9,-40.918 -156.49,-124.477 -186.13,-215.859 h -67.4 c 20.65,82.121 -3.44,176.179 -51.24,246.062 -23.8,34.898 -54.68,64.148 -81.92,96.367 -27.25,32.211 -51.63,68.84 -58.51,110.422 -6.98,41.679 7.17,88.999 42.92,111.369 8.42,5.26 17.88,8.51 27.72,9.85 6.41,0.96 12.91,1.05 19.32,0.38 25.81,-2.48 50.19,-17.21 58.21,-41.78 5.17,-15.77 3.45,-32.88 3.16,-49.52 -0.19,-16.63 1.43,-34.408 11.76,-47.408 10.42,-13.012 32.21,-17.883 43.59,-5.84 5.93,6.219 7.74,15.199 8.9,23.707 15.19,118.161 -65.4,226.861 -82.98,344.641 -6.51,43.97 -2.59,93.02 27.05,126.09 13,14.53 32.12,23.71 51.62,26.2 6.5,0.86 13.09,0.96 19.5,0.29 17.78,-1.92 34.23,-10.04 44.27,-25.34 28.48,-43.21 -9.56,-100.57 -3.06,-152.1 2.38,-18.64 15.01,-39.1 33.74,-38.72 20.46,0.39 31.46,23.81 36.33,43.7 17.12,70.16 16.83,143.2 25.91,214.81 9.08,71.7 29.44,145.4 79.26,197.7 34.69,36.32 87.95,59.56 135.65,48.46 6.31,-1.42 12.42,-3.53 18.45,-6.21 l 0.86,-0.38 c 60.13,-27.82 78.68,-108.79 59.18,-172.08 -19.51,-63.29 -66.63,-113.48 -109.85,-163.66 -43.21,-50.2 -85.56,-106.51 -92.06,-172.47 -1.15,-11.09 -0.29,-24.28 8.89,-30.78 14.73,-10.42 33.55,5.54 44.65,19.79 22.65,28.97 47.13,57.74 79.25,75.43 28.77,15.67 65.1,21.03 94.64,8.03 3.54,-1.54 6.98,-3.35 10.33,-5.45 2.1,-1.34 4.21,-2.77 6.11,-4.49 31.93,-24.95 40.92,-73.43 27.25,-112.24"
         style="fill:#ef2d63;fill-opacity:1;fill-rule:nonzero;stroke:none"
         id="path280" />
      <path
         d="m 3929.38,1039.59 c 2,10.32 4.11,20.64 6.21,30.97 119.22,40.25 227.63,110.8 312.42,203.92 13.86,15.29 27.15,31.16 39.77,47.61 -1.9,1.72 -4.01,3.15 -6.11,4.49 -3.35,2.1 -6.79,3.91 -10.33,5.45 -84.61,-109.46 -200.66,-193.5 -331.26,-239.67 35.85,174.46 79.16,348.94 154.3,511.17 26.39,57.07 56.7,112.33 91.4,164.62 -6.03,2.68 -12.14,4.79 -18.45,6.21 -76.01,-115.48 -130.3,-244.44 -171.22,-376.56 -34.41,-111.18 -59.46,-224.76 -82.31,-338.81 -88.24,96.47 -130.88,228.77 -113.29,358.99 3.16,22.93 8.03,45.69 14.72,67.87 -6.41,0.67 -13,0.57 -19.5,-0.29 -33.84,-120.17 -18.83,-250.76 44.93,-359.94 19.12,-32.6 42.26,-62.62 68.55,-89.67 -13.48,-67.958 -26.29,-136.13 -40.05,-204.009 -3.35,-16.441 -6.79,-32.882 -10.24,-49.23 -65.39,27.051 -120.46,77.051 -153.53,139.57 -30.31,57.27 -40.53,123.619 -30.97,187.189 -6.41,0.67 -12.91,0.58 -19.32,-0.38 -15.19,-110.52 27.63,-224.758 116.16,-296.168 25.33,-20.461 53.43,-36.711 83.55,-49.051 -16.53,-76.851 -34.99,-153.43 -57.35,-228.851 h 19.78 c 18.83,63.562 34.7,127.812 49.14,192.531 134.8,33.84 257.84,111.57 346.93,218.258 9.75,11.66 19.12,23.613 28.11,35.933 -3.73,5.449 -8.13,10.418 -13.19,14.629 -65.59,-91.582 -155.17,-165.191 -257.83,-212.32 -32.03,-14.629 -65.31,-26.289 -99.34,-35.371 20.66,94.832 38.44,190.429 57.27,285.65 0.86,1.62 1.24,3.44 1.05,5.26"
         style="fill:#c81a35;fill-opacity:1;fill-rule:nonzero;stroke:none"
         id="path282" />
      <path
         d="M 3790,781.602 C 3785,693.199 3755.6,605.91 3720,535 h -284.3 c -6.2,29 -22.5,63.902 -38.2,83.301 -15.7,19.398 -32.8,37.097 -45.3,61 -12.6,24 -20.2,56.5 -13.5,85.199 3.3,13.91 9.8,25.602 17.9,34 4.8,5.199 10.4,9.199 16.2,11.801 4.8,2.301 9.8,3.601 14.8,3.898 20.9,1.301 41.2,-12.5 57.5,-32.199 -34.7,54.801 -68.9,110.102 -103.5,165 -17,26.801 -35.2,59.6 -30.9,95.9 1.1,9.7 3.9,18.5 7.9,26.2 3.3,6.6 7.5,12.3 12.3,16.9 8.7,8.8 19.2,14.1 29.7,14.8 22.8,1.6 44.7,-13.4 63.8,-31.8 -32,59.9 -60,119.6 -92,179.5 -15.7,29.2 -31.7,59.4 -39.1,95.1 -7.5,35.7 -4.7,78.8 13.5,104.6 l 0.3,0.5 c 4.4,6 9.4,10.7 14.7,14.3 12.2,8 26.4,10 39.6,6.7 19.3,-4.8 36.8,-19.6 52.5,-36.9 66.2,-73.4 102,-190.5 133.3,-305 -3.3,26.3 4.2,57.3 15.7,78.11 7.8,14.09 19,23.39 30.9,27.19 6.5,2 13.2,2.4 19.8,0.9 4.5,-0.9 8.8,-2.7 13,-5.5 21.1,-14 34,-46 43.6,-77.3 26.3,-85.1 39.5,-179.2 38.2,-272.899 3.6,25.301 23.7,36.199 40.7,30.898 6.5,-2 12.4,-6.398 17.6,-12.398 8.4,-9.699 14.8,-23.602 18.6,-38.602 6.1,-24.199 6.2,-50.801 4.7,-76.597"
         style="fill:#f68334;fill-opacity:1;fill-rule:nonzero;stroke:none"
         id="path284" />
      <path
         d="m 3749.1,909.199 c -28.9,-115.898 -79.3,-225.789 -148.8,-323.398 -4.1,50.398 -10.2,100.699 -18,150.699 1.5,1.102 2.7,2.898 3.3,5.301 38.3,161.199 47.7,328.099 28,492.199 -6.6,1.5 -13.3,1.1 -19.8,-0.9 18.2,-149.8 11.5,-302.299 -19.5,-449.998 -31.6,175 -85.9,345.898 -161.3,507.198 -27.6,59 -58,116.6 -91.2,172.7 -5.3,-3.6 -10.3,-8.3 -14.7,-14.3 111.2,-189.6 191.1,-396.8 236.5,-611.7 -77.2,77.602 -148.3,160.801 -212.7,249 -4.8,-4.6 -9,-10.3 -12.3,-16.9 68.6,-93.299 144.5,-181.202 227,-262.6 1.5,-1.398 3.1,-2.301 4.7,-2.598 6,-31.004 11.3,-62.101 15.9,-93.402 4.8,-32.398 8.7,-64.898 11.7,-97.5 -86.6,43.699 -158.2,112.801 -205.1,197.301 -5.8,-2.602 -11.4,-6.602 -16.2,-11.801 50.5,-90.5 129.3,-164.398 223.3,-208.699 l 0.2,-0.102 c 1.5,-18.199 2.8,-36.5 3.8,-54.699 h 19.9 c -0.5,10.199 -1.2,20.398 -2,30.5 3.9,-1.102 8.3,-0.199 11.3,3.898 71.2,98.403 123.4,209.903 153.6,327.403 -5.2,6 -11.1,10.398 -17.6,12.398"
         style="fill:#f3641a;fill-opacity:1;fill-rule:nonzero;stroke:none"
         id="path286" />
      <path
         d="m 1799.57,966.23 c 35.85,89.88 122.83,157.25 218.82,169.5 95.99,12.25 197.1,-31.13 254.37,-109.14 -63.1,-53.141 -153.16,-86.84 -235.53,-91.508 -82.37,-4.672 -156.19,18.188 -237.66,31.148"
         style="fill:#f68334;fill-opacity:1;fill-rule:nonzero;stroke:none"
         id="path288" />
      <path
         d="m 1454.82,616.238 c 117.78,171.414 259.3,340.321 459.47,415.722 51.08,19.24 104.34,31.34 158.82,35.02 11.14,0.76 10.53,-16.57 -0.5,-17.32 -202.38,-13.71 -370.94,-146.93 -495.38,-297.859 -38.31,-46.461 -73.7,-95.25 -107.79,-144.871 -6.29,-9.16 -20.96,0.09 -14.62,9.308"
         style="fill:#f3641a;fill-opacity:1;fill-rule:nonzero;stroke:none"
         id="path290" />
      <path
         d="m 1841.51,1537.75 c 45.51,-53.88 64.98,-133.44 51.07,-208.74 -9.96,-53.96 -35.89,-104.38 -68.95,-147.24 -33.05,-42.84 -73.08,-78.63 -114.59,-111.25 -24.91,82.31 -30.39,174.28 -10.33,261.31 20.07,87.04 72.31,158.11 142.8,205.92"
         style="fill:#f68334;fill-opacity:1;fill-rule:nonzero;stroke:none"
         id="path292" />
      <path
         d="m 1461.4,625.602 c 108.57,155.578 195.83,325.636 258.49,504.708 17.64,50.43 33.28,101.53 47.03,153.15 2.87,10.79 19.43,5.69 16.56,-5.08 -49.02,-184.09 -123.1,-361.392 -219.75,-525.571 -27.45,-46.629 -56.75,-92.149 -87.71,-136.508 -6.36,-9.121 -21.03,0.121 -14.62,9.301"
         style="fill:#f3641a;fill-opacity:1;fill-rule:nonzero;stroke:none"
         id="path294" />
      <path
         d="m 1297.81,1379 c 46.92,2.93 94.63,4.4 140.31,-6.69 45.68,-11.09 89.7,-36.24 114.29,-76.3 15.44,-25.14 22.46,-54.84 23.41,-84.33 0.96,-29.49 -3.91,-58.89 -10.87,-87.56 -62.29,18.66 -122.51,46.57 -171.87,88.9 -49.36,42.33 -88.52,101.3 -95.27,165.98"
         style="fill:#f68334;fill-opacity:1;fill-rule:nonzero;stroke:none"
         id="path296" />
      <path
         d="m 1440.92,1309.02 c 75.84,-48.12 122.26,-129.87 140.74,-216.35 22.04,-103.19 2.9,-208.748 -32.78,-306.631 -22.92,-62.867 -52.28,-123.18 -82.37,-182.879 -5,-9.93 -19.6,-0.578 -14.62,9.32 50.87,100.911 101.03,205.809 117.08,318.829 12.45,87.671 1.89,179.891 -40.99,258.371 -23.13,42.34 -55.54,78.81 -96.37,104.72 -9.4,5.97 -0.13,20.62 9.31,14.62"
         style="fill:#f3641a;fill-opacity:1;fill-rule:nonzero;stroke:none"
         id="path298" />
      <path
         d="M 1772.02,535 H 750.469 c -39.086,45.781 -63.957,117.16 -72.004,176.82 -3.027,22.578 -3.348,46.828 8.152,66.578 14.426,24.661 45.567,36.582 73.988,33.133 28.321,-3.351 53.825,-19.972 73.469,-40.761 19.547,-20.801 33.965,-45.77 48.285,-70.551 -25.605,76.711 -33.55,159.062 -25.082,239.531 1.981,19.23 5.121,38.879 14.735,55.711 9.617,16.819 26.855,30.409 46.191,30.509 24.559,0.21 44.102,-19.75 59.043,-39.079 39.194,-50.789 69.704,-108.161 89.984,-168.993 -11.92,127.602 -20.17,259.072 31.46,376.332 9.3,21.11 20.9,41.8 38.45,56.54 17.67,14.83 42.43,22.78 64.28,15.67 35.94,-11.71 48.69,-54.97 55.38,-92.07 21.64,-120.7 34.08,-243.081 37.1,-365.659 7.63,71.059 34.08,140.449 75.14,199.079 16.52,23.52 40.55,47.55 69.08,44.1 19.44,-2.4 35.33,-17.76 43.48,-35.63 8.04,-17.78 9.51,-37.838 10.03,-57.381 1.88,-70.02 -7.42,-140.25 -27.17,-207.449 23.72,51.73 61.14,93.742 106.07,128.55 20.28,15.668 46.4,29.68 70.34,20.692 14.42,-5.332 24.97,-18.293 30.51,-32.613 5.54,-14.309 6.59,-29.887 6.69,-45.25 0.32,-58.618 -13.17,-117.36 -39.19,-169.817 19.12,28.949 46.92,52.559 78.48,67.188 21.64,9.929 50.17,14.531 66.89,-2.399 10.66,-10.972 12.96,-27.48 13.27,-42.84 0.84,-49.75 2.72,-98.871 -25.5,-139.941"
         style="fill:#ef2d63;fill-opacity:1;fill-rule:nonzero;stroke:none"
         id="path300" />
      <path
         d="m 1223.05,535 h -20.9 c -1.99,21.949 -3.76,43.891 -5.54,65.84 -15.99,196.89 -26.97,393.992 -33.13,591.4 -0.42,13.48 20.48,13.38 20.9,0 1.78,-56.01 3.87,-112.03 6.38,-168.04 7.31,-163.251 18.18,-326.38 32.29,-489.2"
         style="fill:#c81a35;fill-opacity:1;fill-rule:nonzero;stroke:none"
         id="path302" />
      <path
         d="m 1080.29,535 h -22.36 c -52.99,132.52 -102.211,266.488 -147.668,401.73 -4.285,12.739 15.883,18.18 20.168,5.532 C 976.414,805.051 1026.37,669.289 1080.29,535"
         style="fill:#c81a35;fill-opacity:1;fill-rule:nonzero;stroke:none"
         id="path304" />
      <path
         d="m 915.172,535 h -26.649 c -51.105,64.27 -99.699,130.629 -145.265,198.871 -7.524,11.188 10.558,21.629 17.98,10.559 48.282,-72 99.594,-141.91 153.934,-209.43"
         style="fill:#c81a35;fill-opacity:1;fill-rule:nonzero;stroke:none"
         id="path306" />
      <path
         d="M 1438.44,976.852 C 1405.52,830.961 1379.91,683.398 1361.94,535 h -21.01 c 18.29,150.391 44,299.719 77.34,447.391 3.03,13.168 23.09,7.64 20.17,-5.539"
         style="fill:#c81a35;fill-opacity:1;fill-rule:nonzero;stroke:none"
         id="path308" />
      <path
         d="M 1611.29,827.102 C 1576.7,731.16 1546.5,633.66 1520.79,535 h -21.63 c 26.02,100.641 56.74,199.922 91.96,297.629 4.5,12.652 24.66,7.113 20.17,-5.527"
         style="fill:#c81a35;fill-opacity:1;fill-rule:nonzero;stroke:none"
         id="path310" />
      <path
         d="M 1749.97,668.98 1708.17,535 h -21.95 l 43.58,139.629 c 3.97,12.742 24.14,7.312 20.17,-5.649"
         style="fill:#c81a35;fill-opacity:1;fill-rule:nonzero;stroke:none"
         id="path312" />
    </g>
  </g>
</svg>
