<?xml version="1.0" encoding="iso-8859-1"?>
<!-- Uploaded to: SVG Repo, www.svgrepo.com, Generator: SVG Repo Mixer Tools -->
<svg height="800px" width="800px" version="1.1" id="Layer_1" xmlns="http://www.w3.org/2000/svg" xmlns:xlink="http://www.w3.org/1999/xlink" 
	 viewBox="0 0 511.999 511.999" xml:space="preserve">
<g>
	<path style="fill:#90C8EC;" d="M373.121,253.933c0,11.209-9.088,20.296-20.296,20.296H158.877
		c-11.212,0-20.296-9.087-20.296-20.296V127.641c0-11.209,9.085-20.296,20.296-20.296h193.948c11.209,0,20.296,9.087,20.296,20.296
		L373.121,253.933L373.121,253.933z"/>
	<path style="fill:#90C8EC;" d="M311.817,503.876h33.748V347.064c0-19.987-16.202-36.187-36.187-36.187H202.324
		c-19.987,0-36.188,16.202-36.188,36.187v156.81h119.144"/>
</g>
<g>
	<circle style="fill:#CAE9F7;" cx="205.52" cy="169.925" r="19.734"/>
	<circle style="fill:#CAE9F7;" cx="306.184" cy="169.925" r="19.733"/>
</g>
<g>
	<circle style="fill:#578CAD;" cx="255.283" cy="401.117" r="42.289"/>
	<circle style="fill:#578CAD;" cx="255.846" cy="40.263" r="32.136"/>
	<path style="fill:#578CAD;" d="M377.066,407.377h-26.993c-1.552,0-3.057,0.19-4.508,0.52v95.979h51.799v-76.202
		C397.365,416.464,388.275,407.377,377.066,407.377z"/>
	<path style="fill:#578CAD;" d="M134.631,407.377h26.994c1.553,0,3.058,0.19,4.511,0.52v95.979h-51.801v-76.202
		C114.335,416.464,123.422,407.377,134.631,407.377z"/>
	<path style="fill:#578CAD;" d="M138.932,140.924c-26.952,0.692-48.591,22.744-48.591,49.864c0,27.118,21.641,49.17,48.591,49.863
		V140.924z"/>
</g>
<g style="opacity:0.2;">
	<path style="fill:#231F20;" d="M163.494,253.933V127.641c0-11.209,9.085-20.296,20.296-20.296h-24.914
		c-11.212,0-20.296,9.087-20.296,20.296v126.291c0,11.209,9.085,20.296,20.296,20.296h24.914
		C172.579,274.23,163.494,265.142,163.494,253.933z"/>
</g>
<g style="opacity:0.2;">
	<path style="fill:#231F20;" d="M227.238,310.877h-24.914c-19.987,0-36.188,16.202-36.188,36.187v156.81h24.914v-156.81
		C191.05,327.079,207.252,310.877,227.238,310.877z"/>
</g>
<g style="opacity:0.2;">
	<path style="fill:#231F20;" d="M237.915,401.119c0-19.017,12.557-35.1,29.829-40.418c-3.939-1.213-8.121-1.869-12.457-1.869
		c-23.353,0-42.286,18.933-42.286,42.286c0,23.353,18.934,42.285,42.286,42.285c4.336,0,8.518-0.655,12.457-1.867
		C250.471,436.219,237.915,420.136,237.915,401.119z"/>
</g>
<g style="opacity:0.1;">
	<path style="fill:#231F20;" d="M248.629,40.261c0-13.331,8.118-24.766,19.679-29.632c-3.831-1.613-8.04-2.504-12.457-2.504
		c-17.75,0-32.136,14.39-32.136,32.137c0,17.749,14.386,32.137,32.136,32.137c4.417,0,8.626-0.893,12.457-2.505
		C256.746,65.027,248.629,53.592,248.629,40.261z"/>
</g>
<g style="opacity:0.2;">
	<path style="fill:#231F20;" d="M159.546,407.377h-24.914c-11.209,0-20.296,9.087-20.296,20.296v76.203h24.914v-76.203
		C139.249,416.464,148.336,407.377,159.546,407.377z"/>
</g>
<g style="opacity:0.2;">
	<path style="fill:#231F20;" d="M115.254,190.788c0-19.653,9.272-37.129,23.677-48.314v-1.55
		c-26.952,0.692-48.591,22.744-48.591,49.864c0,27.118,21.641,49.17,48.591,49.863V239.1
		C124.527,227.914,115.254,210.438,115.254,190.788z"/>
</g>
<path style="fill:#578CAD;" d="M373.068,140.924c26.952,0.692,48.591,22.744,48.591,49.864c0,27.118-21.641,49.17-48.591,49.863
	V140.924z"/>
<g>
	<path style="fill:#231F20;" d="M352.824,282.354c15.672,0,28.42-12.75,28.42-28.421v-5.92c12.135-1.988,23.302-7.763,32.037-16.709
		c10.641-10.896,16.501-25.286,16.501-40.517c0-15.233-5.86-29.623-16.501-40.518c-8.735-8.945-19.901-14.72-32.037-16.708v-5.92
		c0-15.671-12.75-28.42-28.42-28.42h-88.849V79.698c18.318-3.769,32.137-20.019,32.137-39.437C296.112,18.062,278.05,0,255.851,0
		c-22.2,0-40.26,18.062-40.26,40.261c0,19.418,13.818,35.668,32.136,39.437v19.523h-88.849c-15.672,0-28.42,12.75-28.42,28.42v5.963
		c-12.022,2.032-23.076,7.792-31.739,16.664c-10.64,10.896-16.501,25.286-16.501,40.518s5.86,29.622,16.501,40.517
		c8.664,8.872,19.718,14.631,31.739,16.664v5.963c0,15.671,12.75,28.42,28.42,28.42h88.849v20.4h-45.402
		c-24.434,0-44.312,19.878-44.312,44.311v52.187h-23.38c-15.672,0-28.42,12.75-28.42,28.421v76.202c0,4.487,3.636,8.124,8.124,8.124
		h51.801h119.144c4.488,0,8.124-3.637,8.124-8.124s-3.636-8.124-8.124-8.124H174.26v-87.855v-60.831
		c0-15.474,12.589-28.063,28.064-28.063h107.054c15.474,0,28.063,12.589,28.063,28.063v60.832v87.855h-25.624
		c-4.488,0-8.124,3.637-8.124,8.124c0,4.487,3.636,8.124,8.124,8.124h33.748h51.799c4.488,0,8.124-3.637,8.124-8.124v-76.202
		c0-15.671-12.75-28.421-28.422-28.421h-23.377v-52.187c0-24.434-19.878-44.311-44.311-44.311h-45.403v-20.4h88.849V282.354z
		 M231.839,40.261c0-13.241,10.772-24.013,24.012-24.013c13.241,0,24.013,10.772,24.013,24.013s-10.772,24.013-24.013,24.013
		C242.61,64.274,231.839,53.502,231.839,40.261z M122.459,427.673c0-6.712,5.461-12.172,12.172-12.172h23.38v80.25h-35.552
		C122.459,495.752,122.459,427.673,122.459,427.673z M377.066,415.501c6.713,0,12.173,5.461,12.173,12.172v68.078h-35.55v-80.25
		H377.066z M413.535,190.788c0,19.936-13.636,36.447-32.291,40.694v-81.389C399.901,154.339,413.535,170.851,413.535,190.788z
		 M98.464,190.788c0-19.829,13.492-36.266,31.992-40.621v81.242C111.955,227.053,98.464,210.617,98.464,190.788z M146.704,253.933
		v-10.926c0.23-0.757,0.351-1.55,0.351-2.356v-99.727c0-0.806-0.121-1.599-0.351-2.356v-10.926c0-6.712,5.461-12.172,12.172-12.172
		h193.948c6.712,0,12.172,5.461,12.172,12.172v12.388c-0.033,0.296-0.053,0.595-0.053,0.895v99.727c0,0.3,0.021,0.599,0.053,0.895
		v12.388c0,6.712-5.461,12.172-12.172,12.172H158.877C152.165,266.105,146.704,260.645,146.704,253.933z"/>
	<path style="fill:#231F20;" d="M233.375,169.927c0-15.36-12.498-27.857-27.86-27.857c-15.36,0-27.856,12.497-27.856,27.857
		s12.496,27.857,27.856,27.857C220.877,197.784,233.375,185.287,233.375,169.927z M205.514,181.536
		c-6.401,0-11.608-5.208-11.608-11.609s5.207-11.609,11.608-11.609c6.403,0,11.612,5.208,11.612,11.609
		S211.918,181.536,205.514,181.536z"/>
	<path style="fill:#231F20;" d="M306.187,197.784c15.361,0,27.857-12.497,27.857-27.857s-12.496-27.857-27.857-27.857
		c-15.361,0-27.858,12.497-27.858,27.857S290.826,197.784,306.187,197.784z M306.187,158.318c6.401,0,11.609,5.208,11.609,11.609
		s-5.208,11.609-11.609,11.609c-6.402,0-11.61-5.208-11.61-11.609S299.785,158.318,306.187,158.318z"/>
	<path style="fill:#231F20;" d="M290.693,221.85c1.094-4.351-1.547-8.765-5.898-9.859c-4.349-1.095-8.765,1.547-9.859,5.898
		c-2.463,9.8-11.255,16.645-21.377,16.645c-10.169,0-18.968-6.883-21.397-16.739c-1.073-4.356-5.477-7.019-9.832-5.944
		c-4.356,1.073-7.017,5.476-5.944,9.832c4.222,17.132,19.509,29.099,37.173,29.099C271.141,250.782,286.413,238.885,290.693,221.85z
		"/>
	<path style="fill:#231F20;" d="M255.287,350.709c-27.795,0-50.41,22.613-50.41,50.41c0,27.796,22.614,50.409,50.41,50.409
		c27.794,0,50.408-22.613,50.408-50.409C305.695,373.323,283.082,350.709,255.287,350.709z M255.287,435.28
		c-18.837,0-34.162-15.324-34.162-34.161c0-18.837,15.324-34.162,34.162-34.162c18.836,0,34.159,15.324,34.159,34.162
		C289.447,419.955,274.122,435.28,255.287,435.28z"/>
</g>
</svg>