<?xml version="1.0" encoding="iso-8859-1"?>
<!-- Uploaded to: SVG Repo, www.svgrepo.com, Generator: SVG Repo Mixer Tools -->
<svg version="1.1" id="Layer_1" xmlns="http://www.w3.org/2000/svg" xmlns:xlink="http://www.w3.org/1999/xlink" 
	 viewBox="0 0 512 512" xml:space="preserve">
<path style="fill:#509FE8;" d="M427.023,503.983H84.977c-9.446,0-17.102-7.656-17.102-17.102V84.977
	c0-9.446,7.656-17.102,17.102-17.102h342.046c9.446,0,17.102,7.656,17.102,17.102v401.904
	C444.125,496.327,436.469,503.983,427.023,503.983z"/>
<path style="fill:#4D8CCF;" d="M84.977,486.881V84.977c0-9.445,7.656-17.102,17.102-17.102H84.977
	c-9.446,0-17.102,7.658-17.102,17.102v401.904c0,9.445,7.656,17.102,17.102,17.102h17.102
	C92.634,503.983,84.977,496.326,84.977,486.881z"/>
<rect x="110.63" y="67.875" style="fill:#F6F6F7;" width="290.739" height="393.353"/>
<path style="fill:#D9DCDF;" d="M152.852,110.63h206.296c4.427,0,8.017-3.589,8.017-8.017V67.875h-222.33v34.739
	C144.835,107.041,148.424,110.63,152.852,110.63z"/>
<path style="fill:#FFC44F;" d="M350.063,93.528V59.324c0-9.446-7.656-17.102-17.102-17.102h-42.756
	c0-18.891-15.314-34.205-34.205-34.205s-34.205,15.314-34.205,34.205H179.04c-9.446,0-17.102,7.656-17.102,17.102v34.205H350.063z"
	/>
<path style="fill:#FFD791;" d="M332.96,42.221h-17.102c9.446,0,17.102,7.658,17.102,17.102v34.205h17.102V59.324
	C350.063,49.879,342.406,42.221,332.96,42.221z"/>
<path style="fill:#F7AB49;" d="M196.142,42.221H179.04c-9.446,0-17.102,7.658-17.102,17.102v34.205h17.102V59.324
	C179.04,49.879,186.696,42.221,196.142,42.221z"/>
<path style="fill:#FF8C78;" d="M356.808,316.761l-85.512-171.023c-2.897-5.794-8.818-9.454-15.297-9.454
	c-6.479,0-12.4,3.66-15.297,9.454l-85.511,171.023c-4.224,8.447-0.8,18.721,7.649,22.945c8.445,4.223,18.721,0.799,22.945-7.649
	l33.754-67.506h72.923l33.754,67.506c2.996,5.993,9.035,9.459,15.31,9.458c2.57,0,5.18-0.581,7.635-1.809
	C357.608,335.482,361.033,325.209,356.808,316.761z M236.64,230.347L256,191.628l19.36,38.719H236.64z"/>
<path d="M427.023,59.858h-68.944v-0.534c0-13.851-11.268-25.119-25.119-25.119h-35.502C293.703,14.743,276.542,0,256,0
	c-20.541,0-37.703,14.743-41.458,34.205H179.04c-13.851,0-25.119,11.268-25.119,25.119v0.534H84.977
	c-13.851,0-25.119,11.268-25.119,25.119v273.637c0,4.427,3.589,8.017,8.017,8.017s8.017-3.589,8.017-8.017V84.977
	c0-5.01,4.076-9.086,9.086-9.086h17.637v385.336c0,4.427,3.589,8.017,8.017,8.017H401.37c4.428,0,8.017-3.589,8.017-8.017v-299.29
	c0-4.427-3.588-8.017-8.017-8.017s-8.017,3.589-8.017,8.017v291.273H118.647V75.891h35.273v17.637c0,4.427,3.589,8.017,8.017,8.017
	h188.125c4.428,0,8.017-3.589,8.017-8.017V75.891h35.273v43.29c0,4.427,3.588,8.017,8.017,8.017s8.017-3.589,8.017-8.017v-43.29
	h17.637c5.01,0,9.086,4.076,9.086,9.086v401.904c0,5.01-4.076,9.086-9.086,9.086H84.977c-5.01,0-9.086-4.076-9.086-9.086V401.37
	c0-4.427-3.589-8.017-8.017-8.017s-8.017,3.589-8.017,8.017v85.511c0,13.851,11.268,25.119,25.119,25.119h342.046
	c13.851,0,25.119-11.268,25.119-25.119V84.977C452.142,71.126,440.874,59.858,427.023,59.858z M342.046,85.511H169.954V59.324
	c0-5.01,4.076-9.086,9.086-9.086h42.756c4.427,0,8.017-3.589,8.017-8.017c0-14.44,11.748-26.188,26.188-26.188
	c14.441,0,26.188,11.748,26.188,26.188c0,4.427,3.588,8.017,8.017,8.017h42.756c5.01,0,9.086,4.076,9.086,9.086V85.511z"/>
<path d="M256,25.653c-4.427,0-8.017,3.589-8.017,8.017v8.551c0,4.427,3.589,8.017,8.017,8.017c4.428,0,8.017-3.589,8.017-8.017
	V33.67C264.017,29.243,260.428,25.653,256,25.653z"/>
<path d="M352.746,346.876c12.388-6.195,17.427-21.313,11.233-33.7l-85.511-171.023c-4.282-8.565-12.891-13.886-22.467-13.886
	c-9.575,0-18.185,5.321-22.467,13.886l-85.511,171.023c-6.194,12.387-1.155,27.506,11.234,33.7
	c12.388,6.194,27.506,1.155,33.7-11.234l31.538-63.074h63.014l31.537,63.074C325.17,347.896,340.458,353.017,352.746,346.876z
	 M333.385,328.472l-33.754-67.506c-1.359-2.716-4.133-4.432-7.17-4.432h-72.923c-3.037,0-5.813,1.716-7.17,4.432l-33.754,67.506
	c-2.241,4.482-7.71,6.303-12.19,4.064c-4.481-2.24-6.304-7.709-4.064-12.19l85.511-171.023c3.286-6.572,12.968-6.572,16.254,0
	l85.512,171.023l0,0c2.288,4.575,0.231,10.263-4.412,12.355C340.831,334.681,335.533,332.768,333.385,328.472z"/>
<path d="M263.17,188.043c-2.897-5.792-11.444-5.794-14.34,0l-19.359,38.719c-2.621,5.24,1.323,11.602,7.17,11.602h38.719
	c5.847,0,9.792-6.362,7.17-11.602L263.17,188.043z M249.612,222.33L256,209.553l6.389,12.776H249.612z"/>
<path d="M332.96,128.267c-4.428,0-8.017,3.589-8.017,8.017v9.086h-9.086c-4.428,0-8.017,3.589-8.017,8.017
	c0,4.427,3.588,8.017,8.017,8.017h9.086v9.086c0,4.427,3.588,8.017,8.017,8.017c4.428,0,8.017-3.589,8.017-8.017v-9.086h9.086
	c4.428,0,8.017-3.589,8.017-8.017c0-4.427-3.588-8.017-8.017-8.017h-9.086v-9.086C340.977,131.857,337.389,128.267,332.96,128.267z"
	/>
<path d="M332.426,384.267c0-4.427-3.588-8.017-8.017-8.017H187.591c-4.427,0-8.017,3.589-8.017,8.017
	c0,4.427,3.589,8.017,8.017,8.017h136.818C328.838,392.284,332.426,388.695,332.426,384.267z"/>
<path d="M187.591,410.455c-4.427,0-8.017,3.589-8.017,8.017c0,4.427,3.589,8.017,8.017,8.017h76.96c4.428,0,8.017-3.589,8.017-8.017
	c0-4.427-3.588-8.017-8.017-8.017H187.591z"/>
</svg>