<?xml version="1.0" encoding="UTF-8" standalone="no"?>
<!-- Created with Inkscape (http://www.inkscape.org/) -->

<svg
   version="1.1"
   id="svg2"
   width="2666.6667"
   height="2666.6667"
   viewBox="0 0 2666.6667 2666.6667"
   sodipodi:docname="13330330_Feb-Business_9.eps"
   xmlns:inkscape="http://www.inkscape.org/namespaces/inkscape"
   xmlns:sodipodi="http://sodipodi.sourceforge.net/DTD/sodipodi-0.dtd"
   xmlns="http://www.w3.org/2000/svg"
   xmlns:svg="http://www.w3.org/2000/svg">
  <defs
     id="defs6" />
  <sodipodi:namedview
     id="namedview4"
     pagecolor="#ffffff"
     bordercolor="#000000"
     borderopacity="0.25"
     inkscape:showpageshadow="2"
     inkscape:pageopacity="0.0"
     inkscape:pagecheckerboard="0"
     inkscape:deskcolor="#d1d1d1" />
  <g
     id="g8"
     inkscape:groupmode="layer"
     inkscape:label="ink_ext_XXXXXX"
     transform="matrix(1.3333333,0,0,-1.3333333,0,2666.6667)">
    <g
       id="g10"
       transform="scale(0.1)">
      <path
         d="M 0,0 H 20000 V 20000 H 0 Z"
         style="fill:#ffffff;fill-opacity:1;fill-rule:nonzero;stroke:none"
         id="path12" />
      <path
         d="m 17112.7,6770.5 c -241,548.2 -703.9,1005.7 -1259.9,1230.8 -579.1,234.5 -1244.1,149.2 -1854.1,227.7 -529.8,68.3 -912,304.8 -1228.4,725.3 -303.1,402.9 -574.8,849.1 -1070.4,1035.5 -391.6,147.2 -836.8,106.4 -1226,-47.1 C 9756.75,9660 9215.1,9058.8 8758.91,8459.8 8342.41,7912.9 8002.69,7314.1 7232.3,7294.6 c -348.63,-8.9 -689.7,76.2 -1030.54,161.3 -412.8,103.1 -825.26,206.2 -1250.4,142.3 -1025.84,-154 -1880.16,-1008 -2059.18,-2024.6 -167.78,-952.8 253.24,-1877 976.53,-2420 H 16300.9 c 911.4,966.9 1389.7,2302.5 811.8,3616.9"
         style="fill:#f7f0e3;fill-opacity:1;fill-rule:nonzero;stroke:none"
         id="path14" />
      <path
         d="m 5874.18,3153.6 h 34.2 c 237.51,261.1 423.56,577.9 541.83,929.5 191.43,569.1 183.36,1166.4 -22.72,1681.8 -104.15,260.4 -254.54,503.2 -399.98,738 -147.51,238 -300.02,484.2 -403.54,748.1 -42.8,109 -74.41,226.2 -93.43,345.7 -8.57,1.1 -17.15,2 -25.73,3 19.12,-123.7 51.62,-245 95.9,-357.9 104.33,-265.9 257.45,-513.1 405.55,-752.1 144.87,-233.9 294.68,-475.7 398.01,-734.1 203.88,-509.9 211.78,-1101.1 22.24,-1664.6 -119.73,-355.9 -309.68,-675.7 -552.33,-937.4"
         style="fill:#ffffff;fill-opacity:1;fill-rule:nonzero;stroke:none"
         id="path16" />
      <path
         d="m 16240.8,4237.9 c 256.2,-54.6 503,-103.6 741.8,-134.4 4.1,7.9 8,15.9 12.1,23.8 -240.7,30.6 -489.9,79.9 -748.6,135 -394,84 -820.5,174.8 -1243.4,174.8 -261.9,0 -522.4,-34.8 -773,-127.7 -95,-35.2 -186.5,-79.8 -273.6,-133 -226.3,96.5 -453.8,201.8 -679.1,317.3 163.5,123.2 328.7,243.9 495.8,360.5 1239.7,865.7 2383.9,1356.5 3489.3,1495.8 -2.2,8.1 -4.5,16.2 -6.8,24.3 -1108.4,-140.4 -2255,-632.5 -3496.9,-1499.6 -170.5,-119.1 -339.2,-242.4 -506.1,-368.2 -253.5,130.9 -503.8,274.8 -746.2,433.6 -439.5,288 -962.4,699.1 -1419,1245.3 1769.5,198.6 3571,448.7 5042.2,1431.9 55.8,37.4 117.7,81.4 181.8,131.3 -7.1,5.1 -14.2,10 -21.4,15 -61.4,-47.6 -120.7,-89.6 -174.3,-125.5 -1470.8,-983 -3275.7,-1231.2 -5047.4,-1429.7 -322.7,390.3 -611,848.8 -811.4,1379.5 -312.04,826.7 -295.56,1637.9 45.3,2225.7 14.8,25.5 30.4,50.7 46.5,75.6 -14.2,-6.6 -28.3,-13.4 -42.4,-20.1 -8.8,-14.2 -17.4,-28.5 -25.8,-42.9 -344.56,-594.4 -361.69,-1413.4 -47,-2247.2 199.3,-527.8 485,-984.4 805.1,-1373.8 -102.6,-11.5 -205.2,-22.9 -307.4,-34.1 -369,-40.7 -750.52,-82.9 -1120.98,-130.6 -135.22,-17.4 -272.74,-37.7 -409.57,-63.1 -293.32,619.1 -615.53,1223 -1032.04,1741 -5.95,-6 -12.02,-11.7 -18.03,-17.6 412.94,-514 733.14,-1113.5 1024.67,-1728.2 -596.8,-113.8 -1176.32,-327.8 -1485.74,-825.8 -288.98,-465.1 -288.72,-1108 0.78,-1910.8 10,-27.8 20.32,-55.2 30.78,-82.4 h 26.78 c -11.47,29.8 -22.86,59.8 -34.05,90.9 -286.77,795.2 -287.79,1430.8 -3.05,1889.1 305.75,492.1 882.08,703.2 1475.56,815.7 103.55,-219.1 203.58,-439.9 303,-659.4 l 10.82,-23.9 c 345.26,-762.2 702.37,-1497.7 1169.97,-2112.4 h 31.2 c -471.9,615.8 -830.98,1355.8 -1178.39,2122.7 l -10.82,23.9 c -98.57,217.6 -197.77,436.6 -300.38,653.8 134.2,24.8 269.06,44.7 401.71,61.7 370.23,47.7 751.58,89.8 1120.48,130.5 107.7,11.9 215.7,23.8 323.7,35.9 461,-554.8 990.5,-971.6 1435.1,-1262.9 239.7,-157.1 487.3,-299.6 737.8,-429.5 -425.3,-321.6 -839,-660 -1242.8,-990.5 -139.9,-114.4 -281.4,-230 -424,-345.6 h 39.7 c 134.5,109.2 268,218.3 400.1,326.3 406.7,332.7 823.3,673.6 1251.6,997.1 224.1,-115.3 450.3,-220.4 675.4,-316.7 -307.9,-195.8 -558.9,-499.1 -710.6,-867.3 -19,-46.1 -35.6,-92.6 -51,-139.4 h 26.4 c 14.5,43.6 30,86.9 47.7,129.9 152.2,369.2 405.2,672.2 715.5,864.9 629.2,-267.3 1247.5,-465.7 1778.9,-622.9 l 20,-5.9 c 223.9,-66.3 452.9,-134.1 655.5,-243.1 5.6,6.5 11.3,12.9 16.9,19.4 -205.8,111.7 -438.2,180.5 -665.4,247.6 l -20,5.9 c -525.9,155.7 -1137.1,351.7 -1759.6,615 81.1,48.2 166,89 253.9,121.6 648.6,240.3 1367.9,87.1 2002.4,-48.1"
         style="fill:#ffffff;fill-opacity:1;fill-rule:nonzero;stroke:none"
         id="path18" />
      <path
         d="m 3931.37,5857.2 c 110.43,-451.9 61.16,-940 -135.17,-1339.2 -128.59,-261.4 -314.29,-498 -543.02,-701.3 4.55,-7.1 9.2,-14.1 13.82,-21.1 232.44,205.9 421.11,446 551.64,711.4 198.88,404.3 248.82,898.6 137.01,1356.2 -87.34,357.5 -262.94,660.3 -505.56,879.4 -5.41,-6.3 -10.78,-12.7 -16.12,-19.1 238.57,-215.8 411.34,-514 497.4,-866.3"
         style="fill:#ffffff;fill-opacity:1;fill-rule:nonzero;stroke:none"
         id="path20" />
      <path
         d="m 9589.58,11582.8 c 217.8,-222.5 315.41,-597.4 195.32,-943.1 -116.27,-334.7 -371.15,-611.9 -677.39,-790.2 -246.38,-143.4 -567.78,-222.5 -810.11,-72.3 -181.08,112.2 -274.98,332.4 -280.2,545.3 -5.22,213 66.4,420.6 154.91,614.3 124.78,273.2 292.72,538 542.89,704.1 344.84,229 665.23,155.9 874.58,-58.1"
         style="fill:#f7f0e3;fill-opacity:1;fill-rule:nonzero;stroke:none"
         id="path22" />
      <path
         d="m 4936.78,15522.3 h 1728.4 v 730.7 h -1728.4 z m 1765.9,-37.5 h -1803.4 v 805.7 h 1803.4 v -805.7"
         style="fill:#e9ddca;fill-opacity:1;fill-rule:nonzero;stroke:none"
         id="path24" />
      <path
         d="m 3763.57,14751.9 h 1728.4 v 730.6 h -1728.4 z m 1765.9,-37.5 h -1803.4 v 805.6 h 1803.4 v -805.6"
         style="fill:#e9ddca;fill-opacity:1;fill-rule:nonzero;stroke:none"
         id="path26" />
      <path
         d="m 16963.7,13855.9 c -116.8,388.3 -322.2,744.8 -616.2,1070.7 -294.6,325.9 -696.4,595 -1205.4,807.8 -509,212.8 -1155.7,319.2 -1940.2,319.2 -625.7,0 -1263.4,-84.4 -1913.1,-253.2 -650.4,-169.4 -1214.4,-410.3 -1692.88,-723.4 l 622.78,-1709.7 -333.79,-270.4 484.09,-142.3 c 477.8,250.1 913.2,431.7 1306,544.8 392.2,112.5 809,168.8 1250.9,168.8 441.3,0 775.4,-106.4 1002.4,-319.2 226.9,-213.4 340.1,-469.6 340.1,-770.5 0,-363.2 -116.7,-685.4 -349.1,-967.3 -233.5,-281.9 -491,-566.8 -773,-854.9 -195.9,-199.9 -386.3,-406.6 -570.1,-619.4 -183.8,-213.4 -346.7,-441.5 -487.4,-686.1 -141.4,-243.9 -254.5,-506.9 -340.2,-788.8 -86.2,-281.9 -128.7,-598 -128.7,-948.4 0,-113.1 2.4,-247.6 9,-404.2 1.1,-28.8 2.6,-57 4.3,-84.8 h -457.6 l 499.4,-337.7 h 2428.1 c -12.5,75.2 -18.5,162.7 -18.5,262.9 0,100.3 0,175.5 0,225.7 0,212.8 43.1,422.5 128.7,629.2 85.7,206.7 193.4,403.6 322.2,591.9 128.7,187.7 272.4,366.3 432.3,535 159.3,169.4 312.6,329 459.9,479.4 195.8,200 398.2,412.8 606.6,638.4 208.4,225.7 392.8,462.9 552.1,713.6 159.3,250.7 291,522.8 395.2,817.6 104.2,294.1 156.9,616.3 156.9,967.3 0,350.4 -58.7,719.7 -174.8,1108"
         style="fill:#e49b31;fill-opacity:1;fill-rule:nonzero;stroke:none"
         id="path28" />
      <path
         d="m 12411.8,13787.5 c -436.7,0 -848.6,-54.5 -1236.2,-163.4 -388.2,-109.4 -818.5,-285.2 -1290.69,-527.2 l -763.99,2054 c 472.83,303 1030.28,536.2 1672.98,700.1 642.1,163.4 1272.3,245 1890.7,245 775.3,0 1414.4,-103 1917.4,-308.9 503,-205.9 900.1,-466.3 1191.3,-781.7 290.5,-315.5 493.5,-660.5 608.9,-1036.2 114.8,-375.8 172.8,-733.3 172.8,-1072.4 0,-339.6 -52.1,-651.5 -155,-936.2 -103,-285.2 -233.2,-548.5 -390.6,-791.2 -157.4,-242.6 -339.7,-472.2 -545.6,-690.6 -206,-218.4 -406,-424.3 -599.5,-617.8 -145.6,-145.6 -297.1,-300 -454.5,-464 -158,-163.3 -300,-336.1 -427.3,-517.8 -127.2,-182.2 -233.7,-372.8 -318.3,-572.8 -84.7,-200 -127.3,-403 -127.3,-608.9 0,-48.6 0,-121.4 0,-218.4 0,-97.1 5.9,-181.7 18.4,-254.5 h -2399.7 c -24.9,121.3 -39.7,257.4 -45.6,408.9 -6.5,151.5 -8.9,281.7 -8.9,391.2 0,339.1 42.1,645 127.3,917.9 84.6,272.8 196.4,527.2 336.1,763.4 139.1,236.7 300,457.4 481.7,663.9 181.7,206 369.9,406 563.4,599.5 278.7,278.7 533.2,554.5 764,827.3 229.6,272.8 345,584.7 345,936.2 0,291.2 -111.9,539.1 -336.1,745.7 -224.3,205.9 -554.5,308.9 -990.7,308.9"
         style="fill:#fbc343;fill-opacity:1;fill-rule:nonzero;stroke:none"
         id="path30" />
      <path
         d="m 14269.3,4530 c 0,-437.8 -141.7,-775.6 -425.1,-1013.9 -283.5,-238.8 -603.8,-357.7 -961.5,-357.7 -358.2,0 -678.5,118.9 -961.9,357.7 -283,238.3 -424.7,576.1 -424.7,1013.9 0,437.2 141.7,775 424.7,1013.8 436.3,368.2 1081.7,450.3 1592.6,191.9 453.2,-229.4 755.9,-695 755.9,-1205.7"
         style="fill:#e49b31;fill-opacity:1;fill-rule:nonzero;stroke:none"
         id="path32" />
      <path
         d="m 13794.3,4530 c 0,-437.8 -141.7,-775.6 -425.1,-1013.9 -283.5,-238.8 -603.8,-357.7 -961.5,-357.7 -358.2,0 -678.5,118.9 -961.9,357.7 -283,238.3 -424.7,576.1 -424.7,1013.9 0,437.2 141.7,775 424.7,1013.8 283.4,238.3 603.7,357.7 961.9,357.7 357.7,0 678,-119.4 961.5,-357.7 283.4,-238.8 425.1,-576.6 425.1,-1013.8"
         style="fill:#fbc343;fill-opacity:1;fill-rule:nonzero;stroke:none"
         id="path34" />
      <path
         d="m 6564.63,10932 c 81.56,-119.2 51.06,-281.9 -68.13,-363.5 -119.19,-81.5 -281.92,-51 -363.48,68.2 -81.56,119.2 -51.06,281.9 68.13,363.5 119.18,81.5 281.92,51 363.48,-68.2"
         style="fill:#d3dfff;fill-opacity:1;fill-rule:nonzero;stroke:none"
         id="path36" />
      <path
         d="m 6730.76,10245 c -14.97,-79.8 -92.28,-132.4 -172.69,-117.3 -80.4,15.1 -133.46,92 -118.49,171.9 14.96,79.8 92.28,132.3 172.68,117.2 80.41,-15 133.46,-92 118.5,-171.8"
         style="fill:#d3dfff;fill-opacity:1;fill-rule:nonzero;stroke:none"
         id="path38" />
      <path
         d="m 6715.53,11911.3 c -104.76,-558.9 -642.77,-927 -1201.67,-822.3 -558.91,104.8 -927.07,642.8 -822.31,1201.7 104.75,558.9 642.76,927.1 1201.67,822.3 558.9,-104.8 927.06,-642.8 822.31,-1201.7"
         style="fill:#d3dfff;fill-opacity:1;fill-rule:nonzero;stroke:none"
         id="path40" />
      <path
         d="m 5437.92,12101 c 0,-71.6 -58.09,-129.7 -129.73,-129.7 -71.64,0 -129.72,58.1 -129.72,129.7 0,71.7 58.08,129.7 129.72,129.7 71.64,0 129.73,-58 129.73,-129.7"
         style="fill:#ffffff;fill-opacity:1;fill-rule:nonzero;stroke:none"
         id="path42" />
      <path
         d="m 5833.26,12101 c 0,-71.6 -58.08,-129.7 -129.72,-129.7 -71.65,0 -129.73,58.1 -129.73,129.7 0,71.7 58.08,129.7 129.73,129.7 71.64,0 129.72,-58 129.72,-129.7"
         style="fill:#ffffff;fill-opacity:1;fill-rule:nonzero;stroke:none"
         id="path44" />
      <path
         d="m 6228.61,12101 c 0,-71.6 -58.08,-129.7 -129.73,-129.7 -71.64,0 -129.72,58.1 -129.72,129.7 0,71.7 58.08,129.7 129.72,129.7 71.65,0 129.73,-58 129.73,-129.7"
         style="fill:#ffffff;fill-opacity:1;fill-rule:nonzero;stroke:none"
         id="path46" />
      <path
         d="m 4965.96,3673.8 96.2,-370.9 c 25.09,-96.7 118.61,-162.1 222.06,-155 315.43,21.4 970.81,98.7 1346.96,375.9 l -106.93,534.5 c -517.18,29.3 -1000.84,0.5 -1419.65,-140.5 -104.86,-35.3 -165.51,-140.4 -138.64,-244"
         style="fill:#102048;fill-opacity:1;fill-rule:nonzero;stroke:none"
         id="path48" />
      <path
         d="m 5568.75,3378.6 c -5.47,0 -10.5,3.6 -12.04,9.1 l -129.17,462.5 c -1.85,6.7 2.04,13.6 8.68,15.4 6.7,1.9 13.56,-2 15.41,-8.7 l 129.16,-462.5 c 1.86,-6.6 -2.03,-13.5 -8.68,-15.4 -1.12,-0.3 -2.26,-0.4 -3.36,-0.4"
         style="fill:#ffffff;fill-opacity:1;fill-rule:nonzero;stroke:none"
         id="path50" />
      <path
         d="m 5847.91,3441.1 c -5.47,0 -10.49,3.6 -12.04,9.1 l -129.16,462.5 c -1.86,6.7 2.03,13.6 8.68,15.4 6.69,1.9 13.55,-2 15.4,-8.7 l 129.17,-462.5 c 1.85,-6.6 -2.04,-13.5 -8.68,-15.4 -1.13,-0.3 -2.26,-0.4 -3.37,-0.4"
         style="fill:#ffffff;fill-opacity:1;fill-rule:nonzero;stroke:none"
         id="path52" />
      <path
         d="M 6172.13,5678.6 4970.1,5321.8 5862.79,4098.7 7144.37,3996.8 8912.06,4744.2 8240.34,5755 6172.13,5678.6"
         style="fill:#fbc343;fill-opacity:1;fill-rule:nonzero;stroke:none"
         id="path54" />
      <path
         d="m 7654.05,5508.7 c 2639.75,781.4 3064.05,-1551.6 -1054.72,-1976.3 -145.48,163.7 -315.49,447.8 -383,685.2 l 2175.04,1005.1 -737.32,286"
         style="fill:#fbc343;fill-opacity:1;fill-rule:nonzero;stroke:none"
         id="path56" />
      <path
         d="m 7766.18,3836.7 c -123.46,39.5 -241.76,117.6 -241.76,117.6 l -424.24,-133.1 97.22,-461.5 440.72,-89.5 c 134.25,245.5 142.09,447.2 128.06,566.5"
         style="fill:#f9b384;fill-opacity:1;fill-rule:nonzero;stroke:none"
         id="path58" />
      <path
         d="m 6225.75,4201.4 -18.84,32.4 c 453.75,263.7 1616.03,897.3 2606.28,1084.1 l 6.95,-36.9 C 7835.6,5095.3 6677.83,4464.1 6225.75,4201.4"
         style="fill:#e49b31;fill-opacity:1;fill-rule:nonzero;stroke:none"
         id="path60" />
      <path
         d="M 6172.13,5678.6 C 3715.04,6145.7 3078.67,3784.4 7197.4,3359.7 c 145.48,163.7 259.51,357.2 327.02,594.6 -632.67,423.3 -1340.06,825.7 -2115.34,1209 l 763.05,515.3"
         style="fill:#fbc343;fill-opacity:1;fill-rule:nonzero;stroke:none"
         id="path62" />
      <path
         d="m 7514.36,3938.5 c -116.89,74.4 -238.68,153 -367.62,236.3 -647.27,417.9 -1380.9,891.5 -2004.2,1161.6 l 14.92,34.4 C 5783.59,5099.5 6518.6,4625 7167.08,4206.3 c 128.89,-83.3 250.63,-161.9 367.41,-236.2 l -20.13,-31.6"
         style="fill:#e49b31;fill-opacity:1;fill-rule:nonzero;stroke:none"
         id="path64" />
      <path
         d="m 4369.38,4507.8 -32.83,18.1 c 92.23,167 239.96,279.6 439.08,334.7 l 10.01,-36.1 c -191.7,-53.1 -327.86,-156.7 -416.26,-316.7"
         style="fill:#e49b31;fill-opacity:1;fill-rule:nonzero;stroke:none"
         id="path66" />
      <path
         d="m 9497.71,4649.9 c -88.4,160 -224.57,263.6 -416.27,316.8 l 10.01,36.1 C 9290.58,4947.6 9438.3,4835 9530.53,4668 l -32.82,-18.1"
         style="fill:#e49b31;fill-opacity:1;fill-rule:nonzero;stroke:none"
         id="path68" />
      <path
         d="m 6967.31,3380.4 -27.41,25.6 c 196.56,210.5 317.27,432.8 369.06,679.4 l 36.69,-7.7 c -53.22,-253.5 -176.98,-481.6 -378.34,-697.3"
         style="fill:#e49b31;fill-opacity:1;fill-rule:nonzero;stroke:none"
         id="path70" />
      <path
         d="m 8991.61,3974.1 c -314.81,194.5 -925.1,-141.6 -1078.29,-158.5 -44.67,-5 -96.34,4.8 -147.14,21.1 14.03,-119.3 6.19,-321 -128.06,-566.5 l 74.85,-15.2 c 0,0 517.53,-189.8 1066.52,-79.3 506.74,101.9 459.6,645.5 212.12,798.4"
         style="fill:#102048;fill-opacity:1;fill-rule:nonzero;stroke:none"
         id="path72" />
      <path
         d="m 8562.5,3337.9 c -1.25,0 -2.51,0.2 -3.76,0.6 -6.59,2.1 -10.24,9.1 -8.16,15.7 37.4,118.4 53.72,351.4 -54.61,507.9 -3.93,5.7 -2.51,13.4 3.17,17.4 5.65,3.9 13.45,2.5 17.39,-3.2 113.44,-163.8 96.77,-406.5 57.89,-529.6 -1.69,-5.3 -6.61,-8.8 -11.92,-8.8"
         style="fill:#ffffff;fill-opacity:1;fill-rule:nonzero;stroke:none"
         id="path74" />
      <path
         d="m 8315.63,3291.1 c -1.25,0 -2.51,0.2 -3.77,0.6 -6.58,2 -10.23,9.1 -8.15,15.6 37.39,118.5 53.71,351.4 -54.61,507.9 -3.93,5.7 -2.52,13.5 3.16,17.4 5.66,3.9 13.45,2.5 17.39,-3.2 113.44,-163.8 96.78,-406.5 57.89,-529.6 -1.68,-5.3 -6.6,-8.7 -11.91,-8.7"
         style="fill:#ffffff;fill-opacity:1;fill-rule:nonzero;stroke:none"
         id="path76" />
      <path
         d="m 5737.44,8723.2 c 0,0 618.81,526.2 595.89,626.2 -16.37,71.5 -191.66,-33.3 -191.66,-33.3 0,0 245.83,291.6 233.33,327.1 -22.34,63.2 -192.36,-54.7 -192.36,-54.7 0,0 114.92,165.4 59.98,192.3 -54.94,27 -174.72,-75 -174.72,-75 0,0 69.98,91.9 37.1,116 -32.89,24.1 -174.72,-75 -174.72,-75 0,0 50.9,115.8 -57.24,71.9 C 5764.91,9774.8 5006.71,9079 5006.71,9079 l 730.73,-355.8"
         style="fill:#f9b384;fill-opacity:1;fill-rule:nonzero;stroke:none"
         id="path78" />
      <path
         d="m 5990.62,9347.3 c -3.01,0 -6.03,1.1 -8.43,3.3 -106.21,97 -153.05,120.6 -270.24,156.7 -6.6,2 -10.3,9 -8.27,15.6 2.03,6.6 9.02,10.3 15.62,8.2 121.42,-37.3 169.91,-61.7 279.76,-162 5.1,-4.7 5.45,-12.6 0.79,-17.7 -2.46,-2.7 -5.84,-4.1 -9.23,-4.1"
         style="fill:#e28b6d;fill-opacity:1;fill-rule:nonzero;stroke:none"
         id="path80" />
      <path
         d="m 5804.18,9061.9 -1.74,0.1 c -6.84,1 -11.61,7.3 -10.65,14.1 12.16,87 39.55,141.4 83.74,166.3 37.77,21.2 86.92,19 146.09,-6.5 6.34,-2.8 9.26,-10.1 6.52,-16.4 -2.73,-6.4 -10.09,-9.3 -16.43,-6.6 -51.61,22.3 -93.3,24.9 -123.93,7.7 -36.41,-20.5 -60.38,-70.3 -71.24,-147.9 -0.87,-6.3 -6.22,-10.8 -12.36,-10.8"
         style="fill:#e28b6d;fill-opacity:1;fill-rule:nonzero;stroke:none"
         id="path82" />
      <path
         d="m 5775,9587.9 c -3.32,0 -6.64,1.4 -9.1,4 -4.73,5 -4.5,12.9 0.53,17.6 l 155.27,146.4 c 5.03,4.7 12.93,4.5 17.68,-0.5 4.73,-5.1 4.5,-13 -0.53,-17.7 l -155.28,-146.3 c -2.41,-2.3 -5.49,-3.5 -8.57,-3.5"
         style="fill:#e28b6d;fill-opacity:1;fill-rule:nonzero;stroke:none"
         id="path84" />
      <path
         d="m 5918.75,9537.9 c -3.12,0 -6.23,1.2 -8.66,3.5 -4.98,4.8 -5.14,12.7 -0.36,17.7 l 149.15,155.4 c 4.78,5 12.69,5.2 17.68,0.4 4.98,-4.8 5.14,-12.7 0.36,-17.7 l -149.15,-155.4 c -2.46,-2.6 -5.74,-3.9 -9.02,-3.9"
         style="fill:#e28b6d;fill-opacity:1;fill-rule:nonzero;stroke:none"
         id="path86" />
      <path
         d="m 6065.62,9450.4 c -3.05,0 -6.11,1.2 -8.52,3.4 -5.05,4.7 -5.33,12.6 -0.62,17.7 L 6173.5,9597 c 4.71,5 12.61,5.3 17.67,0.6 5.05,-4.7 5.32,-12.6 0.62,-17.6 l -117.02,-125.6 c -2.47,-2.6 -5.8,-4 -9.15,-4"
         style="fill:#e28b6d;fill-opacity:1;fill-rule:nonzero;stroke:none"
         id="path88" />
      <path
         d="m 8075,5203.6 -2262.5,-87.5 -250,2062.5 c 0,0 757.43,718.5 1048.84,983 l 491.94,25.2 C 8629.6,7493.1 8379.67,6626.6 8075,5203.6"
         style="fill:#3a6bea;fill-opacity:1;fill-rule:nonzero;stroke:none"
         id="path90" />
      <path
         d="m 7103.28,8186.8 c 0,0 1746.22,-149.3 2296.72,-1345.7 C 9938.66,5670.5 7725,5253.6 7725,5253.6 l -621.72,2933.2"
         style="fill:#3a6bea;fill-opacity:1;fill-rule:nonzero;stroke:none"
         id="path92" />
      <path
         d="m 5107.26,7930.5 721.59,878.1 -674.78,409 c -281.48,-195.8 -825.8,-639.1 -1287.09,-1141.1 -101.82,-110.8 -181.35,-240.2 -221.41,-382.7 -34.17,-121.6 -40.39,-241.7 -21.17,-359.3 50.07,-306.6 291.21,-543.2 613.1,-580.9 274.91,-32.2 1325,50 2175,300 l 250,964.9 c -128.48,72.9 -1083.24,85.6 -1555.24,-88"
         style="fill:#3a6bea;fill-opacity:1;fill-rule:nonzero;stroke:none"
         id="path94" />
      <path
         d="m 8066.64,7629 c -114.72,0 -281.1,25.7 -341.79,164.1 -40.08,91.3 -11.84,191.8 32.18,263.5 6.23,-1.8 12.44,-3.6 18.72,-5.4 -42.98,-67.6 -71.74,-164 -33.73,-250.6 56.49,-128.8 214.16,-152.9 324.09,-152.9 38.7,0 71.48,3 91.85,5.5 130.15,15.7 262.19,45.8 390.15,75.3 7.91,-4.6 15.85,-9.2 23.73,-13.8 -3.76,-0.9 -7.54,-1.8 -11.29,-2.6 -130.99,-30.2 -266.44,-61.4 -400.35,-77.5 -20.83,-2.5 -54.14,-5.6 -93.56,-5.6"
         style="fill:#d8e1fb;fill-opacity:1;fill-rule:nonzero;stroke:none"
         id="path96" />
      <path
         d="m 8941.35,5708.7 c -88.47,112 -134.87,239.3 -129.24,360.7 8.24,178.2 144.24,335.3 303.16,350.4 9.8,0.9 19.53,1.3 29.22,1.3 79.97,0 156.58,-29.6 230.99,-58.3 29.74,-11.5 59.96,-23.1 90.55,-33 -1.45,-6.1 -3.03,-12.1 -4.64,-18.2 -31.39,10.1 -62.28,21.9 -92.68,33.7 -75.93,29.3 -148.09,57.1 -223.92,57.1 -9.19,0 -18.45,-0.4 -27.76,-1.3 -149.98,-14.2 -278.36,-163.3 -286.2,-332.5 -5.44,-117.5 39.95,-241.1 126.44,-349.8 -5.28,-3.4 -10.6,-6.8 -15.92,-10.1"
         style="fill:#d8e1fb;fill-opacity:1;fill-rule:nonzero;stroke:none"
         id="path98" />
      <path
         d="m 4116.3,6778.3 c -6.52,1.9 -12.8,4.3 -19.23,6.4 97.84,112.5 240.25,197.5 406.25,240.5 62.98,16.3 124.02,24.3 181.46,24.3 112.44,0 211.06,-30.8 283.21,-90.4 53.73,-44.5 90.92,-102.2 117.61,-164 -6.48,-0.7 -12.95,-1.5 -19.38,-2.2 -25.49,57.5 -60.56,110.7 -110.16,151.7 -68.79,56.9 -163.17,86.2 -271.19,86.2 -55.86,0 -115.38,-7.9 -176.86,-23.8 -159.41,-41.2 -296.52,-121.9 -391.71,-228.7"
         style="fill:#d8e1fb;fill-opacity:1;fill-rule:nonzero;stroke:none"
         id="path100" />
      <path
         d="m 3982.43,8199.2 c 8.14,8.4 16.28,16.9 24.44,25.3 192.69,49.9 380.27,119 553.69,218.9 67.78,39 144.24,88.7 197.35,160.8 55.09,74.8 73.57,163.4 49.44,236.8 -9.48,28.9 -26.39,54.2 -47.48,74.3 4.82,3.9 9.65,7.9 14.43,11.8 22.59,-21.9 40.67,-49.1 50.87,-80.2 26.01,-79.2 6.52,-174.1 -52.17,-253.9 -55.17,-74.9 -133.62,-125.9 -203.09,-165.9 -183.86,-105.9 -383.2,-177.2 -587.48,-227.9"
         style="fill:#d8e1fb;fill-opacity:1;fill-rule:nonzero;stroke:none"
         id="path102" />
      <path
         d="m 7263.1,8645.4 -0.32,-32 -5.07,-497.3 -0.63,-53.9 c -0.95,-84.3 -35.5,-160.7 -91.28,-216.2 -55.47,-55.1 -131.86,-89.7 -216.49,-90.3 -170.52,-0.9 -309.98,136 -311.56,306.8 l -6.02,614.6 631.37,-31.7"
         style="fill:#f9b384;fill-opacity:1;fill-rule:nonzero;stroke:none"
         id="path104" />
      <path
         d="m 7262.78,8613.4 -5.07,-497.3 c -276.38,112.5 -390.17,411.7 -390.17,411.7 l 395.24,85.6"
         style="fill:#102048;fill-opacity:1;fill-rule:nonzero;stroke:none"
         id="path106" />
      <path
         d="m 7372.13,9481.2 c 99.05,-118.9 388.27,-792.4 95.09,-1022.2 -329.92,-258.6 -832.01,166.4 -832.01,166.4 l -67.35,784.5 435.81,114.9 368.46,-43.6"
         style="fill:#f9b384;fill-opacity:1;fill-rule:nonzero;stroke:none"
         id="path108" />
      <path
         d="m 6345.83,9524.4 c 0,0 -966.66,-504.2 -178.47,-1957.5 101.23,-186.6 325.47,-268.1 517.28,-177 h 0.01 c 205.77,97.7 283.68,349.1 171.94,547.6 -128.93,229 -253.37,523.9 -200.25,743.4 l -310.51,843.5"
         style="fill:#102048;fill-opacity:1;fill-rule:nonzero;stroke:none"
         id="path110" />
      <path
         d="m 6698.6,9285.8 c 0,-144.5 -117.07,-261.5 -261.49,-261.5 -144.41,0 -261.48,117 -261.48,261.5 0,144.4 117.07,261.4 261.48,261.4 144.42,0 261.49,-117 261.49,-261.4"
         style="fill:#fbc343;fill-opacity:1;fill-rule:nonzero;stroke:none"
         id="path112" />
      <path
         d="m 6758.8,8971.6 c -28.26,163.1 -45.47,275 119.41,359.1 0,0 581.08,-105.7 692.02,113.5 110.93,219.3 -58.11,565.3 -412.04,324.9 -905.96,177 -1027.46,-670.9 -752.77,-953.5 l 271.12,41.6 c 54.56,8.4 91.67,60 82.26,114.4"
         style="fill:#102048;fill-opacity:1;fill-rule:nonzero;stroke:none"
         id="path114" />
      <path
         d="m 7247.33,8971.1 c 0,-21.3 -17.3,-38.6 -38.63,-38.6 -21.33,0 -38.63,17.3 -38.63,38.6 0,21.3 17.3,38.6 38.63,38.6 21.33,0 38.63,-17.3 38.63,-38.6"
         style="fill:#102048;fill-opacity:1;fill-rule:nonzero;stroke:none"
         id="path116" />
      <path
         d="m 7508.82,9099.9 c 0,-21.4 -17.3,-38.7 -38.63,-38.7 -21.33,0 -38.63,17.3 -38.63,38.7 0,21.3 17.3,38.6 38.63,38.6 21.33,0 38.63,-17.3 38.63,-38.6"
         style="fill:#102048;fill-opacity:1;fill-rule:nonzero;stroke:none"
         id="path118" />
      <path
         d="m 7443.45,8852.2 c -2.71,0 -5.42,1 -7.54,3 -4.38,4.2 -4.55,11.1 -0.39,15.5 15.49,16.3 32.46,39.2 25.33,55.8 -7.41,17.3 -38.72,24.7 -53.06,24.7 -30.82,0 -45.62,54.9 -48.27,65.9 -1.41,5.8 2.19,11.7 8.06,13.2 5.86,1.4 11.78,-2.2 13.2,-8.1 5.63,-23.2 18.37,-49.1 27.01,-49.1 14.75,0 59.86,-6.9 73.16,-37.9 9.5,-22.2 -0.45,-48.9 -29.57,-79.6 -2.15,-2.3 -5.04,-3.4 -7.93,-3.4"
         style="fill:#102048;fill-opacity:1;fill-rule:nonzero;stroke:none"
         id="path120" />
      <path
         d="m 7445.42,8705.6 c -2.1,0 -4.23,0.6 -6.11,1.9 -72.73,49.1 -146.17,7.9 -146.91,7.5 -5.22,-3 -11.91,-1.2 -14.93,4 -3.01,5.3 -1.21,11.9 4.02,15 3.49,2 86.13,48.3 170.06,-8.4 5,-3.4 6.33,-10.2 2.95,-15.2 -2.12,-3.1 -5.57,-4.8 -9.08,-4.8"
         style="fill:#102048;fill-opacity:1;fill-rule:nonzero;stroke:none"
         id="path122" />
      <path
         d="m 7191.78,9138.4 c 21.98,-41.3 -16.32,-49.7 -61.18,-73.5 -44.87,-23.8 -90.81,-32.6 -101.29,-12.8 -10.49,19.7 17.38,55 62.25,78.9 44.87,23.8 83.21,39.4 100.22,7.4"
         style="fill:#102048;fill-opacity:1;fill-rule:nonzero;stroke:none"
         id="path124" />
      <path
         d="m 7355.42,9213.1 c 9.65,-36.9 37.19,-20.8 77.24,-10.3 40.05,10.5 72.39,30.6 67.78,48.2 -4.6,17.6 -40.8,23.4 -80.85,12.9 -40.05,-10.5 -71.65,-22.2 -64.17,-50.8"
         style="fill:#102048;fill-opacity:1;fill-rule:nonzero;stroke:none"
         id="path126" />
      <path
         d="m 7030.42,8676.9 c -62.92,0 -113.91,51 -113.91,113.9 0,63 50.99,113.9 113.91,113.9 62.91,0 113.9,-50.9 113.9,-113.9 0,-62.9 -50.99,-113.9 -113.9,-113.9"
         style="fill:#f39176;fill-opacity:1;fill-rule:nonzero;stroke:none"
         id="path128" />
      <path
         d="m 6692.1,8912.5 c 76.65,-59.1 96.58,-161.7 44.53,-229.2 -52.05,-67.4 -156.38,-74.1 -233.03,-15 -76.65,59.1 -96.58,161.8 -44.53,229.2 52.05,67.5 156.38,74.2 233.03,15"
         style="fill:#f9b384;fill-opacity:1;fill-rule:nonzero;stroke:none"
         id="path130" />
      <path
         d="m 6665.63,8733.3 c -6.05,0 -10.94,4.9 -10.94,10.9 0,32.3 -15.74,62.1 -42.1,79.9 -22.55,15.1 -49.43,18.7 -71.89,9.5 -5.6,-2.2 -11.97,0.4 -14.25,6 -2.28,5.6 0.4,12 5.99,14.3 29.22,11.9 63.74,7.5 92.35,-11.7 32.42,-21.8 51.77,-58.4 51.77,-98 0,-6 -4.89,-10.9 -10.93,-10.9"
         style="fill:#102048;fill-opacity:1;fill-rule:nonzero;stroke:none"
         id="path132" />
      <path
         d="m 4721.68,7495.1 -18.36,17 394.76,426.9 18.36,-17 -394.76,-426.9"
         style="fill:#102048;fill-opacity:1;fill-rule:nonzero;stroke:none"
         id="path134" />
      <path
         d="m 7878.64,6104.1 -7.28,23.9 c 287.33,87.6 566.17,192.4 818.88,508.4 l 19.52,-15.6 C 8452.6,6299.2 8169.88,6192.9 7878.64,6104.1"
         style="fill:#102048;fill-opacity:1;fill-rule:nonzero;stroke:none"
         id="path136" />
      <path
         d="M 8053.34,7072.2 H 5609.16 c -87.91,0 -159.16,-77.1 -159.16,-172.1 V 5155 c 0,-95.1 71.25,-172.2 159.16,-172.2 h 2444.18 c 87.91,0 159.16,77.1 159.16,172.2 v 1745.1 c 0,95 -71.25,172.1 -159.16,172.1"
         style="fill:#d3dfff;fill-opacity:1;fill-rule:nonzero;stroke:none"
         id="path138" />
      <path
         d="m 6960.28,6187.8 h -258.06 c -36.83,0 -66.8,-30.6 -66.8,-68.2 v -184.2 c 0,-37.6 29.97,-68.2 66.8,-68.2 h 258.06 c 36.83,0 66.8,30.6 66.8,68.2 v 184.2 c 0,37.6 -29.97,68.2 -66.8,68.2 z m 0,-50 c 9.28,0 16.8,-8.1 16.8,-18.2 v -184.2 c 0,-10 -7.52,-18.2 -16.8,-18.2 h -258.06 c -9.28,0 -16.8,8.2 -16.8,18.2 v 184.2 c 0,10.1 7.52,18.2 16.8,18.2 h 258.06"
         style="fill:#1f3c88;fill-opacity:1;fill-rule:nonzero;stroke:none"
         id="path140" />
      <path
         d="M 17539.4,3128.6 H 2802.61 v 50 H 17539.4 v -50"
         style="fill:#102048;fill-opacity:1;fill-rule:nonzero;stroke:none"
         id="path142" />
    </g>
  </g>
</svg>
