<?xml version="1.0" encoding="utf-8"?><!-- Uploaded to: SVG Repo, www.svgrepo.com, Generator: SVG Repo Mixer Tools -->
<svg width="800px" height="800px" viewBox="0 0 200 200" xmlns="http://www.w3.org/2000/svg"><title>Virtual Reality icons</title><line x1="100" y1="101.93" x2="100" y2="149.93" fill="none" stroke="#220728" stroke-miterlimit="10" stroke-width="8"/><line x1="56" y1="75.5" x2="100" y2="102.49" fill="none" stroke="#220728" stroke-miterlimit="10" stroke-width="7.94"/><line x1="144" y1="75.5" x2="100" y2="102.49" fill="none" stroke="#220728" stroke-miterlimit="10" stroke-width="8"/><polygon points="144 75.5 144 124.28 100 151.6 56 124.61 56 75.5 99.5 48.4 144 75.5" fill="none" stroke="#220728" stroke-miterlimit="10" stroke-width="8"/><path d="M187,141v36a10,10,0,0,1-10,10H141" fill="none" stroke="#ffc548" stroke-miterlimit="10" stroke-width="8"/><path d="M141,13h36a10,10,0,0,1,10,10V59" fill="none" stroke="#ffc548" stroke-miterlimit="10" stroke-width="8"/><path d="M13,59V23A10,10,0,0,1,23,13H59" fill="none" stroke="#ffc548" stroke-miterlimit="10" stroke-width="8"/><path d="M59,187H23a10,10,0,0,1-10-10V141" fill="none" stroke="#ffc548" stroke-miterlimit="10" stroke-width="8"/></svg>