{
  "accessors": [
    {
      "bufferView": 2,
      "componentType": 5126,
      "count": 2605,
      "max": [
        38.228614807128906,
        63.273590087890625,
        55.25382614135742
      ],
      "min": [
        -37.857295989990234,
        -22.190750122070313,
        -43.849571228027344
      ],
      "type": "VEC3"
    },
    {
      "bufferView": 2,
      "byteOffset": 31260,
      "componentType": 5126,
      "count": 2605,
      "max": [
        0.998924195766449,
        0.9976208806037903,
        0.99993896484375
      ],
      "min": [
        -0.9997853636741638,
        -0.9998801350593567,
        -0.9994252324104309
      ],
      "type": "VEC3"
    },
    {
      "bufferView": 3,
      "componentType": 5126,
      "count": 2605,
      "max": [
        0.9993165135383606,
        0.9999764561653137,
        0.9993059039115906,
        1.0
      ],
      "min": [
        -0.9997369050979614,
        -0.9933428168296814,
        -0.9908373355865479,
        1.0
      ],
      "type": "VEC4"
    },
    {
      "bufferView": 1,
      "componentType": 5126,
      "count": 2605,
      "max": [
        0.9871065616607666,
        0.9901384711265564
      ],
      "min": [
        0.005895610433071852,
        0.008609116077423096
      ],
      "type": "VEC2"
    },
    {
      "bufferView": 1,
      "byteOffset": 20840,
      "componentType": 5126,
      "count": 2605,
      "max": [
        0.9871065616607666,
        0.9901384711265564
      ],
      "min": [
        0.005895610433071852,
        0.008609116077423096
      ],
      "type": "VEC2"
    },
    {
      "bufferView": 1,
      "byteOffset": 41680,
      "componentType": 5126,
      "count": 2605,
      "max": [
        0.9871065616607666,
        0.9901384711265564
      ],
      "min": [
        0.005895610433071852,
        0.008609116077423096
      ],
      "type": "VEC2"
    },
    {
      "bufferView": 1,
      "byteOffset": 62520,
      "componentType": 5126,
      "count": 2605,
      "max": [
        0.9871065616607666,
        0.9901384711265564
      ],
      "min": [
        0.005895610433071852,
        0.008609116077423096
      ],
      "type": "VEC2"
    },
    {
      "bufferView": 0,
      "componentType": 5125,
      "count": 14550,
      "type": "SCALAR"
    }
  ],
  "asset": {
    "extras": {
      "author": "3DRT STUDIOS (https://sketchfab.com/Hanako.com)",
      "license": "CC-BY-4.0 (http://creativecommons.org/licenses/by/4.0/)",
      "source": "https://sketchfab.com/3d-models/human-brain-7a27c17fd6c0488bb31ab093236a47fb",
      "title": "Human Brain"
    },
    "generator": "Sketchfab-12.65.0",
    "version": "2.0"
  },
  "bufferViews": [
    {
      "buffer": 0,
      "byteLength": 58200,
      "name": "floatBufferViews",
      "target": 34963
    },
    {
      "buffer": 0,
      "byteLength": 83360,
      "byteOffset": 58200,
      "byteStride": 8,
      "name": "floatBufferViews",
      "target": 34962
    },
    {
      "buffer": 0,
      "byteLength": 62520,
      "byteOffset": 141560,
      "byteStride": 12,
      "name": "floatBufferViews",
      "target": 34962
    },
    {
      "buffer": 0,
      "byteLength": 41680,
      "byteOffset": 204080,
      "byteStride": 16,
      "name": "floatBufferViews",
      "target": 34962
    }
  ],
  "buffers": [
    {
      "byteLength": 245760,
      "uri": "scene.bin"
    }
  ],
  "extensionsRequired": [
    "KHR_materials_pbrSpecularGlossiness"
  ],
  "extensionsUsed": [
    "KHR_materials_pbrSpecularGlossiness"
  ],
  "images": [
    {
      "uri": "textures/material_0_diffuse.png"
    },
    {
      "uri": "textures/material_0_specularGlossiness.png"
    },
    {
      "uri": "textures/material_0_normal.png"
    }
  ],
  "materials": [
    {
      "doubleSided": true,
      "extensions": {
        "KHR_materials_pbrSpecularGlossiness": {
          "diffuseFactor": [
            1.0,
            1.0,
            1.0,
            1.0
          ],
          "diffuseTexture": {
            "index": 0
          },
          "glossinessFactor": 1.0,
          "specularFactor": [
            1.0,
            1.0,
            1.0
          ],
          "specularGlossinessTexture": {
            "index": 1
          }
        }
      },
      "name": "material_0",
      "normalTexture": {
        "index": 2
      }
    }
  ],
  "meshes": [
    {
      "name": "Object_0",
      "primitives": [
        {
          "attributes": {
            "NORMAL": 1,
            "POSITION": 0,
            "TANGENT": 2,
            "TEXCOORD_0": 3,
            "TEXCOORD_1": 4,
            "TEXCOORD_2": 5,
            "TEXCOORD_3": 6
          },
          "indices": 7,
          "material": 0,
          "mode": 4
        }
      ]
    }
  ],
  "nodes": [
    {
      "children": [
        1
      ],
      "matrix": [
        1.0,
        0.0,
        0.0,
        0.0,
        0.0,
        2.220446049250313e-16,
        -1.0,
        0.0,
        0.0,
        1.0,
        2.220446049250313e-16,
        0.0,
        0.0,
        0.0,
        0.0,
        1.0
      ],
      "name": "Sketchfab_model"
    },
    {
      "children": [
        2
      ],
      "name": "root"
    },
    {
      "children": [
        3
      ],
      "matrix": [
        1.0,
        0.0,
        0.0,
        0.0,
        0.0,
        2.220446049250313e-16,
        1.0,
        0.0,
        0.0,
        -1.0,
        2.220446049250313e-16,
        0.0,
        0.0,
        0.0,
        0.0,
        1.0
      ],
      "name": "GLTF_SceneRootNode"
    },
    {
      "children": [
        4
      ],
      "matrix": [
        0.009999999776482582,
        0.0,
        0.0,
        0.0,
        0.0,
        0.009999999776482582,
        0.0,
        0.0,
        0.0,
        0.0,
        0.009999999776482582,
        0.0,
        0.0,
        0.0,
        0.0,
        1.0
      ],
      "name": "RootNode.0_0"
    },
    {
      "children": [
        5
      ],
      "name": "brain.1_1"
    },
    {
      "mesh": 0,
      "name": "Object_5"
    }
  ],
  "samplers": [
    {
      "magFilter": 9729,
      "minFilter": 9987,
      "wrapS": 10497,
      "wrapT": 10497
    }
  ],
  "scene": 0,
  "scenes": [
    {
      "name": "Sketchfab_Scene",
      "nodes": [
        0
      ]
    }
  ],
  "textures": [
    {
      "sampler": 0,
      "source": 0
    },
    {
      "sampler": 0,
      "source": 1
    },
    {
      "sampler": 0,
      "source": 2
    }
  ]
}
