{
  "accessors": [
    {
      "bufferView": 2,
      "componentType": 5126,
      "count": 12013,
      "max": [
        1.0132861137390137,
        1.6210092306137085,
        0.9682199954986572
      ],
      "min": [
        -1.1578490734100342,
        -1.5896282196044922,
        -0.7960397601127625
      ],
      "type": "VEC3"
    },
    {
      "bufferView": 2,
      "byteOffset": 144156,
      "componentType": 5126,
      "count": 12013,
      "max": [
        0.9997645020484924,
        0.9999958872795105,
        0.9999449253082275
      ],
      "min": [
        -0.999838650226593,
        -0.9995845556259155,
        -0.9998958706855774
      ],
      "type": "VEC3"
    },
    {
      "bufferView": 3,
      "componentType": 5126,
      "count": 12013,
      "max": [
        0.999299168586731,
        0.9999890327453613,
        0.9999707937240601,
        1.0
      ],
      "min": [
        -0.9983833432197571,
        -0.9999441504478455,
        -0.9998412132263184,
        -1.0
      ],
      "type": "VEC4"
    },
    {
      "bufferView": 1,
      "componentType": 5126,
      "count": 12013,
      "max": [
        0.9969890713691711,
        0.9999023675918579
      ],
      "min": [
        9.763240814208984e-05,
        9.766221046447754e-05
      ],
      "type": "VEC2"
    },
    {
      "bufferView": 1,
      "byteOffset": 96104,
      "componentType": 5126,
      "count": 12013,
      "max": [
        0.9969890713691711,
        0.9999023675918579
      ],
      "min": [
        9.763240814208984e-05,
        9.766221046447754e-05
      ],
      "type": "VEC2"
    },
    {
      "bufferView": 1,
      "byteOffset": 192208,
      "componentType": 5126,
      "count": 12013,
      "max": [
        0.9969890713691711,
        0.9999023675918579
      ],
      "min": [
        9.763240814208984e-05,
        9.766221046447754e-05
      ],
      "type": "VEC2"
    },
    {
      "bufferView": 0,
      "componentType": 5125,
      "count": 67686,
      "type": "SCALAR"
    }
  ],
  "asset": {
    "extras": {
      "author": "neshallads (https://sketchfab.com/neshallads)",
      "license": "CC-BY-4.0 (http://creativecommons.org/licenses/by/4.0/)",
      "source": "https://sketchfab.com/3d-models/realistic-human-heart-3f8072336ce94d18b3d0d055a1ece089",
      "title": "Realistic Human Heart"
    },
    "generator": "Sketchfab-14.10.0",
    "version": "2.0"
  },
  "bufferViews": [
    {
      "buffer": 0,
      "byteLength": 270744,
      "name": "floatBufferViews",
      "target": 34963
    },
    {
      "buffer": 0,
      "byteLength": 288312,
      "byteOffset": 270744,
      "byteStride": 8,
      "name": "floatBufferViews",
      "target": 34962
    },
    {
      "buffer": 0,
      "byteLength": 288312,
      "byteOffset": 559056,
      "byteStride": 12,
      "name": "floatBufferViews",
      "target": 34962
    },
    {
      "buffer": 0,
      "byteLength": 192208,
      "byteOffset": 847368,
      "byteStride": 16,
      "name": "floatBufferViews",
      "target": 34962
    }
  ],
  "buffers": [
    {
      "byteLength": 1039576,
      "uri": "scene.bin"
    }
  ],
  "images": [
    {
      "uri": "textures/Heart_Tex_baseColor.png"
    },
    {
      "uri": "textures/Heart_Tex_metallicRoughness.png"
    },
    {
      "uri": "textures/Heart_Tex_normal.png"
    }
  ],
  "materials": [
    {
      "doubleSided": true,
      "name": "Heart_Tex",
      "normalTexture": {
        "index": 2
      },
      "pbrMetallicRoughness": {
        "baseColorTexture": {
          "index": 0
        },
        "metallicRoughnessTexture": {
          "index": 1
        }
      }
    }
  ],
  "meshes": [
    {
      "name": "hart:ZBrush_defualt_group_Heart Tex_0",
      "primitives": [
        {
          "attributes": {
            "NORMAL": 1,
            "POSITION": 0,
            "TANGENT": 2,
            "TEXCOORD_0": 3,
            "TEXCOORD_1": 4,
            "TEXCOORD_2": 5
          },
          "indices": 6,
          "material": 0,
          "mode": 4
        }
      ]
    }
  ],
  "nodes": [
    {
      "children": [
        1
      ],
      "matrix": [
        0.17420147359371185,
        0.0,
        0.0,
        0.0,
        0.0,
        3.868049738147402e-17,
        -0.17420147359371185,
        0.0,
        0.0,
        0.17420147359371185,
        3.868049738147402e-17,
        0.0,
        0.0,
        0.0,
        0.0,
        1.0
      ],
      "name": "Sketchfab_model"
    },
    {
      "children": [
        2
      ],
      "matrix": [
        0.009999999776482582,
        0.0,
        0.0,
        0.0,
        0.0,
        0.0,
        0.009999999776482582,
        0.0,
        0.0,
        -0.009999999776482582,
        0.0,
        0.0,
        0.0,
        0.0,
        0.0,
        1.0
      ],
      "name": "657c3bff23dc4b9b8f508b0d10bcd0c1.fbx"
    },
    {
      "children": [
        3
      ],
      "name": "RootNode"
    },
    {
      "children": [
        4
      ],
      "matrix": [
        286.3651428222656,
        0.0,
        0.0,
        0.0,
        0.0,
        286.3651428222618,
        4.6654809281881476e-05,
        0.0,
        0.0,
        -4.6654809281881476e-05,
        286.3651428222618,
        0.0,
        0.0,
        0.0,
        0.0,
        1.0
      ],
      "name": "hart:ZBrush_defualt_group"
    },
    {
      "mesh": 0,
      "name": "hart:ZBrush_defualt_group_Heart Tex_0"
    }
  ],
  "samplers": [
    {
      "magFilter": 9729,
      "minFilter": 9987,
      "wrapS": 10497,
      "wrapT": 10497
    }
  ],
  "scene": 0,
  "scenes": [
    {
      "name": "Sketchfab_Scene",
      "nodes": [
        0
      ]
    }
  ],
  "textures": [
    {
      "sampler": 0,
      "source": 0
    },
    {
      "sampler": 0,
      "source": 1
    },
    {
      "sampler": 0,
      "source": 2
    }
  ]
}
