<?xml version="1.0" encoding="UTF-8" standalone="no"?>
<!-- Created with Inkscape (http://www.inkscape.org/) -->

<svg
   version="1.1"
   id="svg2"
   width="3082.6667"
   height="2596"
   viewBox="0 0 3082.6667 2596"
   sodipodi:docname="5984948_57314.eps"
   xmlns:inkscape="http://www.inkscape.org/namespaces/inkscape"
   xmlns:sodipodi="http://sodipodi.sourceforge.net/DTD/sodipodi-0.dtd"
   xmlns="http://www.w3.org/2000/svg"
   xmlns:svg="http://www.w3.org/2000/svg">
  <defs
     id="defs6" />
  <sodipodi:namedview
     id="namedview4"
     pagecolor="#ffffff"
     bordercolor="#000000"
     borderopacity="0.25"
     inkscape:showpageshadow="2"
     inkscape:pageopacity="0.0"
     inkscape:pagecheckerboard="0"
     inkscape:deskcolor="#d1d1d1" />
  <g
     id="g8"
     inkscape:groupmode="layer"
     inkscape:label="ink_ext_XXXXXX"
     transform="matrix(1.3333333,0,0,-1.3333333,0,2596)">
    <g
       id="g10"
       transform="scale(0.1)">
      <path
         d="M 23116.6,3.40234 H 0 V 19470 H 23116.6 V 3.40234"
         style="fill:#ffffff;fill-opacity:1;fill-rule:nonzero;stroke:none"
         id="path12" />
      <path
         d="m 19666.5,3350 c 0,-441.6 -3924.1,-799.6 -8764.7,-799.6 -4840.63,0 -8764.69,358 -8764.69,799.6 0,441.6 3924.06,799.5 8764.69,799.5 4840.6,0 8764.7,-357.9 8764.7,-799.5"
         style="fill:#e9ccc5;fill-opacity:1;fill-rule:nonzero;stroke:none"
         id="path14" />
      <path
         d="m 15639.8,2115.5 c 0,-401.9 -2121.2,-727.8 -4738,-727.8 -2616.68,0 -4738.01,325.9 -4738.01,727.8 0,401.9 2121.33,727.7 4738.01,727.7 2616.8,0 4738,-325.8 4738,-727.7"
         style="fill:#e9ccc5;fill-opacity:1;fill-rule:nonzero;stroke:none"
         id="path16" />
      <path
         d="m 17724,16739.1 c 49.2,-122.2 -9.4,-283 42.5,-391.7 52.6,-110.2 193,-115.8 245,-217.7 176.8,-346 -23.4,-418.2 -1.2,-681 25,-293.6 329.5,-444.4 70.9,-751.4 -212.9,-252.9 -644,-212.5 -740.8,122 7,9.6 7.2,9.5 0.5,-0.4 -501.1,-330 -891.4,552.9 -290.2,729 -220.2,155.9 -317.2,489.1 -67.2,682 -237.9,164.2 -223,489.5 12.8,640.3 38,24.3 -119.1,338 195.5,365.2 226.6,19.5 463.2,-325.2 532.2,-496.3"
         style="fill:#2451aa;fill-opacity:1;fill-rule:nonzero;stroke:none"
         id="path18" />
      <path
         d="m 17693.6,15130 c 244,6.8 447.5,-185.5 454.3,-429.6 6.7,-244.1 -126.2,-873.8 -312.2,-715.5 -365.4,311.2 -547.7,498.4 -554.6,742.5 -6.8,244.1 168.4,395.8 412.5,402.6"
         style="fill:#e68368;fill-opacity:1;fill-rule:nonzero;stroke:none"
         id="path20" />
      <path
         d="m 18010,14875.3 -423.2,-140.6 -76.4,-451.7 c 0,0 931,-1132 1234.3,-1289.7 323.2,-168 236.5,126.2 215.4,247.6 0,0 -710.8,1480.2 -950.1,1634.4"
         style="fill:#e68368;fill-opacity:1;fill-rule:nonzero;stroke:none"
         id="path22" />
      <path
         d="m 18932.3,12955.7 c 0,0 789.5,393.2 1298.4,833.7 0,0 48.1,153.9 -86.4,119.6 -128.7,-32.9 -1403.4,-363.9 -1485.2,-469 -81.9,-105.2 273.2,-484.3 273.2,-484.3"
         style="fill:#e68368;fill-opacity:1;fill-rule:nonzero;stroke:none"
         id="path24" />
      <path
         d="m 20786.9,13894.2 -122.4,-56.4 c 0,0 248.3,52.4 284,159 0,0 12.6,20.4 -28.3,32.1 0,0 -198.2,-89.8 -296.2,-107.6 0,0 216,48.9 346.5,130.5 0,0 36.4,62 -37.5,65.4 35.4,38.5 -16.2,48.9 -16.2,48.9 0,0 -50.2,2.5 -156.4,-14.3 0,0 -163.5,-24.7 -359,-31.4 0,0 86.1,146.1 5.4,189.7 l -145.2,-200.4 -121.1,-202 35.8,-131.8 248.2,-37.1 c 0,0 215.2,16.5 318.6,63.4 0,0 286.5,154.5 43.8,92"
         style="fill:#e68368;fill-opacity:1;fill-rule:nonzero;stroke:none"
         id="path26" />
      <path
         d="m 17793.8,15130.2 c 0,0 340.7,-60.8 385.3,-393.5 0,0 989.9,-1393.6 807.5,-1788.6 -77.6,-30.4 -462.4,-253.7 -1656.2,1452.2 0,0 -319.9,851.2 463.4,729.9"
         style="fill:#57a1c4;fill-opacity:1;fill-rule:nonzero;stroke:none"
         id="path28" />
      <path
         d="m 18642.6,13541.2 c 0,0 514.7,220.9 1451.7,418.5 0,0 160.8,-160.9 144.8,-267.8 0,0 -1125.9,-763 -1291.2,-749.2 0,0 -374.8,265.4 -305.3,598.5"
         style="fill:#57a1c4;fill-opacity:1;fill-rule:nonzero;stroke:none"
         id="path30" />
      <path
         d="m 16890.7,3782 c 209.8,-97.5 440.2,-84 440.2,-84 l -191.7,196.5 c 0,0 -165.7,369 -183,488 -11.1,76.4 40.9,300.1 40.9,300.1 l -286.8,60.1 -43.7,-157.9 -168.2,-212.2 c 0,0 -40.4,-110.6 158.6,-189.4 0,0 100.3,-200.8 233.7,-401.2"
         style="fill:#e68368;fill-opacity:1;fill-rule:nonzero;stroke:none"
         id="path32" />
      <path
         d="m 17139.2,3894.5 c -85.7,-14.8 -222.1,12.3 -272.4,101.1 -202.8,357.7 -200.2,589.2 -200.2,589.2 -183.9,-116.9 -182,-257 -182,-257 l -4.1,-56.5 -32,-435.6 29.5,-6.2 173.5,319.8 109.8,-370.3 c 452.3,-189.4 598.9,-92.7 598.9,-92.7 l -221,208.2"
         style="fill:#231f20;fill-opacity:1;fill-rule:nonzero;stroke:none"
         id="path34" />
      <path
         d="m 18199.5,7837.7 c 0,0 -1158.2,-3207.8 -1227.3,-3339.5 0,0 -341.8,54.1 -317.2,133.4 59,191.7 170.3,1616.2 234.5,1924.4 103.2,494.8 195,801.2 626.5,1386.6 0,0 655.8,292.6 683.5,-104.9"
         style="fill:#111215;fill-opacity:1;fill-rule:nonzero;stroke:none"
         id="path36" />
      <path
         d="m 17700,11682.3 c 0,0 177.9,-626.3 257.4,-1022.7 140.6,-701.28 197.2,-2507.7 197.2,-2507.7 0,0 -588.5,-318.7 -670.3,-169.6 -395.5,719.6 -441.8,522.2 -990.9,2959.3 l 1206.6,740.7"
         style="fill:#f69575;fill-opacity:1;fill-rule:nonzero;stroke:none"
         id="path38" />
      <path
         d="m 16526.5,10864 c 0,0 222.9,-1846.3 935.7,-2892.6 0,0 215.3,-569.3 737.3,-133.7 0,0 65,3006.6 -442.1,3936.6 0,0 -1448.8,71.6 -1230.9,-910.3"
         style="fill:#111215;fill-opacity:1;fill-rule:nonzero;stroke:none"
         id="path40" />
      <path
         d="m 17205.9,12901.7 c 55.9,10.1 286.9,-109.1 286.9,-109.1 0,0 288.5,-927.1 300.9,-1068.2 12.5,-140.8 -957.1,-870.6 -2040.1,-455.1 0,0 501.4,1305.6 532,1627.2 30.7,321.6 920.3,5.2 920.3,5.2"
         style="fill:#e88767;fill-opacity:1;fill-rule:nonzero;stroke:none"
         id="path42" />
      <path
         d="m 17492.8,12792.6 c 0,0 276.5,-836.1 300.9,-1068.2 86.3,-821.3 -1025.1,-1165.8 -2108.2,-750.2 0,0 -70.3,1129.2 600.1,1922.3 0,0 178.2,-162.5 1207.2,-103.9"
         style="fill:#141519;fill-opacity:1;fill-rule:nonzero;stroke:none"
         id="path44" />
      <path
         d="m 16468.8,10364.8 -783.3,430 c 0,0 127.1,-2478.2 226.3,-3174.3 0,0 438.2,-121.9 573.9,-31.8 406.4,953 641.7,3022.2 641.7,3022.2 l -658.6,-246.1"
         style="fill:#141519;fill-opacity:1;fill-rule:nonzero;stroke:none"
         id="path46" />
      <path
         d="m 15994.3,11520 c 0,0 -375.9,-108.5 -298.2,-805 76,-680.2 1327,-744.77 1443.8,-47.3 125.7,750.4 -483.1,1148.1 -1145.6,852.3"
         style="fill:#141519;fill-opacity:1;fill-rule:nonzero;stroke:none"
         id="path48" />
      <path
         d="m 16522.5,15178.8 h 753.8 c -34.2,109.8 -105.2,393.9 4.7,587.2 l -761.7,500.1 c 0,0 135.4,-839.2 3.2,-1087.3"
         style="fill:#f69575;fill-opacity:1;fill-rule:nonzero;stroke:none"
         id="path50" />
      <path
         d="m 17222.3,15508.4 c -2.2,84 11.6,174.8 58.7,257.6 l -761.7,500.1 c 0,0 55.2,-342 60.8,-653.9 275,-87.5 388.2,-121.3 642.2,-103.8"
         style="fill:#e27462;fill-opacity:1;fill-rule:nonzero;stroke:none"
         id="path52" />
      <path
         d="m 16004.6,15113.7 c -339.4,-165.9 -150.8,-564.6 -150.8,-564.6 l 458.7,-1669.1 c 0,0 428.4,-175.1 1180.3,-87.4 104.5,149.5 319,775.6 391,1253.7 59.2,393.7 243.1,781.7 42.8,1001.3 -76.8,84.2 -661.9,168.1 -664.9,181.9 h -704.2 l -552.9,-115.8"
         style="fill:#f69575;fill-opacity:1;fill-rule:nonzero;stroke:none"
         id="path54" />
      <path
         d="m 17398.2,15697.6 45.6,111.2 114.5,328.1 c 16.2,52.3 26.2,124.2 10.6,176.9 -18.6,63.1 -30.3,165.2 -1.4,277.2 77.5,300 -49.1,465.1 -49.1,465.1 -162.7,287.7 -580.4,307.6 -580.4,307.6 -517.6,-0.6 -585.1,-498.3 -585.1,-498.3 -100,-328.5 151.3,-618.1 151.7,-618.6 31.8,-36.6 32.5,-93.4 46.5,-137.5 15,-47 38.9,-91.4 69.4,-130.1 68.4,-86.9 159,-171.5 253.8,-226 89.9,-51.7 266.2,-109 393.2,-114.1 52.8,-2.1 104.5,-5.3 130.7,58.5"
         style="fill:#f69575;fill-opacity:1;fill-rule:nonzero;stroke:none"
         id="path56" />
      <path
         d="m 16552.7,16051.2 c 9.3,235.9 14.4,221.1 14.4,221.1 9.1,68.6 136.6,-86.7 138.4,3.1 8.1,411.4 167.3,599.4 227.3,628 162.8,77.7 331.3,93.9 462.6,63.6 206,-47.4 183.9,-323.6 183.9,-323.6 228.4,1003.5 -917.1,737.3 -917.1,737.3 -557.2,-116.4 -526.8,-637.5 -526.8,-637.5 -95.7,-552.9 435.9,-901.3 435.9,-901.3 l -18.6,209.3"
         style="fill:#2451aa;fill-opacity:1;fill-rule:nonzero;stroke:none"
         id="path58" />
      <path
         d="m 16592.8,16129.6 c -19.2,-13.3 -43.3,-20.2 -72.8,-18.2 -79.8,5.2 -142.5,83.4 -139.7,174.5 2.7,91 69.6,160.6 149.5,155.4 37.9,-2.5 71.7,-21.4 96.7,-50.2 36.4,-42.2 33.8,-116.3 22.1,-166.9 -9.3,-40.4 -27.2,-74.7 -55.8,-94.6"
         style="fill:#f7906e;fill-opacity:1;fill-rule:nonzero;stroke:none"
         id="path60" />
      <path
         d="m 16557.7,16355 c -2.2,48 -101.2,7.3 -88,-20.4 7.8,-15.9 24.1,-28.2 36.8,-39.6 17.5,-15.8 25.8,-29.9 27,-53.7 0.3,-2.8 0.4,-11.1 -2.5,-12.9 -12.9,-8 -51.6,40.7 -60,51 -16.7,20.2 -17.4,53.4 -7.7,76.9 10.2,25 27.6,36.2 54.7,33.1 21.7,-2.4 43.8,-5 41.1,-31.9 -0.1,-0.6 -1.2,-4.9 -1.4,-2.5 v 0"
         style="fill:#eb7963;fill-opacity:1;fill-rule:nonzero;stroke:none"
         id="path62" />
      <path
         d="m 16524.2,16306.9 c 10.7,9.6 19.9,0.7 29.7,-7.1 9.2,-7.6 14,-17.7 15.9,-29.1 4.3,-25.1 -0.7,-58.1 -16.1,-79.1 -12.4,-16.8 -32.3,-26.6 -53.2,-24.9 -29.1,2.3 -36.5,28.4 -36.3,53.1 0,6.5 0.3,22.1 6.9,25.9 7.3,4.1 11.6,-7 16,-11.8 6.2,-6.5 15.7,-9.5 24.2,-10.6 16.5,-2.3 33.2,5.4 44.2,17.1 2,2.1 3.8,4.6 4.9,7.3 -0.9,-16.2 -1.9,-19.6 -3.1,-10.8 -1,4.2 -2.8,8.1 -5,11.8 -6.1,11.4 -17.1,19.6 -24.1,30.6 -3.4,5.1 -9.3,22.8 -4,27.6 v 0"
         style="fill:#eb7963;fill-opacity:1;fill-rule:nonzero;stroke:none"
         id="path64" />
      <path
         d="m 16595.8,16112.7 c -1.4,-27 -24.5,-47.9 -51.5,-46.4 -27,1.3 -47.7,24.4 -46.4,51.4 1.4,27 24.3,47.9 51.4,46.5 27.1,-1.4 47.8,-24.5 46.5,-51.5"
         style="fill:#ffffff;fill-opacity:1;fill-rule:nonzero;stroke:none"
         id="path66" />
      <path
         d="m 17468.5,15188.6 325.3,-58.4 c 0,0 237.1,-52 245,-254.9 0,0 13.2,-384.5 -196,-1079.7 0,0 -346.2,1066.8 -374.3,1393"
         style="fill:#5ba8cd;fill-opacity:1;fill-rule:nonzero;stroke:none"
         id="path68" />
      <path
         d="m 17385.5,15201.3 146.6,-22.5 c 0,0 284.5,-550 351.7,-1132.5 -72,-478.1 -216.1,-1202 -391,-1253.7 -592.7,-175.3 -1211.4,100.3 -1211.4,100.3 l -283.5,1131.8 c 761.4,296.3 376.6,1166.5 376.6,1166.5 l 160,38.3 672.8,-680.2 178.2,652"
         style="fill:#5ba8cd;fill-opacity:1;fill-rule:nonzero;stroke:none"
         id="path70" />
      <path
         d="m 17686.2,14825.9 c 0,0 297.5,-412 349.3,-624.3 34.1,-139.4 -209.1,-453.6 -405.5,-509.1 -107.3,-30.2 -109.8,1105.6 56.2,1133.4"
         style="fill:#5ba8cd;fill-opacity:1;fill-rule:nonzero;stroke:none"
         id="path72" />
      <path
         d="m 17106,15040 -8.5,-381.7 -140.5,137.4 z"
         style="fill:#4f92b2;fill-opacity:1;fill-rule:nonzero;stroke:none"
         id="path74" />
      <path
         d="m 17106,15048.6 c 0,0 -426.4,174.6 -532.1,348.4 l -199.4,-205.8 517.3,-501.8 214.2,350.6"
         style="fill:#84d7e3;fill-opacity:1;fill-rule:nonzero;stroke:none"
         id="path76" />
      <path
         d="m 17485.6,15029.2 c 0,0 -41.3,159.9 -244,294.9 l 26.5,-551 c 0,0 112.4,281.9 217.5,256.1"
         style="fill:#84d7e3;fill-opacity:1;fill-rule:nonzero;stroke:none"
         id="path78" />
      <path
         d="m 17504,14773.1 -18.4,256.1 c -61.9,15.2 -117.2,-71.5 -162.3,-142.4 l 180.7,-113.7"
         style="fill:#4f92b2;fill-opacity:1;fill-rule:nonzero;stroke:none"
         id="path80" />
      <path
         d="m 16327.3,3628 c 225.4,-52.3 448,8 448,8 l -228,153 c 0,0 -237.9,327.1 -279.3,440.1 -26.4,72.4 -21.4,302.1 -21.4,302.1 h -293 l -10.4,-163.5 -121.1,-242.2 c 0,0 -16.8,-116.7 194,-152.8 0,0 139.5,-176 311.2,-344.7"
         style="fill:#f69575;fill-opacity:1;fill-rule:nonzero;stroke:none"
         id="path82" />
      <path
         d="m 16547.3,3789 c -80.7,-32 -219.8,-33.5 -287.3,43.1 -271.9,308.5 -316.8,535.6 -316.8,535.6 -156.1,-152.3 -125.3,-289 -125.3,-289 l 7.5,-56.2 58.1,-432.8 h 30.1 l 104.1,348.7 183.5,-340 c 481.5,-92.5 605.2,32.2 605.2,32.2 l -259.1,158.4"
         style="fill:#231f20;fill-opacity:1;fill-rule:nonzero;stroke:none"
         id="path84" />
      <path
         d="m 15881.3,7879.1 640.1,-189.4 c 0,0 -220.1,-3070.5 -248.5,-3216.5 0,0 -342.9,-46.2 -342.1,36.8 1.5,200.5 -233.9,1453.4 -256.5,1767.3 -38.8,539.7 -185.5,901.6 207,1601.8"
         style="fill:#141519;fill-opacity:1;fill-rule:nonzero;stroke:none"
         id="path86" />
      <path
         d="m 16168,15130 c -244,6.8 -447.5,-185.5 -454.2,-429.6 -6.8,-244.1 126.1,-873.8 312.1,-715.5 365.4,311.2 547.7,498.4 554.6,742.5 6.8,244.1 -168.4,395.8 -412.5,402.6"
         style="fill:#e68368;fill-opacity:1;fill-rule:nonzero;stroke:none"
         id="path88" />
      <path
         d="m 15851.6,14875.3 423.1,-140.6 76.5,-451.7 c 0,0 -931,-1132 -1234.3,-1289.7 -323.2,-168 -236.5,126.2 -215.4,247.6 0,0 710.8,1480.2 950.1,1634.4"
         style="fill:#e68368;fill-opacity:1;fill-rule:nonzero;stroke:none"
         id="path90" />
      <path
         d="m 14929.3,12955.7 c 0,0 -789.5,393.2 -1298.4,833.7 0,0 -48.1,153.9 86.4,119.6 128.7,-32.9 1403.4,-363.9 1485.2,-469 81.9,-105.2 -273.2,-484.3 -273.2,-484.3"
         style="fill:#e68368;fill-opacity:1;fill-rule:nonzero;stroke:none"
         id="path92" />
      <path
         d="m 13074.7,13894.2 122.4,-56.4 c 0,0 -248.3,52.4 -284.1,159 0,0 -12.5,20.4 28.4,32.1 0,0 198.2,-89.8 296.2,-107.6 0,0 -216,48.9 -346.5,130.5 0,0 -36.4,62 37.5,65.4 -35.4,38.5 16.2,48.9 16.2,48.9 0,0 50.2,2.5 156.4,-14.3 0,0 163.5,-24.7 359,-31.4 0,0 -86.1,146.1 -5.4,189.7 l 145.2,-200.4 121.1,-202 -35.8,-131.8 -248.2,-37.1 c 0,0 -215.2,16.5 -318.6,63.4 0,0 -286.5,154.5 -43.8,92"
         style="fill:#e68368;fill-opacity:1;fill-rule:nonzero;stroke:none"
         id="path94" />
      <path
         d="m 16531.3,14400.3 c -1193.9,-1705.9 -1578.7,-1482.6 -1656.3,-1452.2 -182.4,395 772.8,1825 772.8,1825 153.8,331.8 420,357.1 420,357.1 l 306.7,61 196.8,-250.8 c 0,0 124.4,-264.7 -40,-540.1"
         style="fill:#5ba8cd;fill-opacity:1;fill-rule:nonzero;stroke:none"
         id="path96" />
      <path
         d="m 15219,13541.2 c 0,0 -514.7,220.9 -1451.7,418.5 0,0 -160.8,-160.9 -144.8,-267.8 0,0 1125.9,-763 1291.2,-749.2 0,0 374.8,265.4 305.3,598.5"
         style="fill:#57a1c4;fill-opacity:1;fill-rule:nonzero;stroke:none"
         id="path98" />
      <path
         d="m 15929.2,16739.1 c -49.2,-122.2 9.4,-283 -42.5,-391.7 -52.6,-110.2 -193,-115.8 -245.1,-217.7 -176.8,-346 23.5,-418.2 1.3,-681 -25,-293.6 -329.5,-444.4 -70.9,-751.4 212.9,-252.9 644,-212.5 740.8,122 -7.1,9.6 -7.2,9.5 -0.5,-0.4 501.1,-330 891.5,552.9 290.2,729 220.2,155.9 317.2,489.1 67.1,682 238,164.2 223.1,489.5 -12.7,640.3 -38,24.3 119.1,338 -195.5,365.2 -226.6,19.5 -463.2,-325.2 -532.2,-496.3"
         style="fill:#2451aa;fill-opacity:1;fill-rule:nonzero;stroke:none"
         id="path100" />
      <path
         d="m 17743.1,13434.8 c 0,0 -67.4,-1250.1 436,-1906.7 0,0 -1382,-604.5 -2681,-17.8 121,380.8 93.6,380.3 499.8,1257.5 0,0 203.6,444.4 147.7,667 h 1597.5"
         style="fill:#5ba8cd;fill-opacity:1;fill-rule:nonzero;stroke:none"
         id="path102" />
      <path
         d="m 5192.7,17130.5 c 0,0 -444.61,-0.4 -367.27,505.4 0,0 267.77,-252.9 554.45,-148.2 0,0 21.72,-339.5 -187.18,-357.2"
         style="fill:#932420;fill-opacity:1;fill-rule:nonzero;stroke:none"
         id="path104" />
      <path
         d="m 4387.11,14746 -141.37,-30.8 c 0,0 -386.52,-1663.2 -241.09,-2058 145.47,-394.9 379.18,-4 452.19,31.7 72.93,35.8 719.18,1866 719.18,1866 l -788.91,191.1"
         style="fill:#e68368;fill-opacity:1;fill-rule:nonzero;stroke:none"
         id="path106" />
      <path
         d="m 3900.04,12865.3 254.1,1931.6 c 151.29,508.3 709.81,320.6 709.81,320.6 418.86,-155.3 352.22,-485 352.22,-485 l -573.63,-1984.7 c 0,0 -108.67,-301.3 -506.68,-261.2 0,0 -289.73,69.2 -235.82,478.7"
         style="fill:#0c1b34;fill-opacity:1;fill-rule:nonzero;stroke:none"
         id="path108" />
      <path
         d="m 4584.45,4379.3 c 0,0 -75.04,-292 -167.26,-371.3 -92.19,-79.2 -444.03,-195.7 -444.03,-195.7 l -194.92,-28 c 0,0 -135.47,-97.2 236.41,-199.3 371.8,-102.2 1024.41,206.2 1024.41,206.2 l -147.15,597 -307.46,-8.9"
         style="fill:#281112;fill-opacity:1;fill-rule:nonzero;stroke:none"
         id="path110" />
      <path
         d="m 6545.39,3743.6 c 65.63,102.2 203.2,659.5 203.2,659.5 l 303.79,9.2 190.16,-613.6 c 0,0 30.51,-102.7 -31.6,-141.2 0,0 -378.83,-131.5 -702.42,6.3 0,0 3.43,27.4 36.87,79.8"
         style="fill:#281112;fill-opacity:1;fill-rule:nonzero;stroke:none"
         id="path112" />
      <path
         d="m 4661.91,12206.1 -387.96,2371 c 0,0 -133.64,356.4 133.71,534.5 l 1018.86,479 h 718.6 l 1224.92,-724 -802.93,-2660.5 h -1905.2"
         style="fill:#f69575;fill-opacity:1;fill-rule:nonzero;stroke:none"
         id="path114" />
      <path
         d="m 6567.11,12206.1 c 0,0 220.04,-502.3 273.12,-1657.3 0,0 -1655.97,-519.4 -2175.39,0 l -2.93,1657.3 h 1905.2"
         style="fill:#102444;fill-opacity:1;fill-rule:nonzero;stroke:none"
         id="path116" />
      <path
         d="m 5481.48,10553.9 c -2.81,-387.6 299.03,-704.06 674.18,-706.79 375.24,-2.74 681.72,309.19 684.57,696.79 2.78,387.5 -299.02,703.9 -674.18,706.7 -375.23,2.7 -681.71,-309.3 -684.57,-696.7"
         style="fill:#102444;fill-opacity:1;fill-rule:nonzero;stroke:none"
         id="path118" />
      <path
         d="m 6839.57,10458.4 180.12,-3300.5 c 0,0 -318.87,-418.3 -883.4,53.6 l -612.97,3036 c 0,0 297.54,1020.3 1316.25,210.9"
         style="fill:#102444;fill-opacity:1;fill-rule:nonzero;stroke:none"
         id="path120" />
      <path
         d="m 6879.22,7543.3 c 0,0 310.31,-590.3 259.84,-1555.2 l 50.47,-1804 -512.03,-15.3 -538.16,3033.4 c 0,0 285.07,1018.3 739.88,341.1"
         style="fill:#102444;fill-opacity:1;fill-rule:nonzero;stroke:none"
         id="path122" />
      <path
         d="m 4667.93,10547 c -39.3,-385.6 98.4,-715.44 471.72,-753.48 373.28,-38.13 707.77,243.58 747.11,629.18 39.29,385.6 -231.41,728.9 -604.69,767 -373.28,38.1 -574.8,-257.2 -614.14,-642.7"
         style="fill:#102444;fill-opacity:1;fill-rule:nonzero;stroke:none"
         id="path124" />
      <path
         d="M 5727.46,10039.4 5344.45,7022.6 c 0,0 -677.69,-90.1 -809.72,371.2 0,0 -8.48,2129.44 133.2,3153.2 0,0 918.12,447.2 1059.53,-507.6"
         style="fill:#102444;fill-opacity:1;fill-rule:nonzero;stroke:none"
         id="path126" />
      <path
         d="m 5301.76,7290 c 0,0 122.5,-451.9 9.8,-1180.1 l -278.12,-2037.6 -548.09,38.7 49.38,3282.8 c 0,0 301.6,456.2 767.03,-103.8"
         style="fill:#102444;fill-opacity:1;fill-rule:nonzero;stroke:none"
         id="path128" />
      <path
         d="m 7262.97,14575.1 139.61,-37.3 c 0,0 217.93,-1671.8 54.37,-2059.5 -163.36,-387.7 -317.11,-3.1 -388.36,35.9 -71.29,39.1 -602.57,1906.4 -602.57,1906.4 l 796.95,154.5"
         style="fill:#f69575;fill-opacity:1;fill-rule:nonzero;stroke:none"
         id="path130" />
      <path
         d="m 6887.85,12529.2 -457.73,1969 c 94.49,532.4 601.33,495 601.33,495 444.96,-40.5 466.83,-376 466.83,-376 l 29.45,-2002.5 c 0,0 29.34,-342.3 -228.63,-324.1 0,0 -369.18,57.6 -411.25,238.6"
         style="fill:#0c1b34;fill-opacity:1;fill-rule:nonzero;stroke:none"
         id="path132" />
      <path
         d="m 6148.71,16114.2 v -768 h -812.23 c 0,0 199.77,304.5 99.85,768 h 712.38"
         style="fill:#f69575;fill-opacity:1;fill-rule:nonzero;stroke:none"
         id="path134" />
      <path
         d="m 5736.68,15462 c -73.28,-47.1 -228.75,-147.3 -317.62,-88.7 -23.83,15.8 -34.88,36.5 -38.47,59.6 52.22,121.6 124.06,364.2 55.74,681.3 h 712.38 v -69.6 c -88.94,-224.8 -202.97,-447.8 -412.03,-582.6"
         style="fill:#e27462;fill-opacity:1;fill-rule:nonzero;stroke:none"
         id="path136" />
      <path
         d="m 6168.09,16103.5 c 0,0 138.24,60 294.72,402.1 0,0 339.85,404.6 98.95,863.9 0,0 -142.27,388.4 -831.88,279.7 0,0 -62.03,-1041 438.21,-1545.7"
         style="fill:#f7906e;fill-opacity:1;fill-rule:nonzero;stroke:none"
         id="path138" />
      <path
         d="m 5318.87,15895.8 -46.02,120.3 c 0,0 -126.91,448.1 -126.91,448.2 -15.94,56.3 -16.88,131.8 -6.64,189.7 11.17,62.9 18.28,128.8 1.87,195.3 -80.08,322.2 85.08,505.1 85.08,505.1 181.99,304 629.88,314 629.88,314 554.65,-14.4 613.75,-549.4 613.75,-549.4 98.17,-354.4 -178.59,-657.9 -179.18,-658.6 -22.11,-24.2 -7.69,-141.3 -13.75,-174.8 -25.97,-142.9 -160.11,-233.6 -279.29,-296.7 -131.06,-69.2 -289.73,-143.3 -437.7,-160.3 -56.09,-6.6 -214.76,-1.9 -241.09,67.2"
         style="fill:#f69575;fill-opacity:1;fill-rule:nonzero;stroke:none"
         id="path140" />
      <path
         d="m 6698.98,12270.5 c -1.68,-78.9 118.29,-905.3 67.9,-915.9 -0.36,-0.1 -1370.98,-316 -2102.04,0 l -2.93,851.5 -387.96,2371 c 0,0 -133.64,356.4 133.71,534.5 l 1018.86,479 -68.82,-206.6 147.38,-419 640.04,625.6 1224.92,-724 c -68.48,-226.9 -136.49,-453.8 -204.96,-680.6 -126.33,-418.2 -249.14,-837.6 -379.26,-1254.6 0,0 -107.66,-452.3 -86.84,-660.9"
         style="fill:#ffffff;fill-opacity:1;fill-rule:nonzero;stroke:none"
         id="path142" />
      <path
         d="m 5593.4,15441.4 8.55,-381.7 140.59,137.5 z"
         style="fill:#a7c9c4;fill-opacity:1;fill-rule:nonzero;stroke:none"
         id="path144" />
      <path
         d="m 5414.45,14825.9 c 0,-30.1 24.38,-54.5 54.5,-54.5 30,0 54.37,24.4 54.37,54.5 0,30 -24.37,54.5 -54.37,54.5 -30.12,0 -54.5,-24.5 -54.5,-54.5"
         style="fill:#d1efe4;fill-opacity:1;fill-rule:nonzero;stroke:none"
         id="path146" />
      <path
         d="m 5414.45,13836.8 c 0,-30 24.38,-54.4 54.5,-54.4 30,0 54.37,24.4 54.37,54.4 0,30.2 -24.37,54.5 -54.37,54.5 -30.12,0 -54.5,-24.3 -54.5,-54.5"
         style="fill:#d1efe4;fill-opacity:1;fill-rule:nonzero;stroke:none"
         id="path148" />
      <path
         d="m 5414.45,12847.9 c 0,-30.2 24.38,-54.6 54.5,-54.6 30,0 54.37,24.4 54.37,54.6 0,30 -24.37,54.4 -54.37,54.4 -30.12,0 -54.5,-24.4 -54.5,-54.4"
         style="fill:#d1efe4;fill-opacity:1;fill-rule:nonzero;stroke:none"
         id="path150" />
      <path
         d="m 5414.45,11858.8 c 0,-30 24.38,-54.5 54.5,-54.5 30,0 54.37,24.5 54.37,54.5 0,30.1 -24.37,54.4 -54.37,54.4 -30.12,0 -54.5,-24.3 -54.5,-54.4"
         style="fill:#d1efe4;fill-opacity:1;fill-rule:nonzero;stroke:none"
         id="path152" />
      <path
         d="M 5593.4,15016.2 V 11262.6"
         style="fill:none;stroke:#d1efe4;stroke-width:29.4812;stroke-linecap:butt;stroke-linejoin:miter;stroke-miterlimit:10;stroke-dasharray:none;stroke-opacity:1"
         id="path154" />
      <path
         d="m 4673.2,11276.4 c 0,0 700.16,-328 2132.97,7.2 23.6,5.6 13.67,66.7 13.67,66.7 l -13.67,138 c -6.17,44.2 -30.9,42.1 -30.9,42.1 -0.27,-0.1 -1370.97,-316 -2102.07,0 0,0 -29.49,5.2 -30.66,-39.1 v -172 c 0,0 0,-34.3 30.66,-42.9"
         style="fill:#411c12;fill-opacity:1;fill-rule:nonzero;stroke:none"
         id="path156" />
      <path
         d="m 5384.41,11172.3 c 0,-21.8 17.39,-39.6 38.75,-39.6 h 278.83 c 21.29,0 38.64,17.8 38.64,39.6 v 200.8 c 0,21.9 -17.35,39.6 -38.64,39.6 h -278.83 c -21.36,0 -38.75,-17.7 -38.75,-39.6 z"
         style="fill:none;stroke:#bdbcbc;stroke-width:48.2309;stroke-linecap:butt;stroke-linejoin:miter;stroke-miterlimit:10;stroke-dasharray:none;stroke-opacity:1"
         id="path158" />
      <path
         d="M 5740.63,11285.4 H 5593.01"
         style="fill:none;stroke:#bdbcbc;stroke-width:48.2309;stroke-linecap:butt;stroke-linejoin:miter;stroke-miterlimit:10;stroke-dasharray:none;stroke-opacity:1"
         id="path160" />
      <path
         d="m 5593.4,15450 c 0,0 449.53,174.6 555.31,348.4 l 132.77,-253.1 -473.78,-454.4 -214.3,350.5"
         style="fill:#c2eae4;fill-opacity:1;fill-rule:nonzero;stroke:none"
         id="path162" />
      <path
         d="m 5208.55,17331.3 c 20.2,146.4 497.11,68.2 621.96,45.4 75.08,-13.8 163.2,-36.7 204.1,-110.6 15.08,-27.2 75.35,-217.9 1.17,-313.4 65.55,-205.2 80.98,-364 80.98,-364 l 37.89,-2.1 c 74.61,-192.3 89.22,-423.5 89.22,-423.5 0,0 278.2,120 471.36,627.8 195.59,646.8 -285.11,931.7 -285.11,931.7 -440.86,191.3 -880.86,139 -880.86,139 0,0 -443.48,-40.5 -543.67,224.1 0,0 -280.9,-607.5 202.96,-754.4"
         style="fill:#932420;fill-opacity:1;fill-rule:nonzero;stroke:none"
         id="path164" />
      <path
         d="m 6207.66,16408.2 c 19.61,-16.6 45.43,-26.9 78.04,-27.9 88.44,-2.8 165.55,76.5 172.35,177 6.79,100.3 -59.26,184 -147.62,186.8 -41.84,1.3 -81.33,-15.8 -111.76,-44.9 -44.41,-42.4 -49.61,-124.2 -42.26,-181.1 5.97,-45.4 21.79,-85 51.25,-109.9"
         style="fill:#f69575;fill-opacity:1;fill-rule:nonzero;stroke:none"
         id="path166" />
      <path
         d="m 6270.43,16652.2 c 7.62,52.5 111.99,-2.9 94.49,-31.8 -10.15,-16.8 -29.45,-28.3 -44.69,-39.7 -20.89,-15.6 -31.44,-30 -35.46,-56.1 -0.59,-3 -1.53,-12.2 1.4,-14.5 13.36,-10.3 61.06,39.3 71.53,49.6 20.46,20.5 24.88,56.9 16.68,83.9 -8.72,28.5 -26.49,42.7 -56.76,42.2 -23.99,-0.2 -48.52,-0.8 -48.44,-30.6 0,-0.7 0.82,-5.7 1.25,-3 v 0"
         style="fill:#eb7963;fill-opacity:1;fill-rule:nonzero;stroke:none"
         id="path168" />
      <path
         d="m 6301.95,16595.8 c -10.47,11.7 -21.56,3 -33.36,-4.7 -10.82,-7.2 -17.26,-17.9 -20.54,-30.3 -7.39,-27.1 -5.35,-64 9.22,-88.6 11.83,-20 32.61,-32.8 55.93,-33.3 32.19,-0.4 42.97,27.5 45.59,54.7 0.66,7.2 1.99,24.5 -4.96,29.2 -7.35,5.1 -13.48,-6.4 -18.87,-11.4 -7.46,-6.5 -18.08,-8.5 -27.66,-8.9 -18.43,-0.8 -35.85,9.3 -46.83,23.5 -1.88,2.5 -3.52,5.5 -4.45,8.5 -0.75,-17.8 -0.08,-21.9 2.26,-12.1 1.68,4.5 3.87,8.5 6.72,12.3 7.93,12 20.94,19.8 29.73,31.1 4.29,5.3 12.5,24 7.22,30 v 0"
         style="fill:#eb7963;fill-opacity:1;fill-rule:nonzero;stroke:none"
         id="path170" />
      <path
         d="m 6348.63,15470.2 -544.88,-1913.9 80.9,-3477.4 c 0,0 934.96,-69.7 1304.88,265 l -349.22,2152.7 529.73,2370 -1021.41,603.6"
         style="fill:#0c1b34;fill-opacity:1;fill-rule:nonzero;stroke:none"
         id="path172" />
      <path
         d="m 5141.91,15456.8 -620.43,-291.6 c 0,0 -353.16,-93.3 -281.01,-459.1 l 204.14,-2026.8 -338.24,-2335.4 c 0,0 290.19,-348.35 867.97,-143.7 l 254.41,3407.8 -86.84,1848.8"
         style="fill:#0c1b34;fill-opacity:1;fill-rule:nonzero;stroke:none"
         id="path174" />
      <path
         d="m 5213.91,15430.6 c 0,0 41.32,160 243.94,295 l -26.48,-551.1 c 0,0 -112.5,281.9 -217.46,256.1"
         style="fill:#c2eae4;fill-opacity:1;fill-rule:nonzero;stroke:none"
         id="path176" />
      <path
         d="m 5195.47,15174.5 18.44,256.1 c 61.87,15.2 117.18,-71.4 162.22,-142.4 l -180.66,-113.7"
         style="fill:#a7c9c4;fill-opacity:1;fill-rule:nonzero;stroke:none"
         id="path178" />
      <path
         d="m 5637.7,15303.5 16.6,30.9 112.97,-173.4 -97.15,-34.6 -32.42,177.1"
         style="fill:#d82930;fill-opacity:1;fill-rule:nonzero;stroke:none"
         id="path180" />
      <path
         d="m 5376.13,15288.2 -31.68,48.5 c 0,0 -120.74,-101.4 6.02,-210.3 0,0 0,89.7 25.66,161.8"
         style="fill:#d82930;fill-opacity:1;fill-rule:nonzero;stroke:none"
         id="path182" />
      <path
         d="m 5637.7,15303.5 c 0,0 -95.82,-85.2 -261.57,-15.3 -36.21,-46.1 -36.13,-104.8 -25.66,-161.8 l 85.86,-177.1 h 119.96 l 113.83,177.1 c 0,0 11.76,39 -32.42,177.1"
         style="fill:#d82930;fill-opacity:1;fill-rule:nonzero;stroke:none"
         id="path184" />
      <path
         d="m 5556.29,14949.3 96.8,-2533.3 -202.19,-393.6 -165.04,391.5 150.47,2535.4 h 119.96"
         style="fill:#a61e23;fill-opacity:1;fill-rule:nonzero;stroke:none"
         id="path186" />
      <path
         d="m 6226.17,13343.8 249.06,196.8 c 0,0 375.04,55 562.35,31.3 0,0 61.83,-86.1 -411.13,-99.3 0,0 331.71,-105.9 438.28,-184.8 0,0 17.03,-98.1 -286.29,44.4 l -138.05,10.2 320.9,-160.2 c 0,0 -12.5,-61.1 -304.73,18.3 l -293.08,-32.1 -137.31,175.4"
         style="fill:#f69575;fill-opacity:1;fill-rule:nonzero;stroke:none"
         id="path188" />
      <path
         d="m 4631.05,13307.3 1605.16,191.9 c 80.31,-97.9 157.62,-276 123.24,-462.3 l -2050.39,-650.3 c 0,0 -541.72,-96 -398.86,556.3 0,0 228.86,332.7 720.85,364.4"
         style="fill:#0b192f;fill-opacity:1;fill-rule:nonzero;stroke:none"
         id="path190" />
      <path
         d="m 4631.05,13307.3 c 0,0 288.44,-155.5 396.61,-167.9 l 167.81,289.7 -229.26,148.7 -157.19,36.2 c 0,0 -258.63,66.7 -326.75,-288.1 l 148.78,-18.6"
         style="fill:#f69575;fill-opacity:1;fill-rule:nonzero;stroke:none"
         id="path192" />
      <path
         d="m 7500.9,12745.6 c 96.91,-586.5 -329.61,-438.4 -329.61,-438.4 l -2175,782.8 c 61.29,337 199.18,389.8 199.18,389.8 l 1860.27,-355 c 0,0 350,-110 445.16,-379.2"
         style="fill:#112749;fill-opacity:1;fill-rule:nonzero;stroke:none"
         id="path194" />
      <path
         d="m 8629.92,16226.1 c 0,0 259.22,-239 231.45,-1015.4 v -2349.1 c 0,0 15.35,-240.6 214.68,-399.8 0,0 -1703.16,-500.4 -1848.51,263.3 v 2436.6 c 0,0 -79.06,1025.2 315.7,1209.4 0,0 698.64,287.9 1086.68,-145"
         style="fill:#31110d;fill-opacity:1;fill-rule:nonzero;stroke:none"
         id="path196" />
      <path
         d="m 8819.73,14212 c 352.73,-168.8 164.14,-567.5 164.14,-567.5 l -458.64,-1668.9 c 0,0 -428.47,-175.2 -1180.35,-87.5 -104.45,149.4 -319.06,775.5 -390.97,1253.6 -59.18,393.8 -243.13,781.7 -42.78,1001.3 76.8,84.2 661.96,168.2 664.89,182 l 690.74,2.8 552.97,-115.8"
         style="fill:#f69575;fill-opacity:1;fill-rule:nonzero;stroke:none"
         id="path198" />
      <path
         d="m 8311.29,9959.45 c 0,0 -223.01,-1846.35 -935.74,-2892.65 0,0 -332.39,-558.6 -737.35,-133.7 0,0 -64.88,3006.67 442.11,3936.6 0,0 1448.75,71.6 1230.98,-910.25"
         style="fill:#e68368;fill-opacity:1;fill-rule:nonzero;stroke:none"
         id="path200" />
      <path
         d="m 7265,14274.2 c -244.1,6.8 -568.36,-234.2 -575.16,-478.4 -6.79,-244 126.25,-873.8 312.11,-715.4 365.47,311.2 547.82,498.4 554.61,742.5 6.88,244.1 -47.46,444.5 -291.56,451.3"
         style="fill:#e68368;fill-opacity:1;fill-rule:nonzero;stroke:none"
         id="path202" />
      <path
         d="m 6817.77,13899.8 445.55,19.6 232.54,-394.6 c 0,0 -465.86,-1389.7 -692.93,-1645.2 -241.95,-272.3 -265.94,33.5 -289.57,154.5 0,0 135.9,1636.3 304.41,1865.7"
         style="fill:#e68368;fill-opacity:1;fill-rule:nonzero;stroke:none"
         id="path204" />
      <path
         d="m 6836.13,2779.9 c -228.12,-38.8 -446.83,34.6 -446.83,34.6 l 236.64,139.3 c 0,0 256.95,312.4 304.92,422.8 30.74,70.7 39.37,300.2 39.37,300.2 l 292.5,-17.3 0.67,-163.9 106.48,-248.9 c 0,0 9.89,-117.4 -202.81,-141 0,0 -149.61,-167.5 -330.94,-325.8"
         style="fill:#e68368;fill-opacity:1;fill-rule:nonzero;stroke:none"
         id="path206" />
      <path
         d="m 6625.94,2953.8 c 78.75,-36.8 217.46,-46.5 289.41,26 289.81,291.8 348.05,515.8 348.05,515.8 146.8,-161.2 107.97,-295.8 107.97,-295.8 l -10.9,-55.7 -83.56,-428.6 -30.11,1.8 -83.25,354.1 L 6960.2,2743 c -486.22,-63.8 -602.15,68 -602.15,68 l 267.89,142.8"
         style="fill:#141519;fill-opacity:1;fill-rule:nonzero;stroke:none"
         id="path208" />
      <path
         d="m 6638.2,6933.1 c 0,0 300.04,-3111 332.03,-3256.3 0,0 295.36,-100.3 292.5,-17.3 -6.52,200.4 284.69,1482.3 303.79,1796.6 30.43,504.5 -51.64,840.3 -314.1,1518.5 0,0 -482.85,334.8 -614.22,-41.5"
         style="fill:#e68368;fill-opacity:1;fill-rule:nonzero;stroke:none"
         id="path210" />
      <path
         d="m 7631.84,11997.2 c -56.02,10.1 -286.96,-109.1 -286.96,-109.1 0,0 -288.55,-927.2 -300.86,-1068.2 -12.5,-140.8 957.07,-870.68 2040.16,-455.1 0,0 -501.45,1305.6 -532.15,1627.1 -30.66,321.6 -920.19,5.3 -920.19,5.3"
         style="fill:#e88767;fill-opacity:1;fill-rule:nonzero;stroke:none"
         id="path212" />
      <path
         d="m 7344.88,11888.1 c 0,0 -276.56,-836.2 -300.86,-1068.2 -86.36,-821.38 1025.08,-1165.84 2108.17,-750.3 0,0 70.23,1129.3 -600.16,1922.3 0,0 -178.05,-162.4 -1207.15,-103.8"
         style="fill:#161b21;fill-opacity:1;fill-rule:nonzero;stroke:none"
         id="path214" />
      <path
         d="m 8368.95,9460.2 783.24,430.03 c 0,0 -127.11,-2478.13 -226.33,-3174.23 0,0 -438.2,-122 -573.91,-31.9 -406.25,953 -641.56,3022.19 -641.56,3022.19 l 658.56,-246.09"
         style="fill:#f69575;fill-opacity:1;fill-rule:nonzero;stroke:none"
         id="path216" />
      <path
         d="m 8843.44,10615.4 c 0,0 375.9,-108.5 298.08,-804.89 -75.93,-680.21 -1326.95,-744.81 -1443.71,-47.39 -125.74,750.48 483.13,1148.18 1145.63,852.28"
         style="fill:#f69575;fill-opacity:1;fill-rule:nonzero;stroke:none"
         id="path218" />
      <path
         d="m 8315.23,14274.2 h -753.9 c 34.3,109.8 105.31,393.9 -4.53,587.3 l 761.6,500.1 c 0,0 -135.39,-839.3 -3.17,-1087.4"
         style="fill:#f69575;fill-opacity:1;fill-rule:nonzero;stroke:none"
         id="path220" />
      <path
         d="m 7615.51,14603.8 c 2.07,84.1 -11.76,175 -58.71,257.7 l 761.6,500.1 c 0,0 -55.16,-342 -60.78,-654 -275.04,-87.4 -388.21,-121.3 -642.11,-103.8"
         style="fill:#e27462;fill-opacity:1;fill-rule:nonzero;stroke:none"
         id="path222" />
      <path
         d="m 7439.61,14793 -45.7,111.2 -114.5,328.2 c -16.17,52.2 -26.17,124.2 -10.66,176.8 18.63,63.2 30.35,165.2 1.45,277.2 -77.47,300 49.02,465.1 49.02,465.1 162.89,287.8 580.47,307.6 580.47,307.6 517.65,-0.5 585.19,-498.3 585.19,-498.3 99.85,-328.4 -151.29,-618 -151.79,-618.5 -31.88,-36.6 -32.54,-93.5 -46.53,-137.5 -14.92,-47.1 -38.9,-91.5 -69.33,-130.2 -68.32,-86.9 -159.03,-171.4 -253.83,-225.9 -89.88,-51.8 -266.25,-109 -393.28,-114.1 -52.62,-2.1 -104.34,-5.4 -130.51,58.4"
         style="fill:#f69575;fill-opacity:1;fill-rule:nonzero;stroke:none"
         id="path224" />
      <path
         d="m 8285.12,15146.6 c -9.3,235.9 -14.57,221.2 -14.57,221.2 -8.99,68.6 -136.57,-86.8 -138.4,3.1 -8.05,411.4 -167.27,599.3 -227.19,628 -162.89,77.7 -331.29,93.9 -462.66,63.6 -205.89,-47.4 -183.94,-323.6 -183.94,-323.6 -228.44,1003.4 917.11,737.3 917.11,737.3 557.23,-116.5 526.87,-637.6 526.87,-637.6 95.67,-552.9 -435.89,-901.2 -435.89,-901.2 l 18.67,209.2"
         style="fill:#31110d;fill-opacity:1;fill-rule:nonzero;stroke:none"
         id="path226" />
      <path
         d="m 8244.88,15225 c 19.22,-13.2 43.25,-20.2 72.85,-18.1 79.89,5.1 142.43,83.4 139.65,174.5 -2.73,90.9 -69.57,160.5 -149.37,155.4 -37.89,-2.5 -71.76,-21.4 -96.72,-50.3 -36.41,-42.1 -33.79,-116.3 -22.23,-166.8 9.3,-40.4 27.15,-74.7 55.82,-94.7"
         style="fill:#f7906e;fill-opacity:1;fill-rule:nonzero;stroke:none"
         id="path228" />
      <path
         d="m 8280,15450.4 c 2.19,48 101.29,7.3 87.97,-20.4 -7.66,-15.9 -24.06,-28.1 -36.72,-39.6 -17.54,-15.7 -25.82,-29.8 -27.11,-53.7 -0.23,-2.7 -0.39,-11.1 2.62,-12.9 12.89,-8 51.56,40.7 60,51 16.72,20.3 17.46,53.4 7.65,77 -10.23,25 -27.57,36.1 -54.76,33 -21.68,-2.3 -43.67,-5 -41.06,-31.9 0.08,-0.5 1.25,-4.9 1.41,-2.5 v 0"
         style="fill:#eb7963;fill-opacity:1;fill-rule:nonzero;stroke:none"
         id="path230" />
      <path
         d="m 8313.48,15402.4 c -10.67,9.5 -19.89,0.7 -29.69,-7.2 -9.22,-7.5 -14.02,-17.6 -15.94,-29 -4.18,-25.1 0.86,-58.2 16.17,-79.2 12.35,-16.8 32.19,-26.5 53.17,-24.8 29.18,2.2 36.44,28.4 36.29,53 0,6.6 -0.32,22.2 -6.88,26 -7.3,4.1 -11.64,-7.1 -16.01,-11.9 -6.21,-6.5 -15.67,-9.4 -24.22,-10.6 -16.53,-2.2 -33.21,5.4 -44.18,17.1 -1.92,2.1 -3.87,4.6 -4.85,7.3 0.82,-16.1 1.84,-19.6 3.09,-10.7 1.02,4.2 2.77,8 4.96,11.7 6.09,11.5 17.07,19.7 24.14,30.7 3.36,5 9.22,22.7 3.95,27.6 v 0"
         style="fill:#eb7963;fill-opacity:1;fill-rule:nonzero;stroke:none"
         id="path232" />
      <path
         d="m 8241.95,15208.2 c 1.33,-27 24.38,-47.9 51.49,-46.5 26.99,1.4 47.77,24.4 46.33,51.4 -1.33,27.1 -24.3,47.9 -51.37,46.5 -26.99,-1.4 -47.85,-24.4 -46.45,-51.4"
         style="fill:#ffffff;fill-opacity:1;fill-rule:nonzero;stroke:none"
         id="path234" />
      <path
         d="m 7452.19,14296.8 -146.6,-22.6 c 0,0 -284.46,-549.9 -351.68,-1132.5 71.91,-478.1 216.09,-1201.9 390.97,-1253.6 592.7,-175.3 1211.45,100.2 1211.45,100.2 l 283.44,1131.8 c -761.37,296.3 -376.61,1166.5 -376.61,1166.5 l -159.84,38.4 c 0,0 -565.62,-414.7 -851.13,-28.2"
         style="fill:#3bbec5;fill-opacity:1;fill-rule:nonzero;stroke:none"
         id="path236" />
      <path
         d="m 7151.48,13921.4 c 0,0 -297.42,-412.1 -349.33,-624.3 -34.1,-139.5 209.18,-453.7 405.51,-509.1 107.3,-30.3 109.8,1105.6 -56.18,1133.4"
         style="fill:#3bbec5;fill-opacity:1;fill-rule:nonzero;stroke:none"
         id="path238" />
      <path
         d="m 8510.39,2723.4 c -225.35,-52.3 -448.01,8 -448.01,8 l 228.01,153.1 c 0,0 237.93,327.1 279.26,440 26.48,72.5 21.44,302.1 21.44,302.1 h 293.09 l 10.39,-163.5 121.06,-242.1 c 0,0 16.83,-116.7 -194.07,-152.9 0,0 -139.49,-176 -311.17,-344.7"
         style="fill:#f69575;fill-opacity:1;fill-rule:nonzero;stroke:none"
         id="path240" />
      <path
         d="m 8290.39,2884.5 c 80.74,-32.1 219.73,-33.6 287.31,43 271.87,308.5 316.87,535.6 316.87,535.6 156.02,-152.2 125.23,-288.9 125.23,-288.9 l -7.53,-56.2 -58.01,-432.8 h -30.2 l -104.02,348.6 -183.59,-339.9 c -481.53,-92.6 -605.08,32.2 -605.08,32.2 l 259.02,158.4"
         style="fill:#141519;fill-opacity:1;fill-rule:nonzero;stroke:none"
         id="path242" />
      <path
         d="m 8956.37,6974.6 -640.04,-189.5 c 0,0 246.37,-3012.5 274.76,-3158.5 0,0 293.83,-83 293.09,0 -1.6,200.5 256.6,1432.2 279.14,1746.2 38.91,539.6 185.55,901.5 -206.95,1601.8"
         style="fill:#f69575;fill-opacity:1;fill-rule:nonzero;stroke:none"
         id="path244" />
      <path
         d="m 9140.55,10388.4 126.4,-2978.9 c 0,0 -1622.61,-375.5 -2749.29,139.5 0,0 103,2548.3 561.13,3393.5 0,0 1969.84,182.2 2061.76,-554.1"
         style="fill:#161b21;fill-opacity:1;fill-rule:nonzero;stroke:none"
         id="path246" />
      <path
         d="m 8399.96,14037.5 c -137.66,-201.6 -60.19,-397.1 51.25,-610 113.24,-216.4 803.32,-366 770.55,-124.1 -64.38,475.7 -113.01,746.6 -324.92,867.9 -179.73,102.9 -359.3,68 -496.88,-133.8"
         style="fill:#f69575;fill-opacity:1;fill-rule:nonzero;stroke:none"
         id="path248" />
      <path
         d="m 8378.44,13637.9 347.15,280.1 421.32,-179.7 c 0,0 449.22,-1395.1 418.05,-1735.6 -33.28,-362.7 -233.98,-130.8 -324.76,-47.3 0,0 -861.25,1397.8 -861.76,1682.5"
         style="fill:#f69575;fill-opacity:1;fill-rule:nonzero;stroke:none"
         id="path250" />
      <path
         d="m 9556.76,12030.4 c 0,0 54.8,-981.9 -95.24,-1638.1 0,0 -189.96,-112.9 -205.15,25 -25.47,234.3 -222.23,1387.9 -172.19,1797.1 16.09,132.1 472.58,-184 472.58,-184"
         style="fill:#f69575;fill-opacity:1;fill-rule:nonzero;stroke:none"
         id="path252" />
      <path
         d="m 9373.01,9588.79 c 0,0 -51.17,-25 -16.6,94.88 l 40.47,187.11 c 0,0 -40.67,-311.72 -147.19,-370.98 0,0 -19.14,-17.42 -39.73,23.91 0,0 90.35,265.63 89.84,373.63 0,0 -23.47,-324.84 -143.59,-418.2 0,0 -60.86,-25.84 -60.04,38.2 0,0 92.23,229.85 100.71,412.7 0,0 -71.76,-317.42 -138.17,-405.43 0,0 -67.66,-14.06 -53.16,61.29 0,0 51.64,190.23 90.9,409.26 0,0 -123.99,-104.93 -218.4,-55.9 l 280.27,408.94 98.05,69.1 205.15,-25 23.79,-242.7 c 0,0 14.61,-254.17 -60.86,-492.69 0,0 -19.76,-60.54 -51.44,-68.12"
         style="fill:#f69575;fill-opacity:1;fill-rule:nonzero;stroke:none"
         id="path254" />
      <path
         d="m 7089.02,12871.6 608.52,-1339.3 -1238.75,114.4 -558.48,1314.3 1188.71,-89.4"
         style="fill:#d9edf4;fill-opacity:1;fill-rule:nonzero;stroke:none"
         id="path256" />
      <path
         d="m 6096.56,12546.3 c 23.56,-43.4 48.79,-82.7 86.76,-112.7 43.2,-34.3 115.43,-23.9 143.28,-48.9 48.44,-43.4 14.06,-161 -88.2,-278.8 -88.67,-102.3 -154.06,31.5 -183.99,113.9 -44.1,121.6 -41.17,175.9 9.14,274.1 l 33.01,52.4"
         style="fill:#e68368;fill-opacity:1;fill-rule:nonzero;stroke:none"
         id="path258" />
      <path
         d="m 15149.6,14030.6 44.1,1655.1 c 31.4,386.9 -120.5,527.3 -120.5,527.3 -645.5,242.1 -971.2,-84.8 -971.2,-84.8 v -1690.9 c 280.5,-261.9 678.5,-435.4 1047.6,-406.7"
         style="fill:#c39a6f;fill-opacity:1;fill-rule:nonzero;stroke:none"
         id="path260" />
      <path
         d="m 13404.4,14209.1 c -339.4,-165.9 -150.7,-564.6 -150.7,-564.6 l 458.6,-1668.9 c 0,0 428.4,-175.2 1180.3,-87.5 104.5,149.4 319.1,775.5 391,1253.6 59.2,393.8 243.1,781.7 42.8,1001.3 -76.8,84.2 -661.9,168.2 -664.9,182 h -704.2 l -552.9,-115.9"
         style="fill:#f69575;fill-opacity:1;fill-rule:nonzero;stroke:none"
         id="path262" />
      <path
         d="m 14959.4,15685.7 -44,-1647.9 c 78.5,-10.7 157,-13.2 234.2,-7.2 l 44.1,1655.1 c 31.4,386.9 -120.5,527.3 -120.5,527.3 -230,86.3 -419.1,100.1 -567.6,82.4 99.5,-11 210.6,-36.4 333.3,-82.4 0,0 151.8,-140.4 120.5,-527.3"
         style="fill:#d7ab7b;fill-opacity:1;fill-rule:nonzero;stroke:none"
         id="path264" />
      <path
         d="m 14468.5,11957.9 h -3.5 c 2.2,0 3.5,0 3.5,0"
         style="fill:#643628;fill-opacity:1;fill-rule:nonzero;stroke:none"
         id="path266" />
      <path
         d="m 15273.2,14175.6 c 218.1,-110 252.7,-363.7 216.7,-594.3 -37.6,-241.2 -469.2,-747.8 -575.1,-527.7 -208.1,432.5 -305.4,760.5 -212.8,986.4 92.6,226 221.8,311.7 571.2,135.6"
         style="fill:#e68368;fill-opacity:1;fill-rule:nonzero;stroke:none"
         id="path268" />
      <path
         d="m 15497.7,13816.8 -506.8,23 -252.9,-382 c 0,0 392.9,-1412 606.5,-1679 227.4,-284.5 267.2,19.6 297.1,139.2 0,0 -64.8,1578.9 -143.9,1898.8"
         style="fill:#e68368;fill-opacity:1;fill-rule:nonzero;stroke:none"
         id="path270" />
      <path
         d="m 15617.8,9670.9 31.1,-209.7 -122.1,-278.1 c 0,0 51.6,-46.2 108.7,45 l 108.8,229.3 -15.3,236.27 -111.2,-22.77"
         style="fill:#cb735b;fill-opacity:1;fill-rule:nonzero;stroke:none"
         id="path272" />
      <path
         d="m 15673.7,9600.04 42.7,-207.64 -106.2,-284.6 c 0,0 54,-43.2 105.9,51.1 l 95.8,235.1 -28.5,234.91 -109.7,-28.87"
         style="fill:#cb735b;fill-opacity:1;fill-rule:nonzero;stroke:none"
         id="path274" />
      <path
         d="m 15908.1,9553.52 -38,243.78 -41.8,302.6 -189.3,26.2 -65.1,-319.07 -15.7,-167.46 -19.1,-228.77 -10.1,-73.9 c 0,0 59.2,-19.1 105.4,98.5 l 48.3,215.73 82,-169.61 -69.5,-297.82 c 0,0 17.8,-155.3 64.4,-96.7 l 156.6,417.88 -8.1,48.64"
         style="fill:#e68368;fill-opacity:1;fill-rule:nonzero;stroke:none"
         id="path276" />
      <path
         d="m 15172.2,12122.2 c 0,0 245.3,-1159.8 466.8,-1996.1 0,0 162.7,-193.21 189.3,-26.2 53.2,333.3 -123.2,2139.8 -208.5,2278 -85.1,138.1 -447.6,-255.7 -447.6,-255.7"
         style="fill:#e68368;fill-opacity:1;fill-rule:nonzero;stroke:none"
         id="path278" />
      <path
         d="m 14741,2736.6 c 228.1,-38.9 446.8,34.6 446.8,34.6 l -236.7,139.2 c 0,0 -256.9,312.4 -304.8,422.8 -30.8,70.7 -39.5,300.2 -39.5,300.2 l -292.4,-17.3 -0.7,-163.9 -106.5,-248.9 c 0,0 -9.9,-117.4 202.8,-141.1 0,0 149.6,-167.4 331,-325.6"
         style="fill:#e68368;fill-opacity:1;fill-rule:nonzero;stroke:none"
         id="path280" />
      <path
         d="m 14951.1,2910.4 c -78.7,-36.8 -217.4,-46.5 -289.3,26 -289.8,291.7 -348.1,515.8 -348.1,515.8 -146.8,-161.2 -108,-295.8 -108,-295.8 l 10.9,-55.7 83.6,-428.6 30.1,1.7 83.3,354.2 203.3,-328.4 c 486.2,-63.8 602.2,68.1 602.2,68.1 l -268,142.7"
         style="fill:#cb232f;fill-opacity:1;fill-rule:nonzero;stroke:none"
         id="path282" />
      <path
         d="m 14938.9,6889.8 c 0,0 -300,-3111.2 -332.1,-3256.4 0,0 -295.3,-100.3 -292.4,-17.3 6.5,200.4 -284.7,1482.4 -303.8,1796.6 -30.4,504.5 51.6,840.3 314.1,1518.5 0,0 482.8,334.8 614.2,-41.4"
         style="fill:#e68368;fill-opacity:1;fill-rule:nonzero;stroke:none"
         id="path284" />
      <path
         d="m 13829.9,10082.1 c 0,0 -112,-1856.4 401.4,-3013.6 0,0 226.7,-609.2 701.3,-263.9 0,0 603.5,2946.18 271.6,3952.1 0,0 -1412.4,330.4 -1374.3,-674.6"
         style="fill:#e68368;fill-opacity:1;fill-rule:nonzero;stroke:none"
         id="path286" />
      <path
         d="m 14605.7,11997.2 c 56,10.1 286.9,-109.1 286.9,-109.1 0,0 288.6,-927.2 300.9,-1068.2 12.5,-140.8 -957.1,-870.68 -2040.2,-455.1 0,0 501.5,1305.6 532.2,1627.1 30.7,321.6 920.2,5.3 920.2,5.3"
         style="fill:#e88767;fill-opacity:1;fill-rule:nonzero;stroke:none"
         id="path288" />
      <path
         d="m 14892.6,11888.1 c 0,0 276.6,-836.2 300.9,-1068.2 86.3,-821.38 -1025.1,-1165.84 -2108.1,-750.3 0,0 -70.3,1129.3 600.1,1922.3 0,0 178,-162.4 1207.1,-103.8"
         style="fill:#25335d;fill-opacity:1;fill-rule:nonzero;stroke:none"
         id="path290" />
      <path
         d="m 13868.6,9460.2 -783.2,430.03 c 0,0 127,-2478.13 226.3,-3174.23 0,0 438.1,-122 573.9,-31.9 406.2,953 641.5,3022.19 641.5,3022.19 l -658.5,-246.09"
         style="fill:#f69575;fill-opacity:1;fill-rule:nonzero;stroke:none"
         id="path292" />
      <path
         d="m 13394.1,10615.4 c 0,0 -375.9,-108.5 -298.1,-804.89 75.9,-680.21 1326.9,-744.81 1443.7,-47.39 125.8,750.48 -483.1,1148.18 -1145.6,852.28"
         style="fill:#f69575;fill-opacity:1;fill-rule:nonzero;stroke:none"
         id="path294" />
      <path
         d="m 13922.3,14274.2 h 753.9 c -34.3,109.8 -105.3,393.9 4.5,587.3 l -761.6,500.1 c 0,0 135.4,-839.3 3.2,-1087.4"
         style="fill:#f69575;fill-opacity:1;fill-rule:nonzero;stroke:none"
         id="path296" />
      <path
         d="m 14622,14603.8 c -2.1,84.1 11.8,175 58.7,257.7 l -761.6,500.1 c 0,0 55.2,-342 60.8,-654 275,-87.4 388.2,-121.3 642.1,-103.8"
         style="fill:#e27462;fill-opacity:1;fill-rule:nonzero;stroke:none"
         id="path298" />
      <path
         d="m 14797.9,14793 45.7,111.2 114.5,328.2 c 16.2,52.2 26.2,124.2 10.7,176.8 -18.6,63.2 -30.4,165.2 -1.5,277.2 77.5,300 -49,465.1 -49,465.1 -162.9,287.8 -580.4,307.6 -580.4,307.6 -517.7,-0.5 -585.3,-498.3 -585.3,-498.3 -99.8,-328.4 151.3,-618 151.9,-618.5 31.8,-36.6 32.5,-93.5 46.5,-137.5 14.9,-47.1 38.8,-91.5 69.3,-130.2 68.3,-86.9 159,-171.4 253.8,-225.9 89.9,-51.8 266.3,-109 393.3,-114.1 52.6,-2.1 104.4,-5.4 130.5,58.4"
         style="fill:#f69575;fill-opacity:1;fill-rule:nonzero;stroke:none"
         id="path300" />
      <path
         d="m 13952.4,15146.6 c 9.3,235.9 14.6,221.2 14.6,221.2 8.9,68.6 136.6,-86.8 138.4,3.1 8,411.4 167.2,599.3 227.2,628 162.8,77.7 331.3,93.9 462.6,63.6 205.9,-47.4 183.9,-323.6 183.9,-323.6 228.5,1003.4 -917.1,737.3 -917.1,737.3 -557.2,-116.5 -526.8,-637.6 -526.8,-637.6 -95.7,-552.9 435.9,-901.2 435.9,-901.2 l -18.7,209.2"
         style="fill:#c39a6f;fill-opacity:1;fill-rule:nonzero;stroke:none"
         id="path302" />
      <path
         d="m 13992.6,15225 c -19.2,-13.2 -43.2,-20.2 -72.8,-18.1 -79.9,5.1 -142.5,83.4 -139.7,174.5 2.8,90.9 69.6,160.5 149.4,155.4 37.9,-2.5 71.8,-21.4 96.8,-50.3 36.3,-42.1 33.7,-116.3 22.2,-166.8 -9.4,-40.4 -27.2,-74.7 -55.9,-94.7"
         style="fill:#f7906e;fill-opacity:1;fill-rule:nonzero;stroke:none"
         id="path304" />
      <path
         d="m 13957.5,15450.4 c -2.2,48 -101.2,7.3 -87.9,-20.4 7.6,-15.9 24,-28.1 36.7,-39.6 17.5,-15.7 25.8,-29.8 27.1,-53.7 0.2,-2.7 0.4,-11.1 -2.6,-12.9 -12.9,-8 -51.6,40.7 -60.1,51 -16.6,20.3 -17.4,53.4 -7.6,77 10.2,25 27.6,36.1 54.8,33 21.7,-2.3 43.6,-5 41,-31.9 -0.1,-0.5 -1.2,-4.9 -1.4,-2.5 v 0"
         style="fill:#eb7963;fill-opacity:1;fill-rule:nonzero;stroke:none"
         id="path306" />
      <path
         d="m 13924.1,15402.4 c 10.6,9.5 19.8,0.7 29.7,-7.2 9.2,-7.5 13.9,-17.6 15.8,-29 4.3,-25.1 -0.8,-58.2 -16.1,-79.2 -12.3,-16.8 -32.2,-26.5 -53.1,-24.8 -29.2,2.2 -36.5,28.4 -36.4,53 0,6.6 0.4,22.2 6.9,26 7.3,4.1 11.7,-7.1 16,-11.9 6.2,-6.5 15.7,-9.4 24.2,-10.6 16.6,-2.2 33.2,5.4 44.2,17.1 2,2.1 3.9,4.6 4.9,7.3 -0.9,-16.1 -1.8,-19.6 -3.1,-10.7 -1,4.2 -2.8,8 -5,11.7 -6.1,11.5 -17.1,19.7 -24.1,30.7 -3.4,5 -9.2,22.7 -3.9,27.6 v 0"
         style="fill:#eb7963;fill-opacity:1;fill-rule:nonzero;stroke:none"
         id="path308" />
      <path
         d="m 13995.5,15208.2 c -1.3,-27 -24.3,-47.9 -51.4,-46.5 -27,1.4 -47.8,24.4 -46.4,51.4 1.4,27.1 24.3,47.9 51.4,46.5 27,-1.4 47.9,-24.4 46.4,-51.4"
         style="fill:#ffffff;fill-opacity:1;fill-rule:nonzero;stroke:none"
         id="path310" />
      <path
         d="m 15086,13921.4 c 0,0 297.5,-412.1 349.4,-624.3 34.1,-139.5 -209.2,-453.7 -405.6,-509.1 -107.2,-30.3 -109.8,1105.6 56.2,1133.4"
         style="fill:#5ba8cd;fill-opacity:1;fill-rule:nonzero;stroke:none"
         id="path312" />
      <path
         d="m 15086,13921.4 c 0,0 297.5,-412.1 349.4,-624.3 34.1,-139.5 -209.2,-453.7 -405.6,-509.1 -107.2,-30.3 -109.8,1105.6 56.2,1133.4"
         style="fill:#25335d;fill-opacity:1;fill-rule:nonzero;stroke:none"
         id="path314" />
      <path
         d="m 14785.3,14296.8 169.2,-22.6 c 0,0 270.9,-553.4 338.2,-1135.9 -72,-478.1 -225.2,-1198.5 -400.1,-1250.2 -592.6,-175.3 -1211.4,100.2 -1211.4,100.2 l -283.4,1131.8 c 761.3,296.3 376.5,1166.5 376.5,1166.5 l 159.9,38.4 c 0,0 522.6,-469.7 851.1,-28.2"
         style="fill:#25335d;fill-opacity:1;fill-rule:nonzero;stroke:none"
         id="path316" />
      <path
         d="m 13727.1,2723.4 c 225.4,-52.3 448,8 448,8 l -228,153.1 c 0,0 -237.9,327.1 -279.2,440 -26.5,72.5 -21.5,302.1 -21.5,302.1 h -293.1 l -10.4,-163.5 -121,-242.1 c 0,0 -16.9,-116.7 194.1,-152.9 0,0 139.5,-176 311.1,-344.7"
         style="fill:#f69575;fill-opacity:1;fill-rule:nonzero;stroke:none"
         id="path318" />
      <path
         d="m 13947.1,2884.5 c -80.7,-32.1 -219.7,-33.6 -287.3,43 -271.8,308.5 -316.9,535.6 -316.9,535.6 -155.9,-152.2 -125.2,-288.9 -125.2,-288.9 l 7.5,-56.2 58,-432.8 h 30.2 l 104.1,348.6 183.6,-339.9 c 481.5,-92.6 605,32.2 605,32.2 l -259,158.4"
         style="fill:#cb232f;fill-opacity:1;fill-rule:nonzero;stroke:none"
         id="path320" />
      <path
         d="m 13281.2,6974.6 640,-189.5 c 0,0 -246.4,-3012.5 -274.8,-3158.5 0,0 -293.8,-83 -293.1,0 1.6,200.5 -256.6,1432.2 -279.1,1746.2 -38.9,539.6 -185.5,901.5 207,1601.8"
         style="fill:#f69575;fill-opacity:1;fill-rule:nonzero;stroke:none"
         id="path322" />
      <path
         d="m 13852.9,13854.2 c 15.1,-243.7 -112.2,-483 -356,-498 -243.7,-15.2 -877.6,96.3 -725.6,287.4 298.5,375.9 479.4,564.5 723.1,579.6 243.8,15.2 343.5,-125.2 358.5,-369"
         style="fill:#f69575;fill-opacity:1;fill-rule:nonzero;stroke:none"
         id="path324" />
      <path
         d="m 13667,13499.8 -155,418.2 -454,61 c 0,0 -1099.5,-969 -1246.8,-1277.6 -156.9,-328.7 134.1,-232.1 254.9,-206.7 0,0 1455,760.7 1600.9,1005.1"
         style="fill:#f69575;fill-opacity:1;fill-rule:nonzero;stroke:none"
         id="path326" />
      <path
         d="m 11786.1,12489.9 c 0,0 547.8,-770.7 1058,-1209.7 0,0 219.9,21.9 150.3,141.8 -118.5,203.7 -606,1157.4 -725.8,1361.8 -67.4,114.8 -482.5,-293.9 -482.5,-293.9"
         style="fill:#f69575;fill-opacity:1;fill-rule:nonzero;stroke:none"
         id="path328" />
      <path
         d="m 12994.4,11422 120,2.6 283.4,128.1 c -1.4,-159 14.9,-320.9 14.9,-320.9 143.9,-152.9 230.5,-272.6 230.5,-272.6 56.4,-52 -6.4,-80.9 -6.4,-80.9 -105.7,31.4 -305.2,186.9 -305.2,186.9 99.8,-103.2 290,-250.4 290,-250.4 38.6,-51.1 -25.7,-66.4 -25.7,-66.4 -152,3.8 -327.8,229.4 -327.8,229.4 63.7,-87.2 244.9,-238.3 244.9,-238.3 7.8,-45.5 -17.8,-42.9 -17.8,-42.9 -121,-15.4 -289.5,202.2 -289.5,202.2 l 65.2,-79.9 c 99,-101.3 7.8,-111.9 7.8,-111.9 l -60.1,45 c -180.8,140.2 -249.5,318.7 -249.5,318.7 l -125,209.5 150.3,141.8"
         style="fill:#f69575;fill-opacity:1;fill-rule:nonzero;stroke:none"
         id="path330" />
      <path
         d="m 14735.4,16072.6 -398.1,435.1 c 472.9,160.6 755.7,-318 755.7,-318 l -89.6,-117.1 c 0,0 -170.4,386.5 -268,0"
         style="fill:#d7ab7b;fill-opacity:1;fill-rule:nonzero;stroke:none"
         id="path332" />
      <path
         d="m 15272.3,8668.5 c 67.1,794.7 88.6,1755.3 -118.8,2274 0,0 -1882.6,-123.6 -2061.7,-554.1 0,0 -91,-497.7 -15.4,-1719.9 0,0 1310.6,-314.8 2195.9,0"
         style="fill:#25335d;fill-opacity:1;fill-rule:nonzero;stroke:none"
         id="path334" />
      <path
         d="m 13319.1,14622.1 c 0,-271 529.9,-501.5 879.4,-582.1 -15.3,319 -15.7,559.4 -15.7,559.4 -33.8,611.3 -15.2,837.9 40.3,1260.8 43.3,330.2 282.7,463.2 512.3,212.4 -9.3,10.3 -11.5,45.3 -16.1,59.1 -6.8,21.2 -15,41.8 -24.6,61.9 -80.3,168.6 -243.6,288.3 -420.8,339.3 -63.5,18.4 -125.4,23.8 -190.9,16.7 -218.3,-23.8 -488.4,-177.5 -598,-368.9 -107.4,-187.7 -131.5,-424.1 -149,-635.7 -9.9,-119.8 -17.9,-242.2 -15.7,-362.4 0,-0.1 4.3,-228.6 -1.2,-560.5"
         style="fill:#debb81;fill-opacity:1;fill-rule:nonzero;stroke:none"
         id="path336" />
      <path
         d="m 10131.1,14871.4 c 50.4,-50.2 69.3,-125.8 93.7,-192.7 188.1,248.1 326.5,735.5 58.6,958.9 -402.74,335.7 -410.78,-508.8 -152.3,-766.2"
         style="fill:#351f17;fill-opacity:1;fill-rule:nonzero;stroke:none"
         id="path338" />
      <path
         d="m 9267.54,8197.7 -31.09,-209.7 122.03,-278.1 c 0,0 -51.64,-46.2 -108.71,45 l -108.75,229.3 15.27,236.2 111.25,-22.7"
         style="fill:#cb735b;fill-opacity:1;fill-rule:nonzero;stroke:none"
         id="path340" />
      <path
         d="m 9211.6,8126.8 -42.65,-207.7 106.13,-284.5 c 0,0 -53.99,-43.2 -105.86,51.1 l -95.82,235 28.48,235 109.72,-28.9"
         style="fill:#cb735b;fill-opacity:1;fill-rule:nonzero;stroke:none"
         id="path342" />
      <path
         d="m 8977.23,8080.3 37.97,243.8 41.83,302.5 189.3,26.2 65.04,-319 15.78,-167.5 19.02,-228.8 10.16,-73.9 c 0,0 -59.3,-19 -105.39,98.5 l -48.28,215.8 -82.07,-169.6 69.49,-297.8 c 0,0 -17.78,-155.4 -64.38,-96.8 l -156.6,417.9 8.13,48.7"
         style="fill:#e68368;fill-opacity:1;fill-rule:nonzero;stroke:none"
         id="path344" />
      <path
         d="m 9705.55,10687.3 c 0,0 -418.99,-1651.1 -459.22,-2034.5 0,0 -162.74,-193.2 -189.3,-26.2 -53.24,333.4 22.38,2078.7 107.66,2216.8 85.15,138.2 540.86,-156.1 540.86,-156.1"
         style="fill:#e68368;fill-opacity:1;fill-rule:nonzero;stroke:none"
         id="path346" />
      <path
         d="m 9365.55,12676.5 -137.5,-44.9 c 0,0 -217.78,-1693.5 -33.52,-2071.8 184.26,-378.3 396.33,1.9 465.43,44.7 68.99,42.9 509.64,1960.9 509.64,1960.9 l -804.05,111.1"
         style="fill:#e68368;fill-opacity:1;fill-rule:nonzero;stroke:none"
         id="path348" />
      <path
         d="m 9069.53,10756.4 87.93,2121.7 c 99.61,520.7 632.77,365.7 632.77,365.7 432.37,-112.5 411.67,-597.1 411.67,-597.1 l -371.86,-2032.2 c 0,0 -77.89,-310.7 -477.93,-310.7 0,0 -295.16,39.8 -282.58,452.6"
         style="fill:#101317;fill-opacity:1;fill-rule:nonzero;stroke:none"
         id="path350" />
      <path
         d="m 9324.96,8600 -6.64,-193 -335.9,11.6 6.64,193 335.9,-11.6"
         style="fill:#ffffff;fill-opacity:1;fill-rule:nonzero;stroke:none"
         id="path352" />
      <path
         d="m 9793.4,10543.1 c 0,0 -185.51,-1247.2 -451.6,-2011.1 0,0 -228.25,-21.4 -358.28,12.4 0,0 -19.77,1788.3 127.42,2366.9 0,0 735.35,-15.4 682.46,-368.2"
         style="fill:#101317;fill-opacity:1;fill-rule:nonzero;stroke:none"
         id="path354" />
      <path
         d="m 9523.05,2653.8 c 0,0 -75.04,-292.1 -167.23,-371.3 -92.23,-79.3 -444.06,-195.7 -444.06,-195.7 l -194.92,-28 c 0,0 -135.47,-97.2 236.4,-199.4 371.8,-102.2 1024.42,206.2 1024.42,206.2 l -147.11,597.1 -307.5,-8.9"
         style="fill:#281112;fill-opacity:1;fill-rule:nonzero;stroke:none"
         id="path356" />
      <path
         d="m 11509.8,1850.5 c 65.7,102.3 203.1,659.6 203.1,659.6 l 303.9,9.2 190.1,-613.6 c 0,0 30.5,-102.7 -31.5,-141.2 0,0 -379,-131.5 -702.5,6.3 0,0 3.4,27.4 36.9,79.7"
         style="fill:#281112;fill-opacity:1;fill-rule:nonzero;stroke:none"
         id="path358" />
      <path
         d="M 9626.25,10313.1 9238.36,12684 c 0,0 -133.71,356.5 133.63,534.6 l 1018.91,478.9 h 718.6 l 1224.9,-723.9 -802.9,-2660.5 H 9626.25"
         style="fill:#f69575;fill-opacity:1;fill-rule:nonzero;stroke:none"
         id="path360" />
      <path
         d="m 11531.5,10313.1 c 0,0 220,-502.4 273.1,-1657.3 0,0 -1656,-519.4 -2175.42,0 l -2.93,1657.3 h 1905.25"
         style="fill:#0d1013;fill-opacity:1;fill-rule:nonzero;stroke:none"
         id="path362" />
      <path
         d="m 10445.9,8660.8 c -2.8,-387.5 299,-704 674.1,-706.7 375.2,-2.8 681.7,309.1 684.6,696.7 2.8,387.6 -299.1,703.9 -674.2,706.7 -375.2,2.8 -681.7,-309.2 -684.5,-696.7"
         style="fill:#0d1013;fill-opacity:1;fill-rule:nonzero;stroke:none"
         id="path364" />
      <path
         d="m 11803.9,8565.4 180.2,-2951.3 c 0,0 -318.9,-767.5 -883.4,-295.7 l -612.9,3036 c 0,0 297.5,1020.3 1316.1,211"
         style="fill:#0d1013;fill-opacity:1;fill-rule:nonzero;stroke:none"
         id="path366" />
      <path
         d="m 11984.1,5614.1 c 0,0 169.8,-554.1 119.3,-1519.1 l 50.5,-1803.9 -625.1,-12.4 -425.1,3030.4 c 0,0 425.6,982.3 880.4,305"
         style="fill:#0d1013;fill-opacity:1;fill-rule:nonzero;stroke:none"
         id="path368" />
      <path
         d="m 9632.27,8653.9 c -39.3,-385.5 98.51,-715.3 471.73,-753.4 373.3,-38.2 707.8,243.6 747.1,629.1 39.3,385.6 -231.4,729 -604.6,767.1 -373.3,38.1 -574.9,-257.2 -614.23,-642.8"
         style="fill:#0d1013;fill-opacity:1;fill-rule:nonzero;stroke:none"
         id="path370" />
      <path
         d="m 10691.8,8146.3 -342.9,-2719 c 0,0 -743.55,-329.7 -875.58,131.6 0,0 17.31,2071.3 158.95,3095 0,0 918.13,447.2 1059.53,-507.6"
         style="fill:#0d1013;fill-opacity:1;fill-rule:nonzero;stroke:none"
         id="path372" />
      <path
         d="m 10348.9,5538.4 c 0,0 104.3,-398.9 -8.4,-1127 l -258,-2060.9 -658.55,34.9 49.37,3282.8 c 0,0 410.04,430.2 875.58,-129.8"
         style="fill:#0d1013;fill-opacity:1;fill-rule:nonzero;stroke:none"
         id="path374" />
      <path
         d="m 12176.5,10524.4 c 140,-1404.2 82.6,-1497.1 68,-2060.3 0,0 74.8,-198.2 202.1,-86.9 127.3,111.2 330.3,1981.2 266.4,2130.3 -95.2,221.4 -536.5,16.9 -536.5,16.9"
         style="fill:#f69575;fill-opacity:1;fill-rule:nonzero;stroke:none"
         id="path376" />
      <path
         d="m 12265.2,8520.1 -197.5,-197.4 -167.8,-245.9 c 83.1,-55.9 170.1,81.7 170.1,81.7 -54.3,-216.7 -159.6,-408 -159.6,-408 -25.5,-77.7 47.8,-71.9 47.8,-71.9 82,84.1 186.8,332.2 186.8,332.2 -39.4,-147.8 -139.6,-383.3 -139.6,-383.3 -9.4,-67.6 58.3,-48.4 58.3,-48.4 139.3,82.5 185.6,383.4 185.6,383.4 -13.9,-114.1 -103.9,-348.6 -103.9,-348.6 16.2,-46.5 38.9,-30.6 38.9,-30.6 120.3,48.3 164,338.1 164,338.1 l -19.2,-108 c -39.3,-145.6 50.9,-108 50.9,-108 l 32.5,73 c 95.2,224 66.5,425.7 66.5,425.7 l -0.6,262.1 -213.2,53.9"
         style="fill:#f69575;fill-opacity:1;fill-rule:nonzero;stroke:none"
         id="path378" />
      <path
         d="m 11865.7,12930 c 472.9,107.7 634.4,-329.4 634.4,-329.4 0,0 237.5,-1454.9 234.6,-2078.4 -2,-420.8 -515.3,-81.9 -549,-7.9 -74.4,163.2 -613.9,1915.7 -613.9,1915.7 0,0 -28.1,411.7 293.9,500"
         style="fill:#f69575;fill-opacity:1;fill-rule:nonzero;stroke:none"
         id="path380" />
      <path
         d="m 12105.7,10489.8 -613.3,1988.4 c 13.7,494.3 497.4,568.1 497.4,568.1 454.9,43.5 554.5,-347.9 554.5,-347.9 l 220,-1990.5 c 0,0 74.6,-447.5 -183.9,-454 0,0 -433.7,-47 -474.7,235.9"
         style="fill:#13171d;fill-opacity:1;fill-rule:nonzero;stroke:none"
         id="path382" />
      <path
         d="m 12543.9,8581.9 -37.8,-189.4 -329.6,65.9 37.8,189.4 329.6,-65.9"
         style="fill:#ffffff;fill-opacity:1;fill-rule:nonzero;stroke:none"
         id="path384" />
      <path
         d="m 12068.5,10610.5 c 0,0 79.4,-1670.4 108,-2012 l 372.9,-78.4 c 0,0 337.2,1674 214.9,2187.8 0,0 -487.2,265.8 -695.8,-97.4"
         style="fill:#13171d;fill-opacity:1;fill-rule:nonzero;stroke:none"
         id="path386" />
      <path
         d="m 11113,14221.2 v -768.1 h -812.2 c 0,0 199.8,304.5 99.9,768.1 h 712.3"
         style="fill:#f69575;fill-opacity:1;fill-rule:nonzero;stroke:none"
         id="path388" />
      <path
         d="m 10701,13568.9 c -73.1,-47 -228.7,-147.3 -317.5,-88.7 -23.9,15.9 -35,36.6 -38.6,59.6 52.2,121.7 124.1,364.3 55.8,681.4 h 712.3 v -69.6 c -88.8,-224.9 -202.8,-447.8 -412,-582.7"
         style="fill:#e27462;fill-opacity:1;fill-rule:nonzero;stroke:none"
         id="path390" />
      <path
         d="m 11132.4,14210.4 c 0,0 138.3,60.1 294.8,402.2 0,0 339.8,404.6 99,863.8 0,0 -142.4,388.5 -831.9,279.7 0,0 -62.1,-1040.9 438.1,-1545.7"
         style="fill:#f7906e;fill-opacity:1;fill-rule:nonzero;stroke:none"
         id="path392" />
      <path
         d="m 10283.2,14002.7 -46,120.4 c 0,0 -126.9,448.1 -126.9,448.2 -16,56.3 -16.9,131.7 -6.6,189.6 11.1,63 18.2,128.9 1.8,195.3 -80.1,322.3 85.1,505.2 85.1,505.2 182,303.9 630,314 630,314 554.6,-14.4 613.6,-549.4 613.6,-549.4 98.3,-354.5 -178.5,-658 -179.1,-658.7 -22.1,-24.1 -7.8,-141.2 -13.8,-174.7 -25.9,-143 -160,-233.7 -279.3,-296.7 -131,-69.3 -289.7,-143.4 -437.7,-160.4 -56.1,-6.5 -214.8,-1.9 -241.1,67.2"
         style="fill:#f69575;fill-opacity:1;fill-rule:nonzero;stroke:none"
         id="path394" />
      <path
         d="m 11663.4,10377.5 c -1.7,-79 118.2,-905.35 67.9,-916 -0.3,0 -1371,-315.9 -2102.12,0 l -2.93,851.6 -387.89,2370.9 c 0,0 -133.71,356.5 133.63,534.6 l 1018.91,478.9 -68.8,-206.5 147.3,-419 640.1,625.5 1224.9,-723.9 c -68.4,-226.9 -136.5,-453.8 -205,-680.6 -126.2,-418.2 -249.1,-837.6 -379.2,-1254.6 0,0 -107.7,-452.3 -86.8,-660.9"
         style="fill:#ffffff;fill-opacity:1;fill-rule:nonzero;stroke:none"
         id="path396" />
      <path
         d="m 10557.9,13548.4 8.4,-381.7 140.6,137.4 z"
         style="fill:#d3d2d2;fill-opacity:1;fill-rule:nonzero;stroke:none"
         id="path398" />
      <path
         d="m 10378.8,12932.9 c 0,-30.1 24.4,-54.5 54.5,-54.5 30,0 54.5,24.4 54.5,54.5 0,30 -24.5,54.4 -54.5,54.4 -30.1,0 -54.5,-24.4 -54.5,-54.4"
         style="fill:#e9e9e9;fill-opacity:1;fill-rule:nonzero;stroke:none"
         id="path400" />
      <path
         d="m 10378.8,11943.8 c 0,-30 24.4,-54.4 54.5,-54.4 30,0 54.5,24.4 54.5,54.4 0,30.1 -24.5,54.5 -54.5,54.5 -30.1,0 -54.5,-24.4 -54.5,-54.5"
         style="fill:#e9e9e9;fill-opacity:1;fill-rule:nonzero;stroke:none"
         id="path402" />
      <path
         d="m 10378.8,10954.8 c 0,-30.1 24.4,-54.5 54.5,-54.5 30,0 54.5,24.4 54.5,54.5 0,30.1 -24.5,54.5 -54.5,54.5 -30.1,0 -54.5,-24.4 -54.5,-54.5"
         style="fill:#e9e9e9;fill-opacity:1;fill-rule:nonzero;stroke:none"
         id="path404" />
      <path
         d="m 10378.8,9965.74 c 0,-30.04 24.4,-54.49 54.5,-54.49 30,0 54.5,24.45 54.5,54.49 0,30.04 -24.5,54.46 -54.5,54.46 -30.1,0 -54.5,-24.42 -54.5,-54.46"
         style="fill:#e9e9e9;fill-opacity:1;fill-rule:nonzero;stroke:none"
         id="path406" />
      <path
         d="M 10557.9,13123.2 V 9369.6"
         style="fill:none;stroke:#e9e9e9;stroke-width:29.4812;stroke-linecap:butt;stroke-linejoin:miter;stroke-miterlimit:10;stroke-dasharray:none;stroke-opacity:1"
         id="path408" />
      <path
         d="m 9637.66,9383.4 c 0,0 700.04,-328 2132.94,7.2 23.6,5.6 13.6,66.7 13.6,66.7 l -13.6,137.9 c -6.3,44.21 -30.9,42.14 -30.9,42.14 -0.4,-0.04 -1371.1,-315.94 -2102.04,0 0,0 -29.53,5.16 -30.78,-39.1 V 9426.3 c 0,0 0,-34.4 30.78,-42.9"
         style="fill:#411c12;fill-opacity:1;fill-rule:nonzero;stroke:none"
         id="path410" />
      <path
         d="m 10348.9,9279.3 c 0,-21.9 17.2,-39.6 38.6,-39.6 h 278.8 c 21.3,0 38.7,17.7 38.7,39.6 v 200.82 c 0,21.79 -17.4,39.57 -38.7,39.57 h -278.8 c -21.4,0 -38.6,-17.78 -38.6,-39.57 z"
         style="fill:none;stroke:#bdbcbc;stroke-width:48.2309;stroke-linecap:butt;stroke-linejoin:miter;stroke-miterlimit:10;stroke-dasharray:none;stroke-opacity:1"
         id="path412" />
      <path
         d="m 10705,9392.3 h -147.7"
         style="fill:none;stroke:#bdbcbc;stroke-width:48.2309;stroke-linecap:butt;stroke-linejoin:miter;stroke-miterlimit:10;stroke-dasharray:none;stroke-opacity:1"
         id="path414" />
      <path
         d="m 10557.9,13557 c 0,0 449.4,174.6 555.1,348.4 l 132.9,-253.1 -473.9,-454.4 -214.1,350.5"
         style="fill:#e9e9e9;fill-opacity:1;fill-rule:nonzero;stroke:none"
         id="path416" />
      <path
         d="m 10998.9,15373.1 c 15.2,-27.3 75.5,-217.9 1.3,-313.4 156.5,-120.3 80.9,-364 80.9,-364 l 38,-2.1 c 219.6,56.8 145.9,-358.7 145.9,-358.8 1.6,9.5 38.2,32.8 45.5,39.7 42.9,41.2 133.4,189 161.9,241.1 154.6,283.5 140,298 181.5,465.3 28.4,114.3 16.1,423.8 -150.2,579.4 0,0 -193.9,0.1 -504.8,-287.2"
         style="fill:#351f17;fill-opacity:1;fill-rule:nonzero;stroke:none"
         id="path418" />
      <path
         d="m 11172,14515.2 c 19.7,-16.6 45.4,-26.9 78.1,-27.9 88.4,-2.8 165.5,76.4 172.3,177 6.8,100.2 -59.3,184 -147.6,186.7 -41.9,1.3 -81.4,-15.8 -111.8,-44.8 -44.4,-42.4 -49.6,-124.2 -42.2,-181.1 5.9,-45.5 21.8,-85 51.2,-109.9"
         style="fill:#f69575;fill-opacity:1;fill-rule:nonzero;stroke:none"
         id="path420" />
      <path
         d="m 11234.8,14759.1 c 7.7,52.6 112,-2.8 94.5,-31.8 -10.2,-16.7 -29.5,-28.3 -44.7,-39.6 -20.9,-15.6 -31.4,-30.1 -35.5,-56.1 -0.5,-3.1 -1.5,-12.2 1.4,-14.6 13.4,-10.2 61.1,39.3 71.5,49.7 20.5,20.4 25,56.9 16.8,83.8 -8.7,28.6 -26.6,42.8 -56.8,42.3 -24,-0.3 -48.6,-0.8 -48.5,-30.6 0,-0.8 0.9,-5.8 1.3,-3.1 v 0"
         style="fill:#eb7963;fill-opacity:1;fill-rule:nonzero;stroke:none"
         id="path422" />
      <path
         d="m 11266.4,14702.8 c -10.6,11.7 -21.6,2.9 -33.4,-4.8 -10.9,-7.2 -17.3,-17.8 -20.6,-30.2 -7.4,-27.2 -5.3,-64 9.3,-88.7 11.7,-19.9 32.5,-32.7 55.8,-33.2 32.2,-0.5 43,27.5 45.6,54.7 0.7,7.1 2.1,24.4 -4.9,29.2 -7.4,5.1 -13.4,-6.5 -18.8,-11.4 -7.4,-6.5 -18.2,-8.6 -27.6,-9 -18.5,-0.8 -36,9.4 -47,23.6 -1.8,2.5 -3.5,5.5 -4.4,8.4 -0.8,-17.7 -0.1,-21.8 2.2,-12 1.7,4.5 3.9,8.5 6.7,12.2 8,12 21,19.9 29.8,31.2 4.3,5.3 12.6,24 7.3,30 v 0"
         style="fill:#eb7963;fill-opacity:1;fill-rule:nonzero;stroke:none"
         id="path424" />
      <path
         d="m 11313,13577.2 -544.8,-1913.9 80.8,-3477.5 c 0,0 846.6,51.9 1216.5,386.6 l -260.9,2031.2 529.8,2370 -1021.4,603.6"
         style="fill:#13171d;fill-opacity:1;fill-rule:nonzero;stroke:none"
         id="path426" />
      <path
         d="m 11313,13577.2 -544.8,-1913.9 2.2,-90.9 686.3,702.4 c 0,0 72.1,121.8 -25.6,194 l -162.1,155.1 115.6,82.9 c 0,0 162.2,78.7 142.5,226.1 l -46.4,554.2 -167.7,90.1"
         style="fill:#202b33;fill-opacity:1;fill-rule:nonzero;stroke:none"
         id="path428" />
      <path
         d="m 10106.3,13563.8 -620.48,-291.6 c 0,0 -353.09,-93.3 -280.9,-459.1 l 204.03,-2026.8 -102.19,-2147.6 c 0,0 -87.42,-399.1 631.91,-331.5 l 254.53,3407.7 -86.9,1848.9"
         style="fill:#13171d;fill-opacity:1;fill-rule:nonzero;stroke:none"
         id="path430" />
      <path
         d="m 10178.3,13537.6 c 0,0 41.3,159.9 243.9,295 l -26.5,-551.1 c 0,0 -112.4,281.9 -217.4,256.1"
         style="fill:#e9e9e9;fill-opacity:1;fill-rule:nonzero;stroke:none"
         id="path432" />
      <path
         d="m 10159.8,13281.5 18.5,256.1 c 61.8,15.2 117.2,-71.4 162.2,-142.4 l -180.7,-113.7"
         style="fill:#d3d2d2;fill-opacity:1;fill-rule:nonzero;stroke:none"
         id="path434" />
      <path
         d="m 10106.3,13563.8 -160.01,-75.2 -115.51,-533.7 c 0,0 -57.93,-138.1 25.9,-174.2 l 150.82,-88 -212.5,-134.5 c 0,0 -111.84,-70 -43.01,-173.2 l 426.31,-832.2 13.4,142.3 -85.4,1868.7"
         style="fill:#202b33;fill-opacity:1;fill-rule:nonzero;stroke:none"
         id="path436" />
      <path
         d="m 10222.7,14452.4 c 8.4,43.1 10.2,70.3 47,77.1 73.1,13.5 152.9,1.1 225.6,-8.2 58.9,-7.5 131.7,-15.1 155.8,-79.4 21.2,-56.5 5.6,-138.9 -24.1,-190.5 -50.3,-87.1 -213,-132 -295.4,-75.6 -70.2,48.1 -124.6,195.2 -108.9,276.6 z m 955.7,-17.8 -59.3,259 -38,2.1 c 0,0 -38.3,-171.6 -243.5,-201.9 0,0 -88.8,-13.4 -126.6,-18.4 -4.9,-0.7 -59.6,53.3 -66.6,57.9 -60.7,39.5 -133.7,50.2 -204.6,55.8 -72.3,5.5 -149.8,12.5 -219.1,-13.9 -9.3,-3.5 -97.9,-48.4 -100.9,-35.8 0,0 93.9,-414.9 159.9,-533.5 0,0 28.9,-91.3 242.2,-69 0,0 366.1,32.5 650.4,297.5 47.2,35.5 6.1,200.2 6.1,200.2"
         style="fill:#b06952;fill-opacity:1;fill-rule:nonzero;stroke:none"
         id="path438" />
      <path
         d="m 10602,13410.4 16.6,31 113,-173.4 -97.1,-34.6 -32.5,177"
         style="fill:#0e87d2;fill-opacity:1;fill-rule:nonzero;stroke:none"
         id="path440" />
      <path
         d="m 10340.5,13395.2 -31.7,48.5 c 0,0 -120.7,-101.4 6.1,-210.3 0,0 -0.1,89.7 25.6,161.8"
         style="fill:#0e87d2;fill-opacity:1;fill-rule:nonzero;stroke:none"
         id="path442" />
      <path
         d="m 10602,13410.4 c 0,0 -95.8,-85.1 -261.5,-15.2 -36.2,-46.2 -36.1,-104.9 -25.6,-161.8 l 85.8,-177.1 h 119.9 l 113.9,177.1 c 0,0 11.7,39 -32.5,177"
         style="fill:#0e87d2;fill-opacity:1;fill-rule:nonzero;stroke:none"
         id="path444" />
      <path
         d="m 10520.6,13056.3 96.9,-2533.4 -202.2,-393.5 -165.1,391.5 150.5,2535.4 h 119.9"
         style="fill:#0b6cab;fill-opacity:1;fill-rule:nonzero;stroke:none"
         id="path446" />
      <path
         d="m 10967.1,15407.7 185,92 351.6,160.6 c 0,0 -0.1,241 -443.6,334 0,0 -543.8,85.9 -976.5,-143 0,0 -118.01,-64.4 -210.98,-7.2 0,0 150.28,-629.5 1094.48,-436.4"
         style="fill:#351f17;fill-opacity:1;fill-rule:nonzero;stroke:none"
         id="path448" />
    </g>
  </g>
</svg>
